<?xml version="1.0" standalone="no"?>
<!DOCTYPE svg PUBLIC "-//W3C//DTD SVG 1.1//EN" "http://www.w3.org/Graphics/SVG/1.1/DTD/svg11.dtd" >
<svg>
<metadata>
Created by FontForge 20090914 at Mon Jan 22 13:15:55 2018
 By www-data
Typeface and data &#194;&#169; 1995-1997 Microsoft Corporation. All Rights Reserved.
</metadata>
<defs>
<font id="Tahoma" horiz-adv-x="1118" >
  <font-face 
    font-family="Tahoma"
    font-weight="400"
    font-stretch="normal"
    units-per-em="2048"
    panose-1="2 11 6 4 3 5 4 4 2 4"
    ascent="1638"
    descent="-410"
    x-height="1117"
    cap-height="1489"
    bbox="-1228 -424.003 2741 2118"
    underline-thickness="130"
    underline-position="-105"
    unicode-range="U+0020-U+FFFC"
  />
<missing-glyph horiz-adv-x="2048" 
d="M256 0v1536h1536v-1536h-1536zM384 128h1280v1280h-1280v-1280z" />
    <glyph glyph-name="afii62881" unicode="&#x651;&#x64b;" horiz-adv-x="618" 
d="M436 1407c54 0 97.498 17.832 130.498 53.499s49.5 86.167 49.5 151.5c0 34 -0.833008 58 -2.5 72s-2.83398 24.333 -3.50098 31h-94v-7c0.666992 -8 1.83398 -20 3.50098 -36s2.5 -35.333 2.5 -58c0 -38 -7.5 -66.167 -22.5 -84.5s-36.167 -27.5 -63.5 -27.5
c-23.333 0 -42.5 9.5 -57.5 28.5s-22.5 47.5 -22.5 85.5v60h-94v-70c0 -50.667 -8.5 -88.667 -25.5 -114s-39.833 -38 -68.5 -38c-23.333 0 -41.166 6.66699 -53.499 20s-18.5 32 -18.5 56c0 16.667 0.833008 34.334 2.5 53.001l3.5 39v7h-96
c-0.666992 -8.66699 -1.5 -23.167 -2.5 -43.5s-1.5 -39.5 -1.5 -57.5c0 -53.333 15 -94.666 45 -123.999s70.333 -44 121 -44c39.333 0 72.5 11.5 99.5 34.5s43.5 47.167 49.5 72.5c8.66699 -16.667 23.834 -30.834 45.501 -42.501s46.167 -17.5 73.5 -17.5zM597.998 2019
l-573 -100v100l573 97v-97zM597.998 1819l-573 -101v101l573 96v-96z" />
    <glyph glyph-name="afii62882" unicode="&#x651;&#x64c;" horiz-adv-x="613" arabic-form="isolated" 
d="M433 1363c54 0 97.498 17.832 130.498 53.499s49.5 86.167 49.5 151.5c0 34 -0.833008 58 -2.5 72s-2.83398 24.333 -3.50098 31h-94v-7c0.666992 -8 1.83398 -20 3.50098 -36s2.5 -35.333 2.5 -58c0 -38 -7.5 -66.167 -22.5 -84.5s-36.167 -27.5 -63.5 -27.5
c-23.333 0 -42.5 9.5 -57.5 28.5s-22.5 47.5 -22.5 85.5v60h-94v-70c0 -50.667 -8.5 -88.667 -25.5 -114s-39.833 -38 -68.5 -38c-23.333 0 -41.166 6.66699 -53.499 20s-18.5 32 -18.5 56c0 16.667 0.833008 34.334 2.5 53.001l3.5 39v7h-96
c-0.666992 -8.66699 -1.5 -23.167 -2.5 -43.5s-1.5 -39.5 -1.5 -57.5c0 -53.333 15 -94.666 45 -123.999s70.333 -44 121 -44c39.333 0 72.5 11.5 99.5 34.5s43.5 47.167 49.5 72.5c8.66699 -16.667 23.834 -30.834 45.501 -42.501s46.167 -17.5 73.5 -17.5zM351.998 1804
c-34 10.667 -63.998 29.8311 -89.998 57.498s-39 60.5 -39 98.5c0 46 15.5 83.833 46.5 113.5s72.833 44.5 125.5 44.5c45.333 0 85 -15.167 119 -45.5s51 -69.166 51 -116.499c0 -22.667 -6 -46.167 -18 -70.5s-23.667 -41.166 -35 -50.499l63 -12v-86l-126 28
c-62 -35.333 -128 -62.333 -198 -81s-137.333 -30.334 -202 -35.001l3.5 36c2.33301 24 4.5 50 6.5 78c1.33301 22 3.16602 48 5.49902 78s3.5 48.333 3.5 55c0 8.66699 -1.66699 16 -5 22s-11.333 9 -24 9c-12 0 -26 -0.5 -42 -1.5s-26.667 -1.83301 -32 -2.5v96
c4 0 19 1 45 3s47.333 3 64 3c21.333 0 39.666 -6.16699 54.999 -18.5s23 -29.166 23 -50.499c0 -30.667 -2.5 -73.5 -7.5 -128.5l-7.5 -82.5c28 4 61 10.167 99 18.5s76.667 21.833 116 40.5zM428 1860c14 12 25.333 25.501 34 40.501s13 34.167 13 57.5
c0 19.333 -7.83301 35 -23.5 47s-33.167 18 -52.5 18c-23.333 0 -42.833 -5.5 -58.5 -16.5s-23.5 -27.167 -23.5 -48.5c0 -22.667 9.5 -42.334 28.5 -59.001s46.5 -29.667 82.5 -39z" />
    <glyph glyph-name="afii62883" unicode="&#x651;&#x64d;" horiz-adv-x="618" arabic-form="isolated" 
d="M436 1810c54 0 97.498 17.832 130.498 53.499s49.5 86.167 49.5 151.5c0 34 -0.833008 58 -2.5 72s-2.83398 24.333 -3.50098 31h-94v-7c0.666992 -8 1.83398 -20 3.50098 -36s2.5 -35.333 2.5 -58c0 -38 -7.5 -66.167 -22.5 -84.5s-36.167 -27.5 -63.5 -27.5
c-23.333 0 -42.5 9.5 -57.5 28.5s-22.5 47.5 -22.5 85.5v60h-94v-70c0 -50.667 -8.5 -88.667 -25.5 -114s-39.833 -38 -68.5 -38c-23.333 0 -41.166 6.66699 -53.499 20s-18.5 32 -18.5 56c0 16.667 0.833008 34.334 2.5 53.001l3.5 39v7h-96
c-0.666992 -8.66699 -1.5 -23.167 -2.5 -43.5s-1.5 -39.5 -1.5 -57.5c0 -53.333 15 -94.666 45 -123.999s70.333 -44 121 -44c39.333 0 72.5 11.5 99.5 34.5s43.5 47.167 49.5 72.5c8.66699 -16.667 23.834 -30.834 45.501 -42.501s46.167 -17.5 73.5 -17.5zM597.998 1652
l-573 -97v100l573 97v-100zM597.998 1450l-573 -97v100l573 97v-100z" />
    <glyph glyph-name="afii62884" unicode="&#x651;&#x64e;" horiz-adv-x="614" arabic-form="isolated" 
d="M434 1618c54 0 97.498 17.832 130.498 53.499s49.5 86.167 49.5 151.5c0 34 -0.833008 58 -2.5 72s-2.83398 24.333 -3.50098 31h-94v-7c0.666992 -8 1.83398 -20 3.50098 -36s2.5 -35.333 2.5 -58c0 -38 -7.5 -66.167 -22.5 -84.5s-36.167 -27.5 -63.5 -27.5
c-23.333 0 -42.5 9.5 -57.5 28.5s-22.5 47.5 -22.5 85.5v60h-94v-70c0 -50.667 -8.5 -88.667 -25.5 -114s-39.833 -38 -68.5 -38c-23.333 0 -41.166 6.66699 -53.499 20s-18.5 32 -18.5 56c0 16.667 0.833008 34.334 2.5 53.001l3.5 39v7h-96
c-0.666992 -8.66699 -1.5 -23.167 -2.5 -43.5s-1.5 -39.5 -1.5 -57.5c0 -53.333 15 -94.666 45 -123.999s70.333 -44 121 -44c39.333 0 72.5 11.5 99.5 34.5s43.5 47.167 49.5 72.5c8.66699 -16.667 23.834 -30.834 45.501 -42.501s46.167 -17.5 73.5 -17.5zM593.998 2017
l-574 -100v100l574 97v-97z" />
    <glyph glyph-name="afii62885" unicode="&#x651;&#x64f;" horiz-adv-x="614" arabic-form="isolated" 
d="M434 1353c54 0 97.498 17.832 130.498 53.499s49.5 86.167 49.5 151.5c0 34 -0.833008 58 -2.5 72s-2.83398 24.333 -3.50098 31h-94v-7c0.666992 -8 1.83398 -20 3.50098 -36s2.5 -35.333 2.5 -58c0 -38 -7.5 -66.167 -22.5 -84.5s-36.167 -27.5 -63.5 -27.5
c-23.333 0 -42.5 9.5 -57.5 28.5s-22.5 47.5 -22.5 85.5v60h-94v-70c0 -50.667 -8.5 -88.667 -25.5 -114s-39.833 -38 -68.5 -38c-23.333 0 -41.166 6.66699 -53.499 20s-18.5 32 -18.5 56c0 16.667 0.833008 34.334 2.5 53.001l3.5 39v7h-96
c-0.666992 -8.66699 -1.5 -23.167 -2.5 -43.5s-1.5 -39.5 -1.5 -57.5c0 -53.333 15 -94.666 45 -123.999s70.333 -44 121 -44c39.333 0 72.5 11.5 99.5 34.5s43.5 47.167 49.5 72.5c8.66699 -16.667 23.834 -30.834 45.501 -42.501s46.167 -17.5 73.5 -17.5zM556.998 1737
l-127 27.998c-60.667 -34.667 -120.834 -61 -180.501 -79s-122.5 -29 -188.5 -33v88c50.667 3.33301 97.834 9.5 141.501 18.5s87.5 23.833 131.5 44.5c-34 10.667 -64 29.667 -90 57s-39 60.333 -39 99c0 46 15.333 83.833 46 113.5s72.667 44.5 126 44.5
c45.333 0 85 -15.167 119 -45.5s51 -69.166 51 -116.499c0 -22.667 -6.16699 -46.167 -18.5 -70.5s-23.833 -41.166 -34.5 -50.499l63 -12v-86zM409.998 1860c13.333 11.333 24.5 24.6689 33.5 40.002s13.5 34.666 13.5 57.999c0 19.333 -7.83301 35 -23.5 47
s-33.167 18 -52.5 18c-23.333 0 -42.833 -5.5 -58.5 -16.5s-23.5 -27.167 -23.5 -48.5c0 -22.667 9.5 -42.334 28.5 -59.001s46.5 -29.667 82.5 -39z" />
    <glyph glyph-name="afii62886" unicode="&#x651;&#x650;" horiz-adv-x="614" arabic-form="isolated" 
d="M434 1808c54 0 97.498 17.832 130.498 53.499s49.5 86.167 49.5 151.5c0 34 -0.833008 58 -2.5 72s-2.83398 24.333 -3.50098 31h-94v-7c0.666992 -8 1.83398 -20 3.50098 -36s2.5 -35.333 2.5 -58c0 -38 -7.5 -66.167 -22.5 -84.5s-36.167 -27.5 -63.5 -27.5
c-23.333 0 -42.5 9.5 -57.5 28.5s-22.5 47.5 -22.5 85.5v60h-94v-70c0 -50.667 -8.5 -88.667 -25.5 -114s-39.833 -38 -68.5 -38c-23.333 0 -41.166 6.66699 -53.499 20s-18.5 32 -18.5 56c0 16.667 0.833008 34.334 2.5 53.001l3.5 39v7h-96
c-0.666992 -8.66699 -1.5 -23.167 -2.5 -43.5s-1.5 -39.5 -1.5 -57.5c0 -53.333 15 -94.666 45 -123.999s70.333 -44 121 -44c39.333 0 72.5 11.5 99.5 34.5s43.5 47.167 49.5 72.5c8.66699 -16.667 23.834 -30.834 45.501 -42.501s46.167 -17.5 73.5 -17.5zM601.998 1673
l-573 -98v100l573 97v-99z" />
    <glyph glyph-name="afii64184" unicode="&#xfedf;&#xfee0;&#xfeea;" horiz-adv-x="1987" arabic-form="isolated" 
d="M670 545l-0.000976562 282c-132.667 -6.66699 -231.5 -29.667 -296.5 -69s-97.5 -95.333 -97.5 -168c0 -42.667 14.167 -79 42.5 -109s67.5 -45 117.5 -45c46 0 89.333 11.833 130 35.5s75.334 48.167 104.001 73.5zM1255 143
c-22.667 -42 -58.832 -76.334 -108.499 -103.001s-100.834 -40 -153.501 -40c-90.667 0 -167.167 35.5 -229.5 106.5s-93.5 158.5 -93.5 262.5c-30 -29.333 -66 -54.166 -108 -74.499s-92 -30.5 -150 -30.5c-97.333 0 -176.666 30 -237.999 90s-92 138 -92 234
c0 125.333 48.667 219 146 281s244.666 98 441.999 108l168 8v-520c0 -82 12.667 -148.667 38 -200s64.333 -77 117 -77s95.5 20.667 128.5 62s49.5 100 49.5 176v858h168v-858c0 -72.667 16.667 -130.5 50 -173.5s78.333 -64.5 135 -64.5c55.333 0 96.5 21.167 123.5 63.5
s40.5 108.166 40.5 197.499v837h165v-833c0 -149.333 -27.333 -262.166 -82 -338.499s-136.334 -114.5 -245.001 -114.5c-57.333 0 -111.666 13.667 -162.999 41s-87.333 61.333 -108 102zM1344 1481c54 0 97.498 17.832 130.498 53.499s49.5 86.167 49.5 151.5
c0 34 -0.833008 58 -2.5 72s-2.83398 24.333 -3.50098 31h-94v-7c0.666992 -8 1.83398 -20 3.50098 -36s2.5 -35.333 2.5 -58c0 -38 -7.5 -66.167 -22.5 -84.5s-36.167 -27.5 -63.5 -27.5c-23.333 0 -42.5 9.5 -57.5 28.5s-22.5 47.5 -22.5 85.5v60h-94v-70
c0 -50.667 -8.5 -88.667 -25.5 -114s-39.833 -38 -68.5 -38c-23.333 0 -41.166 6.66699 -53.499 20s-18.5 32 -18.5 56c0 16.667 0.833008 34.334 2.5 53.001l3.5 39v7h-96c-0.666992 -8.66699 -1.5 -23.167 -2.5 -43.5s-1.5 -39.5 -1.5 -57.5
c0 -53.333 15 -94.666 45 -123.999s70.333 -44 121 -44c39.333 0 72.5 11.5 99.5 34.5s43.5 47.167 49.5 72.5c8.66699 -16.667 23.834 -30.834 45.501 -42.501s46.167 -17.5 73.5 -17.5z" />
    <glyph glyph-name="afii62834" unicode="&#xfedf;&#xfe82;" horiz-adv-x="1247" arabic-form="isolated" 
d="M1124 563c0 -84.667 -17.668 -162.503 -53.001 -233.503s-80.666 -130.167 -135.999 -177.5c-60 -50.667 -125.667 -88.667 -197 -114s-143.333 -38 -216 -38c-66 0 -127.833 1.83301 -185.5 5.5s-91.167 5.83398 -100.5 6.50098v199h10
c20 -5.33301 59.333 -10.5 118 -15.5s112 -7.5 160 -7.5c21.333 0 38 2.16699 50 6.5l18 6.5l-539 1280h193l516 -1219c54.667 22.667 101 66.334 139 131.001s57 125.334 57 182.001v981h166v-993zM431.999 1649c-12.667 -10 -31.8291 -21.498 -57.4961 -34.498
s-55.5 -19.5 -89.5 -19.5c-26 0 -64.5 10.333 -115.5 31s-89.167 31 -114.5 31c-22 0 -48.333 -8.33301 -79 -25s-53.334 -29.667 -68.001 -39v101c11.333 9.33301 32.166 21.166 62.499 35.499s58.5 21.5 84.5 21.5c23.333 0 61.166 -10.167 113.499 -30.5
s91.166 -30.5 116.499 -30.5c28.667 0 58.167 7.66699 88.5 23s49.833 26.666 58.5 33.999v-98z" />
    <glyph glyph-name="afii62835" unicode="&#xfee0;&#xfe82;" horiz-adv-x="1454" arabic-form="final" 
d="M1337 0c-77.333 0 -144.001 20.4971 -200.001 61.4971s-96.333 102.5 -121 184.5c-59.333 -78 -132.666 -138.5 -219.999 -181.5s-178.666 -64.5 -273.999 -64.5c-66 0 -127.833 1.83301 -185.5 5.5s-91.167 5.83398 -100.5 6.50098v199h10
c20 -5.33301 59.333 -10.5 118 -15.5s112 -7.5 160 -7.5c21.333 0 38 2.16699 50 6.5l18 6.5l-539 1280h193l516 -1219c54.667 22.667 101 66.334 139 131.001s57 125.334 57 182.001v981h166v-993c0 -50 2.66699 -94.5 8 -133.5s17 -78.833 35 -119.5
c15.333 -35.333 36.666 -64.5 63.999 -87.5s61.333 -34.5 102 -34.5h123v-188h-119zM431.999 1649c-12.667 -10 -31.8291 -21.498 -57.4961 -34.498s-55.5 -19.5 -89.5 -19.5c-26 0 -64.5 10.333 -115.5 31s-89.167 31 -114.5 31c-22 0 -48.333 -8.33301 -79 -25
s-53.334 -29.667 -68.001 -39v101c11.333 9.33301 32.166 21.166 62.499 35.499s58.5 21.5 84.5 21.5c23.333 0 61.166 -10.167 113.499 -30.5s91.166 -30.5 116.499 -30.5c28.667 0 58.167 7.66699 88.5 23s49.833 26.666 58.5 33.999v-98z" />
    <glyph glyph-name="afii62836" unicode="&#xfedf;&#xfe84;" horiz-adv-x="1247" arabic-form="isolated" 
d="M1124 563c0 -84.667 -17.668 -162.503 -53.001 -233.503s-80.666 -130.167 -135.999 -177.5c-60 -50.667 -125.667 -88.667 -197 -114s-143.333 -38 -216 -38c-66 0 -127.833 1.83301 -185.5 5.5s-91.167 5.83398 -100.5 6.50098v199h10
c20 -5.33301 59.333 -10.5 118 -15.5s112 -7.5 160 -7.5c21.333 0 38 2.16699 50 6.5l18 6.5l-539 1280h193l516 -1219c54.667 22.667 101 66.334 139 131.001s57 125.334 57 182.001v981h166v-993zM372.999 1596h-336v94h74c-16 8.66699 -29.167 22.667 -39.5 42
s-15.5 39.333 -15.5 60c0 42.667 15.667 80 47 112s73.666 48 126.999 48c35.333 0 61.5 -2 78.5 -6s28.833 -7.33301 35.5 -10v-101h-6c-9.33301 4 -25.166 8.83301 -47.499 14.5s-41.833 8.5 -58.5 8.5c-29.333 0 -51.333 -6 -66 -18s-22 -28 -22 -48
c0 -30 15.333 -54.5 46 -73.5s67 -28.5 109 -28.5h74v-94z" />
    <glyph glyph-name="afii62837" unicode="&#xfee0;&#xfe84;" horiz-adv-x="1454" arabic-form="final" 
d="M1337 0c-77.333 0 -144.001 20.4971 -200.001 61.4971s-96.333 102.5 -121 184.5c-59.333 -78 -132.666 -138.5 -219.999 -181.5s-178.666 -64.5 -273.999 -64.5c-66 0 -127.833 1.83301 -185.5 5.5s-91.167 5.83398 -100.5 6.50098v199h10
c20 -5.33301 59.333 -10.5 118 -15.5s112 -7.5 160 -7.5c21.333 0 38 2.16699 50 6.5l18 6.5l-539 1280h193l516 -1219c54.667 22.667 101 66.334 139 131.001s57 125.334 57 182.001v981h166v-993c0 -50 2.66699 -94.5 8 -133.5s17 -78.833 35 -119.5
c15.333 -35.333 36.666 -64.5 63.999 -87.5s61.333 -34.5 102 -34.5h123v-188h-119zM368.999 1596h-336v94h74c-16 8.66699 -29.167 22.667 -39.5 42s-15.5 39.333 -15.5 60c0 42.667 15.667 80 47 112s73.666 48 126.999 48c35.333 0 61.5 -2 78.5 -6
s28.833 -7.33301 35.5 -10v-101h-6c-9.33301 4 -25.166 8.83301 -47.499 14.5s-41.833 8.5 -58.5 8.5c-29.333 0 -51.333 -6 -66 -18s-22 -28 -22 -48c0 -30 15.333 -54.5 46 -73.5s67 -28.5 109 -28.5h74v-94z" />
    <glyph glyph-name="afii62838" unicode="&#xfedf;&#xfe88;" horiz-adv-x="1247" arabic-form="isolated" 
d="M1124 563c0 -84.667 -17.668 -162.503 -53.001 -233.503s-80.666 -130.167 -135.999 -177.5c-60 -50.667 -125.667 -88.667 -197 -114s-143.333 -38 -216 -38c-66 0 -127.833 1.83301 -185.5 5.5s-91.167 5.83398 -100.5 6.50098v199h10
c20 -5.33301 59.333 -10.5 118 -15.5s112 -7.5 160 -7.5c21.333 0 38 2.16699 50 6.5l18 6.5l-539 1280h193l516 -1219c54.667 22.667 101 66.334 139 131.001s57 125.334 57 182.001v981h166v-993zM654.999 -423.003h-336v94h74c-16 8.66699 -29.167 22.667 -39.5 42
s-15.5 39.333 -15.5 60c0 42.667 15.667 80 47 112s73.666 48 126.999 48c35.333 0 61.5 -2 78.5 -6s28.833 -7.33301 35.5 -10v-101h-6c-9.33301 4 -25.166 8.83301 -47.499 14.5s-41.833 8.5 -58.5 8.5c-29.333 0 -51.333 -6 -66 -18s-22 -28 -22 -48
c0 -30 15.333 -54.5 46 -73.5s67 -28.5 109 -28.5h74v-94z" />
    <glyph glyph-name="afii62839" unicode="&#xfee0;&#xfe88;" horiz-adv-x="1454" arabic-form="final" 
d="M1337 0c-77.333 0 -144.001 20.4971 -200.001 61.4971s-96.333 102.5 -121 184.5c-59.333 -78 -132.666 -138.5 -219.999 -181.5s-178.666 -64.5 -273.999 -64.5c-66 0 -127.833 1.83301 -185.5 5.5s-91.167 5.83398 -100.5 6.50098v199h10
c20 -5.33301 59.333 -10.5 118 -15.5s112 -7.5 160 -7.5c21.333 0 38 2.16699 50 6.5l18 6.5l-539 1280h193l516 -1219c54.667 22.667 101 66.334 139 131.001s57 125.334 57 182.001v981h166v-993c0 -50 2.66699 -94.5 8 -133.5s17 -78.833 35 -119.5
c15.333 -35.333 36.666 -64.5 63.999 -87.5s61.333 -34.5 102 -34.5h123v-188h-119zM648.999 -423.003h-336v94h74c-16 8.66699 -29.167 22.667 -39.5 42s-15.5 39.333 -15.5 60c0 42.667 15.667 80 47 112s73.666 48 126.999 48c35.333 0 61.5 -2 78.5 -6
s28.833 -7.33301 35.5 -10v-101h-6c-9.33301 4 -25.166 8.83301 -47.499 14.5s-41.833 8.5 -58.5 8.5c-29.333 0 -51.333 -6 -66 -18s-22 -28 -22 -48c0 -30 15.333 -54.5 46 -73.5s67 -28.5 109 -28.5h74v-94z" />
    <glyph glyph-name="afii62840" unicode="&#xfedf;&#xfe8e;" horiz-adv-x="1247" arabic-form="isolated" 
d="M1124 563c0 -84.667 -17.668 -162.503 -53.001 -233.503s-80.666 -130.167 -135.999 -177.5c-60 -50.667 -125.667 -88.667 -197 -114s-143.333 -38 -216 -38c-66 0 -127.833 1.83301 -185.5 5.5s-91.167 5.83398 -100.5 6.50098v199h10
c20 -5.33301 59.333 -10.5 118 -15.5s112 -7.5 160 -7.5c21.333 0 38 2.16699 50 6.5l18 6.5l-539 1280h193l516 -1219c54.667 22.667 101 66.334 139 131.001s57 125.334 57 182.001v981h166v-993z" />
    <glyph glyph-name="afii62841" unicode="&#xfee0;&#xfe8e;" horiz-adv-x="1454" arabic-form="final" 
d="M1337 0c-77.333 0 -144.001 20.4971 -200.001 61.4971s-96.333 102.5 -121 184.5c-59.333 -78 -132.666 -138.5 -219.999 -181.5s-178.666 -64.5 -273.999 -64.5c-66 0 -127.833 1.83301 -185.5 5.5s-91.167 5.83398 -100.5 6.50098v199h10
c20 -5.33301 59.333 -10.5 118 -15.5s112 -7.5 160 -7.5c21.333 0 38 2.16699 50 6.5l18 6.5l-539 1280h193l516 -1219c54.667 22.667 101 66.334 139 131.001s57 125.334 57 182.001v981h166v-993c0 -50 2.66699 -94.5 8 -133.5s17 -78.833 35 -119.5
c15.333 -35.333 36.666 -64.5 63.999 -87.5s61.333 -34.5 102 -34.5h123v-188h-119zM1247 -0.00292969z" />
    <glyph glyph-name="afii52400" unicode="&#x622;" horiz-adv-x="494" arabic-form="isolated" 
d="M330 0h-166v1556h166v-1556zM510 1702c-12.667 -10 -31.8291 -21.498 -57.4961 -34.498s-55.5 -19.5 -89.5 -19.5c-26 0 -64.5 10.333 -115.5 31s-89.167 31 -114.5 31c-22 0 -48.333 -8.33301 -79 -25s-53.334 -29.667 -68.001 -39v101
c11.333 9.33301 32.166 21.166 62.499 35.499s58.5 21.5 84.5 21.5c23.333 0 61.166 -10.167 113.499 -30.5s91.166 -30.5 116.499 -30.5c28.667 0 58.167 7.66699 88.5 23s49.833 26.666 58.5 33.999v-98z" />
    <glyph glyph-name="afii57411" unicode="&#x623;" horiz-adv-x="494" arabic-form="isolated" 
d="M330 0h-166v1556h166v-1556zM415 1678h-336v94h74c-16 8.66699 -29.167 22.667 -39.5 42s-15.5 39.333 -15.5 60c0 42.667 15.667 80 47 112s73.666 48 126.999 48c35.333 0 61.5 -2 78.5 -6s28.833 -7.33301 35.5 -10v-101h-6c-9.33301 4 -25.166 8.83301 -47.499 14.5
s-41.833 8.5 -58.5 8.5c-29.333 0 -51.333 -6 -66 -18s-22 -28 -22 -48c0 -30 15.333 -54.5 46 -73.5s67 -28.5 109 -28.5h74v-94z" />
    <glyph glyph-name="afii57412" unicode="&#x624;" horiz-adv-x="854" arabic-form="isolated" 
d="M760 186c0 -124 -30.001 -229.331 -90.001 -315.998s-143 -152 -249 -196c-84.667 -36.667 -171.667 -62.167 -261 -76.5s-182.333 -21.5 -279 -21.5v188c88 0 170.833 5.5 248.5 16.5s145.167 27.5 202.5 49.5c77.333 29.333 139.333 69.666 186 120.999s70 119 70 203
c-9.33301 -6 -30.5 -14.333 -63.5 -25s-63.833 -16 -92.5 -16c-114.667 0 -204 30.5 -268 91.5s-96 136.167 -96 225.5c0 101.333 32.833 189.166 98.5 263.499s138.5 111.5 218.5 111.5c110.667 0 200.834 -57.667 270.501 -173s104.5 -264 104.5 -446zM574.999 340.002
c0 18.667 -3.99902 43.5 -11.999 74.5s-20.333 62.5 -37 94.5c-14.667 28 -33.334 52.833 -56.001 74.5s-47 32.5 -73 32.5c-46 0 -83.667 -18.833 -113 -56.5s-44 -78.834 -44 -123.501c0 -39.333 18.167 -71.666 54.5 -96.999s84.833 -38 145.5 -38
c28.667 0 55.667 4.5 81 13.5s43.333 17.5 54 25.5zM551 971.002h-336v94h74c-16 8.66699 -29.167 22.667 -39.5 42s-15.5 39.333 -15.5 60c0 42.667 15.667 80 47 112s73.666 48 126.999 48c35.333 0 61.5 -2 78.5 -6s28.833 -7.33301 35.5 -10v-101h-6
c-9.33301 4 -25.166 8.83301 -47.499 14.5s-41.833 8.5 -58.5 8.5c-29.333 0 -51.333 -6 -66 -18s-22 -28 -22 -48c0 -30 15.333 -54.5 46 -73.5s67 -28.5 109 -28.5h74v-94z" />
    <glyph glyph-name="afii57413" unicode="&#x625;" horiz-adv-x="494" arabic-form="isolated" 
d="M330 0h-166v1556h166v-1556zM418 -423h-336v94h74c-16 8.66699 -29.167 22.667 -39.5 42s-15.5 39.333 -15.5 60c0 42.667 15.667 80 47 112s73.666 48 126.999 48c35.333 0 61.5 -2 78.5 -6s28.833 -7.33301 35.5 -10v-101h-6c-9.33301 4 -25.166 8.83301 -47.499 14.5
s-41.833 8.5 -58.5 8.5c-29.333 0 -51.333 -6 -66 -18s-22 -28 -22 -48c0 -30 15.333 -54.5 46 -73.5s67 -28.5 109 -28.5h74v-94z" />
    <glyph glyph-name="afii57414" unicode="&#x626;" horiz-adv-x="1786" arabic-form="isolated" 
d="M1698 846l-9.99609 -0.00292969c-46.667 28.667 -101.334 53.834 -164.001 75.501s-131.667 32.5 -207 32.5c-62.667 0 -118.667 -13.333 -168 -40s-74 -61 -74 -103c0 -35.333 35.5 -67 106.5 -95l190.5 -73c34 -12.667 70.167 -28.167 108.5 -46.5
s70.166 -37.166 95.499 -56.499c29.333 -21.333 52.166 -44.333 68.499 -69s24.5 -54.667 24.5 -90c0 -124.667 -80.667 -219.334 -242 -284.001s-401.333 -97 -720 -97c-212.667 0 -368.334 35.5 -467.001 106.5s-148 182.833 -148 335.5c0 52 3.16699 104 9.5 156
s10.166 84 11.499 96h172v-10c-2 -10 -7 -43.167 -15 -99.5s-12 -103.166 -12 -140.499c0 -93.333 34.167 -159.333 102.5 -198s184.5 -58 348.5 -58c267.333 0 466.5 16.833 597.5 50.5s196.5 80.5 196.5 140.5c0 30.667 -35.5 59.334 -106.5 86.001l-190.5 72
c-36 14 -72.167 30 -108.5 48s-68.166 37.667 -95.499 59c-28 22 -50.5 46.833 -67.5 74.5s-25.5 59.167 -25.5 94.5c0 86.667 38.667 162.667 116 228s175.333 98 294 98c81.333 0 153.5 -8 216.5 -24s117.167 -34.667 162.5 -56v-213zM696.004 866.997h-336v94h74
c-16 8.66699 -29.167 22.667 -39.5 42s-15.5 39.333 -15.5 60c0 42.667 15.667 80 47 112s73.666 48 126.999 48c35.333 0 61.5 -2 78.5 -6s28.833 -7.33301 35.5 -10v-101h-6c-9.33301 4 -25.166 8.83301 -47.499 14.5s-41.833 8.5 -58.5 8.5c-29.333 0 -51.333 -6 -66 -18
s-22 -28 -22 -48c0 -30 15.333 -54.5 46 -73.5s67 -28.5 109 -28.5h74v-94z" />
    <glyph glyph-name="afii57415" unicode="&#x627;" horiz-adv-x="494" arabic-form="isolated" 
d="M330 0h-166v1556h166v-1556z" />
    <glyph glyph-name="afii57416" unicode="&#x628;" horiz-adv-x="1653" arabic-form="isolated" 
d="M827 176c-98.667 0 -185.002 7.66895 -259.002 23.002s-135.333 39 -184 71c-46 29.333 -78.5 63.5 -97.5 102.5s-28.5 82.167 -28.5 129.5c0 20.667 3.66699 50.834 11 90.501l16 85.5v10h-172l-13 -88.5c-5.33301 -37 -8 -73.833 -8 -110.5
c0 -160.667 60.833 -284.334 182.5 -371.001s305.167 -130 550.5 -130c248.667 0 433.5 43.167 554.5 129.5s181.5 210.166 181.5 371.499c0 36.667 -2.66699 73.5 -8 110.5l-13 88.5h-172v-10l16 -85.5c7.33301 -39.667 11 -69.834 11 -90.501
c0 -47.333 -9.66699 -90.333 -29 -129s-51.666 -73 -96.999 -103c-48.667 -32 -109.667 -55.667 -183 -71s-159.666 -23 -258.999 -23zM900.998 -318.998h-148v148h148v-148z" />
    <glyph glyph-name="afii57417" unicode="&#x629;" horiz-adv-x="965" arabic-form="isolated" 
d="M872 403c0 -130 -36.501 -231.667 -109.501 -305s-169.5 -110 -289.5 -110c-107.333 0 -197.666 39.167 -270.999 117.5s-110 176.833 -110 295.5c0 78.667 19.333 146.667 58 204s106 115 202 173l68 41l-135 152h233l238 -269c35.333 -39.333 63.5 -83.5 84.5 -132.5
s31.5 -104.5 31.5 -166.5zM632.999 230c22.667 20 40.666 43.001 53.999 69.001s20 60.667 20 104c0 38 -18.167 84.333 -54.5 139s-74.166 104 -113.499 148l-21 23l-67 -41c-56.667 -34 -103 -72.167 -139 -114.5s-54 -93.833 -54 -154.5c0 -59.333 21.5 -112 64.5 -158
s93.167 -69 150.5 -69c26.667 0 55 4.66699 85 14s55 22.666 75 39.999zM372.998 1196h-148v148h148v-148zM640.998 1196h-148v148h148v-148z" />
    <glyph glyph-name="afii57418" unicode="&#x62a;" horiz-adv-x="1653" arabic-form="isolated" 
d="M827 176c-98.667 0 -185.002 7.66895 -259.002 23.002s-135.333 39 -184 71c-46 29.333 -78.5 63.5 -97.5 102.5s-28.5 82.167 -28.5 129.5c0 20.667 3.66699 50.834 11 90.501l16 85.5v10h-172l-13 -88.5c-5.33301 -37 -8 -73.833 -8 -110.5
c0 -160.667 60.833 -284.334 182.5 -371.001s305.167 -130 550.5 -130c248.667 0 433.5 43.167 554.5 129.5s181.5 210.166 181.5 371.499c0 36.667 -2.66699 73.5 -8 110.5l-13 88.5h-172v-10l16 -85.5c7.33301 -39.667 11 -69.834 11 -90.501
c0 -47.333 -9.66699 -90.333 -29 -129s-51.666 -73 -96.999 -103c-48.667 -32 -109.667 -55.667 -183 -71s-159.666 -23 -258.999 -23zM768.998 815.002h-148v148h148v-148zM1037 815.002h-148v148h148v-148z" />
    <glyph glyph-name="afii57419" unicode="&#x62b;" horiz-adv-x="1653" arabic-form="isolated" 
d="M827 176c-98.667 0 -185.002 7.66895 -259.002 23.002s-135.333 39 -184 71c-46 29.333 -78.5 63.5 -97.5 102.5s-28.5 82.167 -28.5 129.5c0 20.667 3.66699 50.834 11 90.501l16 85.5v10h-172l-13 -88.5c-5.33301 -37 -8 -73.833 -8 -110.5
c0 -160.667 60.833 -284.334 182.5 -371.001s305.167 -130 550.5 -130c248.667 0 433.5 43.167 554.5 129.5s181.5 210.166 181.5 371.499c0 36.667 -2.66699 73.5 -8 110.5l-13 88.5h-172v-10l16 -85.5c7.33301 -39.667 11 -69.834 11 -90.501
c0 -47.333 -9.66699 -90.333 -29 -129s-51.666 -73 -96.999 -103c-48.667 -32 -109.667 -55.667 -183 -71s-159.666 -23 -258.999 -23zM748.998 815.002h-148v148h148v-148zM1045 815.002h-148v148h148v-148zM896.998 1024h-148v148h148v-148z" />
    <glyph glyph-name="afii57420" unicode="&#x62c;" horiz-adv-x="1247" arabic-form="isolated" 
d="M1120 561l-30 -0.00195312c-136 0 -254.167 -8.16699 -354.5 -24.5s-188.5 -43.166 -264.5 -80.499c-71.333 -34.667 -126.666 -81.167 -165.999 -139.5s-59 -126.833 -59 -205.5c0 -105.333 38.167 -190.166 114.5 -254.499s174.5 -96.5 294.5 -96.5
c90.667 0 172.334 10.5 245.001 31.5s136 48.833 190 83.5h10v-201c-58.667 -30 -120.334 -53.833 -185.001 -71.5s-150.667 -26.5 -258 -26.5c-170 0 -308.667 48.833 -416 146.5s-161 227.834 -161 390.501c0 77.333 18.667 151.5 56 222.5s97 133.833 179 188.5
c67.333 45.333 143.666 80.166 228.999 104.499s169.666 38.833 252.999 43.5c-81.333 38 -160.666 64.167 -237.999 78.5s-170 21.5 -278 21.5h-76v186h88c108 0 230.667 -21.5 368 -64.5s266 -101.833 386 -176.5h73v-156zM758 65.998h-148v148h148v-148z" />
    <glyph glyph-name="afii57421" unicode="&#x62d;" horiz-adv-x="1247" arabic-form="isolated" 
d="M1120 561l-30 -0.00195312c-136 0 -254.167 -8.16699 -354.5 -24.5s-188.5 -43.166 -264.5 -80.499c-71.333 -34.667 -126.666 -81.167 -165.999 -139.5s-59 -126.833 -59 -205.5c0 -105.333 38.167 -190.166 114.5 -254.499s174.5 -96.5 294.5 -96.5
c90.667 0 172.334 10.5 245.001 31.5s136 48.833 190 83.5h10v-201c-58.667 -30 -120.334 -53.833 -185.001 -71.5s-150.667 -26.5 -258 -26.5c-170 0 -308.667 48.833 -416 146.5s-161 227.834 -161 390.501c0 77.333 18.667 151.5 56 222.5s97 133.833 179 188.5
c67.333 45.333 143.666 80.166 228.999 104.499s169.666 38.833 252.999 43.5c-81.333 38 -160.666 64.167 -237.999 78.5s-170 21.5 -278 21.5h-76v186h88c108 0 230.667 -21.5 368 -64.5s266 -101.833 386 -176.5h73v-156z" />
    <glyph glyph-name="afii57422" unicode="&#x62e;" horiz-adv-x="1247" arabic-form="isolated" 
d="M1120 561l-30 -0.00195312c-136 0 -254.167 -8.16699 -354.5 -24.5s-188.5 -43.166 -264.5 -80.499c-71.333 -34.667 -126.666 -81.167 -165.999 -139.5s-59 -126.833 -59 -205.5c0 -105.333 38.167 -190.166 114.5 -254.499s174.5 -96.5 294.5 -96.5
c90.667 0 172.334 10.5 245.001 31.5s136 48.833 190 83.5h10v-201c-58.667 -30 -120.334 -53.833 -185.001 -71.5s-150.667 -26.5 -258 -26.5c-170 0 -308.667 48.833 -416 146.5s-161 227.834 -161 390.501c0 77.333 18.667 151.5 56 222.5s97 133.833 179 188.5
c67.333 45.333 143.666 80.166 228.999 104.499s169.666 38.833 252.999 43.5c-81.333 38 -160.666 64.167 -237.999 78.5s-170 21.5 -278 21.5h-76v186h88c108 0 230.667 -21.5 368 -64.5s266 -101.833 386 -176.5h73v-156zM918 1079h-148v148h148v-148z" />
    <glyph glyph-name="afii57423" unicode="&#x62f;" horiz-adv-x="958" arabic-form="isolated" 
d="M645 665c66.667 -61.333 118.832 -120.5 156.499 -177.5s56.5 -111.5 56.5 -163.5c0 -38.667 -7.66699 -78.334 -23 -119.001s-38 -75.334 -68 -104.001c-34.667 -32.667 -76.667 -57.667 -126 -75s-106 -26 -170 -26h-379v188h377c70 0 124.667 12.167 164 36.5
s59 56.833 59 97.5c0 28 -12.667 59.167 -38 93.5s-58.333 69.5 -99 105.5c-40.667 36.667 -84.667 72.334 -132 107.001s-101.666 72.334 -162.999 113.001v215h10l184.5 -136c77.667 -58 141.167 -109.667 190.5 -155z" />
    <glyph glyph-name="afii57424" unicode="&#x630;" horiz-adv-x="958" arabic-form="isolated" 
d="M645 665c66.667 -61.333 118.832 -120.5 156.499 -177.5s56.5 -111.5 56.5 -163.5c0 -38.667 -7.66699 -78.334 -23 -119.001s-38 -75.334 -68 -104.001c-34.667 -32.667 -76.667 -57.667 -126 -75s-106 -26 -170 -26h-379v188h377c70 0 124.667 12.167 164 36.5
s59 56.833 59 97.5c0 28 -12.667 59.167 -38 93.5s-58.333 69.5 -99 105.5c-40.667 36.667 -84.667 72.334 -132 107.001s-101.666 72.334 -162.999 113.001v215h10l184.5 -136c77.667 -58 141.167 -109.667 190.5 -155zM409.998 1178h-148v148h148v-148z" />
    <glyph glyph-name="afii57425" unicode="&#x631;" horiz-adv-x="741" arabic-form="isolated" 
d="M659 186c0 -110.667 -25.1689 -207.498 -75.502 -290.498s-125.833 -151.5 -226.5 -205.5c-80 -42.667 -162.667 -72.334 -248 -89.001s-158 -25 -218 -25v188c42.667 0 100.334 5.83301 173.001 17.5s137.334 30.834 194.001 57.501
c76.667 35.333 134 79.166 172 131.499s57 113.5 57 183.5c0 57.333 -11.167 115.666 -33.5 174.999s-52.833 117.666 -91.5 174.999v12h193c26 -47.333 49.833 -100.666 71.5 -159.999s32.5 -116 32.5 -170z" />
    <glyph glyph-name="afii57426" unicode="&#x632;" horiz-adv-x="741" arabic-form="isolated" 
d="M659 186c0 -110.667 -25.1689 -207.498 -75.502 -290.498s-125.833 -151.5 -226.5 -205.5c-80 -42.667 -162.667 -72.334 -248 -89.001s-158 -25 -218 -25v188c42.667 0 100.334 5.83301 173.001 17.5s137.334 30.834 194.001 57.501
c76.667 35.333 134 79.166 172 131.499s57 113.5 57 183.5c0 57.333 -11.167 115.666 -33.5 174.999s-52.833 117.666 -91.5 174.999v12h193c26 -47.333 49.833 -100.666 71.5 -159.999s32.5 -116 32.5 -170zM483.998 752.002h-148v148h148v-148z" />
    <glyph glyph-name="afii57427" unicode="&#x633;" horiz-adv-x="2478" arabic-form="isolated" 
d="M2374 446c0 -68 -8.1709 -130.166 -24.5039 -186.499s-40.166 -103.833 -71.5 -142.5c-33.333 -40.667 -73.666 -71.334 -120.999 -92.001s-101.333 -31 -162 -31c-51.333 0 -101.833 9 -151.5 27s-86.5 42.333 -110.5 73c-38 -31.333 -77 -55.833 -117 -73.5
s-95.333 -26.5 -166 -26.5c-50 0 -97.667 6.33301 -143 19s-80.333 28 -105 46c-10 -134.667 -70.167 -248.834 -180.5 -342.501s-246.166 -140.5 -407.499 -140.5c-77.333 0 -148.666 9.66699 -213.999 29s-120.666 49.666 -165.999 90.999s-80.333 95 -105 161
s-37 144.333 -37 235c0 66.667 4.16699 132.667 12.5 198s13.166 102.333 14.499 111h182v-16c-7.33301 -24.667 -16.333 -67.167 -27 -127.5s-16 -116.166 -16 -167.499c0 -103.333 29.5 -183.5 88.5 -240.5s148.167 -85.5 267.5 -85.5c138 0 242.833 36.333 314.5 109
s107.5 181.334 107.5 326.001c0 56 -1.66699 122.5 -5 199.5s-5.66602 125.833 -6.99902 146.5h178c0 -136.667 20.5 -231.334 61.5 -284.001s103.167 -79 186.5 -79c73.333 0 128.5 21.5 165.5 64.5s55.5 103.5 55.5 181.5v117h166v-150c0 -69.333 15 -122.166 45 -158.499
s68.333 -54.5 115 -54.5c74.667 0 128.5 21.833 161.5 65.5s49.5 114.167 49.5 211.5v258h166v-271z" />
    <glyph glyph-name="afii57428" unicode="&#x634;" horiz-adv-x="2478" arabic-form="isolated" 
d="M2374 446c0 -68 -8.1709 -130.166 -24.5039 -186.499s-40.166 -103.833 -71.5 -142.5c-33.333 -40.667 -73.666 -71.334 -120.999 -92.001s-101.333 -31 -162 -31c-51.333 0 -101.833 9 -151.5 27s-86.5 42.333 -110.5 73c-38 -31.333 -77 -55.833 -117 -73.5
s-95.333 -26.5 -166 -26.5c-50 0 -97.667 6.33301 -143 19s-80.333 28 -105 46c-10 -134.667 -70.167 -248.834 -180.5 -342.501s-246.166 -140.5 -407.499 -140.5c-77.333 0 -148.666 9.66699 -213.999 29s-120.666 49.666 -165.999 90.999s-80.333 95 -105 161
s-37 144.333 -37 235c0 66.667 4.16699 132.667 12.5 198s13.166 102.333 14.499 111h182v-16c-7.33301 -24.667 -16.333 -67.167 -27 -127.5s-16 -116.166 -16 -167.499c0 -103.333 29.5 -183.5 88.5 -240.5s148.167 -85.5 267.5 -85.5c138 0 242.833 36.333 314.5 109
s107.5 181.334 107.5 326.001c0 56 -1.66699 122.5 -5 199.5s-5.66602 125.833 -6.99902 146.5h178c0 -136.667 20.5 -231.334 61.5 -284.001s103.167 -79 186.5 -79c73.333 0 128.5 21.5 165.5 64.5s55.5 103.5 55.5 181.5v117h166v-150c0 -69.333 15 -122.166 45 -158.499
s68.333 -54.5 115 -54.5c74.667 0 128.5 21.833 161.5 65.5s49.5 114.167 49.5 211.5v258h166v-271zM1356 801.001h-148v148h148v-148zM1652 801.001h-148v148h148v-148zM1504 1010h-148v148h148v-148z" />
    <glyph glyph-name="afii57429" unicode="&#x635;" horiz-adv-x="2365" arabic-form="isolated" 
d="M2273 408c0 -70.667 -17.3379 -132.164 -52.0049 -184.497s-79.667 -94.5 -135 -126.5c-54.667 -32 -117.667 -56.167 -189 -72.5s-144.666 -24.5 -219.999 -24.5h-571c-18.667 -131.333 -75 -234.833 -169 -310.5s-214.667 -113.5 -362 -113.5
c-148 0 -265.5 42.167 -352.5 126.5s-130.5 202.5 -130.5 354.5c0 95.333 4 171.666 12 228.999s13 91.666 15 102.999h182v-16c-8 -32 -17.167 -80.333 -27.5 -145s-15.5 -122.334 -15.5 -173.001c0 -98 28.833 -171 86.5 -219s133.834 -72 228.501 -72
c56.667 0 108 6.66699 154 20s85 37 117 71c34.667 36 60.334 82.5 77.001 139.5s25 125.167 25 204.5c0 57.333 -1.66699 101 -5 131s-5.66602 49.667 -6.99902 59h178v-12c0 -38 6 -73.667 18 -107s27.333 -57 46 -71c98.667 167.333 214.167 311.833 346.5 433.5
s251.5 182.5 357.5 182.5c112.667 0 206.334 -38.5 281.001 -115.5s112 -174.167 112 -291.5zM1925 227.003c71.333 22 119.501 47.834 144.501 77.501s37.5 62.5 37.5 98.5c0 57.333 -20.667 109.333 -62 156s-97 70 -167 70c-40.667 0 -85 -15.5 -133 -46.5
s-97.333 -70.167 -148 -117.5c-44.667 -41.333 -88.334 -87.5 -131.001 -138.5s-77.334 -97.167 -104.001 -138.5h174c57.333 0 125.333 3.16699 204 9.5s140.334 16.166 185.001 29.499z" />
    <glyph glyph-name="afii57430" unicode="&#x636;" horiz-adv-x="2365" arabic-form="isolated" 
d="M2273 408c0 -70.667 -17.3379 -132.164 -52.0049 -184.497s-79.667 -94.5 -135 -126.5c-54.667 -32 -117.667 -56.167 -189 -72.5s-144.666 -24.5 -219.999 -24.5h-571c-18.667 -131.333 -75 -234.833 -169 -310.5s-214.667 -113.5 -362 -113.5
c-148 0 -265.5 42.167 -352.5 126.5s-130.5 202.5 -130.5 354.5c0 95.333 4 171.666 12 228.999s13 91.666 15 102.999h182v-16c-8 -32 -17.167 -80.333 -27.5 -145s-15.5 -122.334 -15.5 -173.001c0 -98 28.833 -171 86.5 -219s133.834 -72 228.501 -72
c56.667 0 108 6.66699 154 20s85 37 117 71c34.667 36 60.334 82.5 77.001 139.5s25 125.167 25 204.5c0 57.333 -1.66699 101 -5 131s-5.66602 49.667 -6.99902 59h178v-12c0 -38 6 -73.667 18 -107s27.333 -57 46 -71c98.667 167.333 214.167 311.833 346.5 433.5
s251.5 182.5 357.5 182.5c112.667 0 206.334 -38.5 281.001 -115.5s112 -174.167 112 -291.5zM1925 227.003c71.333 22 119.501 47.834 144.501 77.501s37.5 62.5 37.5 98.5c0 57.333 -20.667 109.333 -62 156s-97 70 -167 70c-40.667 0 -85 -15.5 -133 -46.5
s-97.333 -70.167 -148 -117.5c-44.667 -41.333 -88.334 -87.5 -131.001 -138.5s-77.334 -97.167 -104.001 -138.5h174c57.333 0 125.333 3.16699 204 9.5s140.334 16.166 185.001 29.499zM1776 1063h-148v148h148v-148z" />
    <glyph glyph-name="afii57431" unicode="&#x637;" horiz-adv-x="1380" arabic-form="isolated" 
d="M1329 408c0 -56 -13.0029 -108.832 -39.0029 -158.499s-64.667 -92.834 -116 -129.501s-115.5 -65.834 -192.5 -87.501s-167.833 -32.5 -272.5 -32.5h-729v188h196l11.5 9c7.66699 6 15.834 13.667 24.501 23c10 10.667 18.5 20.334 25.5 29.001s10.5 17.667 10.5 27
v1280h166v-1079c78.667 94.667 165.334 174.667 260.001 240s181.334 98 260.001 98c110.667 0 204.167 -37.167 280.5 -111.5s114.5 -172.833 114.5 -295.5zM1163 403.001c0 64.667 -22.9971 118.501 -68.9971 161.501s-100 64.5 -162 64.5c-40.667 0 -85 -15.5 -133 -46.5
s-97.333 -70.167 -148 -117.5c-44.667 -41.333 -88.334 -87.5 -131.001 -138.5s-77.334 -97.167 -104.001 -138.5h174c57.333 0 125.5 3.16699 204.5 9.5s140.833 16.166 185.5 29.499c55.333 16 99.666 37.667 132.999 65s50 64.333 50 111z" />
    <glyph glyph-name="afii57432" unicode="&#x638;" horiz-adv-x="1380" arabic-form="isolated" 
d="M1329 408c0 -56 -13.0029 -108.832 -39.0029 -158.499s-64.667 -92.834 -116 -129.501s-115.5 -65.834 -192.5 -87.501s-167.833 -32.5 -272.5 -32.5h-729v188h196l11.5 9c7.66699 6 15.834 13.667 24.501 23c10 10.667 18.5 20.334 25.5 29.001s10.5 17.667 10.5 27
v1280h166v-1079c78.667 94.667 165.334 174.667 260.001 240s181.334 98 260.001 98c110.667 0 204.167 -37.167 280.5 -111.5s114.5 -172.833 114.5 -295.5zM1163 403.001c0 64.667 -22.9971 118.501 -68.9971 161.501s-100 64.5 -162 64.5c-40.667 0 -85 -15.5 -133 -46.5
s-97.333 -70.167 -148 -117.5c-44.667 -41.333 -88.334 -87.5 -131.001 -138.5s-77.334 -97.167 -104.001 -138.5h174c57.333 0 125.5 3.16699 204.5 9.5s140.833 16.166 185.5 29.499c55.333 16 99.666 37.667 132.999 65s50 64.333 50 111zM824 1063h-148v148h148v-148z
" />
    <glyph glyph-name="afii57433" unicode="&#x639;" horiz-adv-x="1241" arabic-form="isolated" 
d="M1094 -319c-50.667 -31.333 -115.166 -56.6689 -193.499 -76.002s-157.833 -29 -238.5 -29c-182.667 0 -325 43.667 -427 131s-153 202.666 -153 345.999c0 79.333 18 149.5 54 210.5s86.333 111.833 151 152.5c-26.667 15.333 -56.167 46.333 -88.5 93
s-48.5 97.667 -48.5 153c0 116.667 37.167 211.334 111.5 284.001s170.833 109 289.5 109c48.667 0 94.5 -4.16699 137.5 -12.5s68.167 -13.166 75.5 -14.499v-188h-10c-17.333 4.66699 -45.5 10.834 -84.5 18.501s-75.833 11.5 -110.5 11.5
c-78.667 0 -139 -19.833 -181 -59.5s-63 -90.834 -63 -153.501c0 -35.333 12 -69.666 36 -102.999s48.333 -56.333 73 -69l477 170v-174l-424 -149c-76.667 -26.667 -134 -64.5 -172 -113.5s-57 -103.5 -57 -163.5c0 -88 36.667 -159.167 110 -213.5
s173.666 -81.5 300.999 -81.5c70 0 146.667 13.833 230 41.5s148 58.5 194 92.5h11v-213z" />
    <glyph glyph-name="afii57434" unicode="&#x63a;" horiz-adv-x="1241" arabic-form="isolated" 
d="M1094 -319c-50.667 -31.333 -115.166 -56.6689 -193.499 -76.002s-157.833 -29 -238.5 -29c-182.667 0 -325 43.667 -427 131s-153 202.666 -153 345.999c0 79.333 18 149.5 54 210.5s86.333 111.833 151 152.5c-26.667 15.333 -56.167 46.333 -88.5 93
s-48.5 97.667 -48.5 153c0 116.667 37.167 211.334 111.5 284.001s170.833 109 289.5 109c48.667 0 94.5 -4.16699 137.5 -12.5s68.167 -13.166 75.5 -14.499v-188h-10c-17.333 4.66699 -45.5 10.834 -84.5 18.501s-75.833 11.5 -110.5 11.5
c-78.667 0 -139 -19.833 -181 -59.5s-63 -90.834 -63 -153.501c0 -35.333 12 -69.666 36 -102.999s48.333 -56.333 73 -69l477 170v-174l-424 -149c-76.667 -26.667 -134 -64.5 -172 -113.5s-57 -103.5 -57 -163.5c0 -88 36.667 -159.167 110 -213.5
s173.666 -81.5 300.999 -81.5c70 0 146.667 13.833 230 41.5s148 58.5 194 92.5h11v-213zM625.001 1237h-148v148h148v-148z" />
    <glyph glyph-name="afii57441" unicode="&#x641;" horiz-adv-x="1782" arabic-form="isolated" 
d="M1696 467c0 -94.667 -22.334 -173.167 -67.001 -235.5s-105.667 -111.166 -183 -146.499c-75.333 -34 -165.5 -58.667 -270.5 -74s-221.833 -23 -350.5 -23c-245.333 0 -428.833 43.333 -550.5 130s-182.5 210.334 -182.5 371.001c0 52.667 2.66699 98.667 8 138
s8.33301 61.666 9 66.999h163v-10c-3.33301 -20.667 -6.5 -49.334 -9.5 -86.001s-4.5 -68.667 -4.5 -96c0 -47.333 9.5 -90.5 28.5 -129.5s51.5 -73.167 97.5 -102.5c48.667 -32 110 -55.667 184 -71s160.333 -23 259 -23c232 0 406.167 22.167 522.5 66.5
s174.5 113.166 174.5 206.499v12c-12 -7.33301 -34 -16 -66 -26s-62 -15 -90 -15c-112 0 -200.667 29.833 -266 89.5s-98 135.5 -98 227.5c0 96 32.667 182.5 98 259.5s138.333 115.5 219 115.5c112.667 0 203.334 -58.167 272.001 -174.5s103 -273.166 103 -470.499z
M1511 647c0 18.667 -3.99902 43.5 -11.999 74.5s-20.333 62.5 -37 94.5c-17.333 33.333 -36.833 59.666 -58.5 78.999s-45.167 29 -70.5 29c-48.667 0 -87 -19.333 -115 -58s-42 -79.667 -42 -123c0 -39.333 17.833 -71.666 53.5 -96.999s84.5 -38 146.5 -38
c25.333 0 50.666 4 75.999 12s45 17 59 27zM1264 1319h-148v148h148v-148z" />
    <glyph glyph-name="afii57442" unicode="&#x642;" horiz-adv-x="1782" arabic-form="isolated" 
d="M1696 518c0 -95.333 -23.333 -186.5 -70 -273.5s-111 -163.5 -193 -229.5c-83.333 -67.333 -175.5 -119.5 -276.5 -156.5s-211.5 -55.5 -331.5 -55.5c-245.333 0 -428.833 43.5 -550.5 130.5s-182.5 210.833 -182.5 371.5c0 67.333 2.5 116.833 7.5 148.5
s8.16699 50.5 9.5 56.5h163v-10c-1.33301 -10.667 -4 -33.334 -8 -68.001s-6 -73 -6 -115c0 -46.667 9.66699 -89.667 29 -129s51.666 -73.666 96.999 -102.999s103 -52.166 173 -68.499s160 -24.5 270 -24.5c109.333 0 207.666 16.333 294.999 49
s160.666 74.667 219.999 126c60 51.333 105.333 106.333 136 165s46 114.667 46 168v12c-11.333 -6.66699 -32.166 -15.167 -62.499 -25.5s-61.5 -15.5 -93.5 -15.5c-59.333 0 -111.666 8.33301 -156.999 25s-84 40.667 -116 72c-30.667 30 -53.5 63.833 -68.5 101.5
s-22.5 77.167 -22.5 118.5c0 97.333 33 184.166 99 260.499s138.667 114.5 218 114.5c110.667 0 200.834 -57 270.501 -171s104.5 -272 104.5 -474zM1511 698c0 18.667 -4 43.5 -12 74.5s-20.333 62.5 -37 94.5c-17.333 33.333 -36.833 59.666 -58.5 78.999
s-45.167 29 -70.5 29c-49.333 0 -87.833 -18.5 -115.5 -55.5s-41.5 -78.5 -41.5 -124.5c0 -39.333 18.167 -71.833 54.5 -97.5s84.833 -38.5 145.5 -38.5c30.667 0 58.667 4.83301 84 14.5s42.333 17.834 51 24.501zM1456 1370h-147v148h147v-148zM1188 1370h-148v148h148
v-148z" />
    <glyph glyph-name="afii57443" unicode="&#x643;" horiz-adv-x="1485" arabic-form="isolated" 
d="M1362 453c0 -148 -34.333 -260.502 -103 -337.502s-160.667 -115.5 -276 -115.5h-514c-49.333 0 -97.333 4 -144 12s-87 23 -121 45c-34.667 22.667 -62 54.334 -82 95.001s-30 93 -30 157c0 26 1.16699 51.167 3.5 75.5s3.83301 39.5 4.5 45.5h168v-10
c-0.666992 -5.33301 -2.5 -17.166 -5.5 -35.499s-4.5 -42.833 -4.5 -73.5c0 -46 19 -78 57 -96s89.333 -27 154 -27h518c39.333 0 73 8.16699 101 24.5s49.667 37.5 65 63.5c14.667 24 25.5 52 32.5 84s10.5 67 10.5 105v1091h166v-1103zM924 734.998
c0 -56.667 -33.668 -101.833 -101.001 -135.5s-154.666 -50.5 -261.999 -50.5v94c77.333 0 141.666 7 192.999 21s77 34.333 77 61c0 12 -6.5 22 -19.5 30s-31.5 15 -55.5 21l-76 19c-35.333 8 -63.666 23 -84.999 45s-32 51.333 -32 88c0 46.667 23.167 84.5 69.5 113.5
s113.5 43.5 201.5 43.5v-90c-62 0 -108 -5.83301 -138 -17.5s-45 -27.5 -45 -47.5c0 -12 6.66699 -22.5 20 -31.5s32 -16.167 56 -21.5l84 -21c30 -6.66699 56.333 -19 79 -37s34 -46 34 -84z" />
    <glyph glyph-name="afii57444" unicode="&#x644;" horiz-adv-x="1325" arabic-form="isolated" 
d="M1202 440c0 -141.333 -52.833 -252.001 -158.5 -332.001s-253.5 -120 -443.5 -120c-184.667 0 -315.5 33.5 -392.5 100.5s-115.5 180.833 -115.5 341.5c0 52 3.33301 105.667 10 161l11 91h172v-10c-2 -9.33301 -7 -42.666 -15 -99.999s-12 -104 -12 -140
c0 -51.333 4.5 -92.333 13.5 -123s24.833 -55.667 47.5 -75c24 -20 58.5 -34.667 103.5 -44s104.833 -14 179.5 -14c76 0 141.5 8 196.5 24s99.833 37 134.5 63c36 27.333 62.167 57 78.5 89s24.5 65.667 24.5 101v1103h166v-1116z" />
    <glyph glyph-name="afii57445" unicode="&#x645;" horiz-adv-x="1210" arabic-form="isolated" 
d="M983 655c38 -38 67.998 -84.167 89.998 -138.5s33 -113.833 33 -178.5c0 -102 -30.833 -186.5 -92.5 -253.5s-139.5 -100.5 -233.5 -100.5c-44.667 0 -85.834 6.66699 -123.501 20s-71.167 30.333 -100.5 51c-28.667 20.667 -52.5 42.5 -71.5 65.5
s-33.833 45.5 -44.5 67.5c-67.333 -181.333 -149.5 -319.333 -246.5 -414s-214.167 -160.667 -351.5 -198v207c106 24.667 190 68.5 252 131.5s112.667 138.5 152 226.5c26 59.333 50.667 127.5 74 204.5s49.333 145.167 78 204.5
c32.667 70.667 73.834 125.334 123.501 164.001s110.834 58 183.501 58c53.333 0 103.333 -9.83301 150 -29.5s89.334 -48.834 128.001 -87.501zM939.998 328c0 24 -3.83301 50.8311 -11.5 80.498s-20.5 58.167 -38.5 85.5c-18 25.333 -40 46.333 -66 63s-58.333 25 -97 25
c-52.667 0 -95.167 -15.667 -127.5 -47s-48.5 -71.666 -48.5 -120.999c0 -67.333 20 -125.166 60 -173.499s92.333 -72.5 157 -72.5c53.333 0 95.333 15.333 126 46s46 68.667 46 114z" />
    <glyph glyph-name="afii57446" unicode="&#x646;" horiz-adv-x="1356" arabic-form="isolated" 
d="M1264 530c0 -96 -15.666 -178.501 -46.999 -247.501s-73.333 -125.167 -126 -168.5c-52 -42.667 -112.667 -74.667 -182 -96s-145.666 -32 -228.999 -32c-79.333 0 -154.833 10.333 -226.5 31s-134.167 53 -187.5 97c-54 44.667 -96.5 101.334 -127.5 170.001
s-46.5 150.667 -46.5 246c0 67.333 4.16699 133.666 12.5 198.999s13.166 102.333 14.499 111h182v-17c-8 -26 -17.167 -69.167 -27.5 -129.5s-15.5 -115.5 -15.5 -165.5c0 -106.667 41.333 -192.334 124 -257.001s180.667 -97 294 -97s212 31.833 296 95.5
s126 149.834 126 258.501c0 50 -5.16699 105.167 -15.5 165.5s-19.5 103.5 -27.5 129.5v17h182c1.33301 -8.66699 6.16602 -45.667 14.499 -111s12.5 -131.666 12.5 -198.999zM754.001 976.999h-148v147h148v-147z" />
    <glyph glyph-name="afii57447" unicode="&#x647;" horiz-adv-x="965" arabic-form="isolated" 
d="M872 403c0 -130 -36.501 -231.667 -109.501 -305s-169.5 -110 -289.5 -110c-107.333 0 -197.666 39.167 -270.999 117.5s-110 176.833 -110 295.5c0 78.667 19.333 146.667 58 204s106 115 202 173l68 41l-135 152h233l238 -269c35.333 -39.333 63.5 -83.5 84.5 -132.5
s31.5 -104.5 31.5 -166.5zM632.999 230c22.667 20 40.666 43.001 53.999 69.001s20 60.667 20 104c0 38 -18.167 84.333 -54.5 139s-74.166 104 -113.499 148l-21 23l-67 -41c-56.667 -34 -103 -72.167 -139 -114.5s-54 -93.833 -54 -154.5c0 -59.333 21.5 -112 64.5 -158
s93.167 -69 150.5 -69c26.667 0 55 4.66699 85 14s55 22.666 75 39.999z" />
    <glyph glyph-name="afii57448" unicode="&#x648;" horiz-adv-x="854" arabic-form="isolated" 
d="M760 186c0 -124 -30.001 -229.331 -90.001 -315.998s-143 -152 -249 -196c-84.667 -36.667 -171.667 -62.167 -261 -76.5s-182.333 -21.5 -279 -21.5v188c88 0 170.833 5.5 248.5 16.5s145.167 27.5 202.5 49.5c77.333 29.333 139.333 69.666 186 120.999s70 119 70 203
c-9.33301 -6 -30.5 -14.333 -63.5 -25s-63.833 -16 -92.5 -16c-114.667 0 -204 30.5 -268 91.5s-96 136.167 -96 225.5c0 101.333 32.833 189.166 98.5 263.499s138.5 111.5 218.5 111.5c110.667 0 200.834 -57.667 270.501 -173s104.5 -264 104.5 -446zM574.999 340.002
c0 18.667 -3.99902 43.5 -11.999 74.5s-20.333 62.5 -37 94.5c-14.667 28 -33.334 52.833 -56.001 74.5s-47 32.5 -73 32.5c-46 0 -83.667 -18.833 -113 -56.5s-44 -78.834 -44 -123.501c0 -39.333 18.167 -71.666 54.5 -96.999s84.833 -38 145.5 -38
c28.667 0 55.667 4.5 81 13.5s43.333 17.5 54 25.5z" />
    <glyph glyph-name="afii57449" unicode="&#x649;" horiz-adv-x="1786" arabic-form="isolated" 
d="M1698 846l-9.99609 -0.00292969c-46.667 28.667 -101.334 53.834 -164.001 75.501s-131.667 32.5 -207 32.5c-62.667 0 -118.667 -13.333 -168 -40s-74 -61 -74 -103c0 -35.333 35.5 -67 106.5 -95l190.5 -73c34 -12.667 70.167 -28.167 108.5 -46.5
s70.166 -37.166 95.499 -56.499c29.333 -21.333 52.166 -44.333 68.499 -69s24.5 -54.667 24.5 -90c0 -124.667 -80.667 -219.334 -242 -284.001s-401.333 -97 -720 -97c-212.667 0 -368.334 35.5 -467.001 106.5s-148 182.833 -148 335.5c0 52 3.16699 104 9.5 156
s10.166 84 11.499 96h172v-10c-2 -10 -7 -43.167 -15 -99.5s-12 -103.166 -12 -140.499c0 -93.333 34.167 -159.333 102.5 -198s184.5 -58 348.5 -58c267.333 0 466.5 16.833 597.5 50.5s196.5 80.5 196.5 140.5c0 30.667 -35.5 59.334 -106.5 86.001l-190.5 72
c-36 14 -72.167 30 -108.5 48s-68.166 37.667 -95.499 59c-28 22 -50.5 46.833 -67.5 74.5s-25.5 59.167 -25.5 94.5c0 86.667 38.667 162.667 116 228s175.333 98 294 98c81.333 0 153.5 -8 216.5 -24s117.167 -34.667 162.5 -56v-213z" />
    <glyph glyph-name="afii57450" unicode="&#x64a;" horiz-adv-x="1786" arabic-form="isolated" 
d="M1698 846l-9.99609 -0.00292969c-46.667 28.667 -101.334 53.834 -164.001 75.501s-131.667 32.5 -207 32.5c-62.667 0 -118.667 -13.333 -168 -40s-74 -61 -74 -103c0 -35.333 35.5 -67 106.5 -95l190.5 -73c34 -12.667 70.167 -28.167 108.5 -46.5
s70.166 -37.166 95.499 -56.499c29.333 -21.333 52.166 -44.333 68.499 -69s24.5 -54.667 24.5 -90c0 -124.667 -80.667 -219.334 -242 -284.001s-401.333 -97 -720 -97c-212.667 0 -368.334 35.5 -467.001 106.5s-148 182.833 -148 335.5c0 52 3.16699 104 9.5 156
s10.166 84 11.499 96h172v-10c-2 -10 -7 -43.167 -15 -99.5s-12 -103.166 -12 -140.499c0 -93.333 34.167 -159.333 102.5 -198s184.5 -58 348.5 -58c267.333 0 466.5 16.833 597.5 50.5s196.5 80.5 196.5 140.5c0 30.667 -35.5 59.334 -106.5 86.001l-190.5 72
c-36 14 -72.167 30 -108.5 48s-68.166 37.667 -95.499 59c-28 22 -50.5 46.833 -67.5 74.5s-25.5 59.167 -25.5 94.5c0 86.667 38.667 162.667 116 228s175.333 98 294 98c81.333 0 153.5 -8 216.5 -24s117.167 -34.667 162.5 -56v-213zM685.004 -291.003h-148v148h148v-148
zM953.004 -291.003h-148v148h148v-148z" />
    <glyph glyph-name="afii57506" unicode="&#x67e;" horiz-adv-x="1653" arabic-form="isolated" 
d="M827 176c-98.667 0 -185.002 7.66895 -259.002 23.002s-135.333 39 -184 71c-46 29.333 -78.5 63.5 -97.5 102.5s-28.5 82.167 -28.5 129.5c0 20.667 3.66699 50.834 11 90.501l16 85.5v10h-172l-13 -88.5c-5.33301 -37 -8 -73.833 -8 -110.5
c0 -160.667 60.833 -284.334 182.5 -371.001s305.167 -130 550.5 -130c248.667 0 433.5 43.167 554.5 129.5s181.5 210.166 181.5 371.499c0 36.667 -2.66699 73.5 -8 110.5l-13 88.5h-172v-10l16 -85.5c7.33301 -39.667 11 -69.834 11 -90.501
c0 -47.333 -9.66699 -90.333 -29 -129s-51.666 -73 -96.999 -103c-48.667 -32 -109.667 -55.667 -183 -71s-159.666 -23 -258.999 -23zM744.998 -213.998h-148v148h148v-148zM1041 -213.998h-148v148h148v-148zM892.998 -422.998h-148v148h148v-148z" />
    <glyph glyph-name="afii57507" unicode="&#x686;" horiz-adv-x="1247" arabic-form="isolated" 
d="M1120 561l-30 -0.00195312c-136 0 -254.167 -8.16699 -354.5 -24.5s-188.5 -43.166 -264.5 -80.499c-71.333 -34.667 -126.666 -81.167 -165.999 -139.5s-59 -126.833 -59 -205.5c0 -105.333 38.167 -190.166 114.5 -254.499s174.5 -96.5 294.5 -96.5
c90.667 0 172.334 10.5 245.001 31.5s136 48.833 190 83.5h10v-201c-58.667 -30 -120.334 -53.833 -185.001 -71.5s-150.667 -26.5 -258 -26.5c-170 0 -308.667 48.833 -416 146.5s-161 227.834 -161 390.501c0 77.333 18.667 151.5 56 222.5s97 133.833 179 188.5
c67.333 45.333 143.666 80.166 228.999 104.499s169.666 38.833 252.999 43.5c-81.333 38 -160.666 64.167 -237.999 78.5s-170 21.5 -278 21.5h-76v186h88c108 0 230.667 -21.5 368 -64.5s266 -101.833 386 -176.5h73v-156zM635 126.998h-148v148h148v-148zM931 126.998
h-148v148h148v-148zM783 -82.002h-148v148h148v-148z" />
    <glyph glyph-name="afii57508" unicode="&#x698;" horiz-adv-x="741" arabic-form="isolated" 
d="M659 186c0 -110.667 -25.1689 -207.498 -75.502 -290.498s-125.833 -151.5 -226.5 -205.5c-80 -42.667 -162.667 -72.334 -248 -89.001s-158 -25 -218 -25v188c42.667 0 100.334 5.83301 173.001 17.5s137.334 30.834 194.001 57.501
c76.667 35.333 134 79.166 172 131.499s57 113.5 57 183.5c0 57.333 -11.167 115.666 -33.5 174.999s-52.833 117.666 -91.5 174.999v12h193c26 -47.333 49.833 -100.666 71.5 -159.999s32.5 -116 32.5 -170zM344.998 762.002h-148v148h148v-148zM640.998 762.002h-148v148
h148v-148zM492.998 971.002h-148v148h148v-148z" />
    <glyph glyph-name="afii57567" unicode="&#x6a9;" horiz-adv-x="1892" arabic-form="isolated" 
d="M1278 188c81.333 0 138.834 14.8311 172.501 44.498s50.5 66.167 50.5 109.5c0 30 -13.833 64.833 -41.5 104.5s-81.5 92.167 -161.5 157.5l-274 225c-30.667 26 -57.5 52.5 -80.5 79.5s-34.5 56.5 -34.5 88.5c0 40.667 13.5 76.834 40.5 108.501
s87.167 70.167 180.5 115.5l642 309v-197l-560 -268c-21.333 -10 -45.333 -22.5 -72 -37.5s-40 -27.833 -40 -38.5c0 -12 14 -29.833 42 -53.5l81 -67.5l266 -219c64 -52.667 109.667 -103.834 137 -153.501s41 -100.167 41 -151.5c0 -46 -7.66699 -90.667 -23 -134
s-38 -79.666 -68 -108.999c-34 -33.333 -75.833 -58.5 -125.5 -75.5s-106.5 -25.5 -170.5 -25.5h-461c-244 0 -426.167 43.333 -546.5 130s-180.5 210.667 -180.5 372c0 52 3.16699 95.833 9.5 131.5s10.166 57.834 11.499 66.501h172v-10c-4 -14.667 -9.5 -41 -16.5 -79
s-10.5 -70.333 -10.5 -97c0 -47.333 9.5 -90.5 28.5 -129.5s51.167 -73.167 96.5 -102.5c44.667 -30 101.5 -53.167 170.5 -69.5s157.5 -24.5 265.5 -24.5h459z" />
    <glyph glyph-name="afii57509" unicode="&#x6af;" horiz-adv-x="1892" arabic-form="isolated" 
d="M1278 188c81.333 0 138.834 14.8311 172.501 44.498s50.5 66.167 50.5 109.5c0 30 -13.833 64.833 -41.5 104.5s-81.5 92.167 -161.5 157.5l-274 225c-30.667 26 -57.5 52.5 -80.5 79.5s-34.5 56.5 -34.5 88.5c0 40.667 13.5 76.834 40.5 108.501
s87.167 70.167 180.5 115.5l642 309v-197l-560 -268c-21.333 -10 -45.333 -22.5 -72 -37.5s-40 -27.833 -40 -38.5c0 -12 14 -29.833 42 -53.5l81 -67.5l266 -219c64 -52.667 109.667 -103.834 137 -153.501s41 -100.167 41 -151.5c0 -46 -7.66699 -90.667 -23 -134
s-38 -79.666 -68 -108.999c-34 -33.333 -75.833 -58.5 -125.5 -75.5s-106.5 -25.5 -170.5 -25.5h-461c-244 0 -426.167 43.333 -546.5 130s-180.5 210.667 -180.5 372c0 52 3.16699 95.833 9.5 131.5s10.166 57.834 11.499 66.501h172v-10c-4 -14.667 -9.5 -41 -16.5 -79
s-10.5 -70.333 -10.5 -97c0 -47.333 9.5 -90.5 28.5 -129.5s51.167 -73.167 96.5 -102.5c44.667 -30 101.5 -53.167 170.5 -69.5s157.5 -24.5 265.5 -24.5h459zM1733 1630l-811 -405v100l811 406v-101z" />
    <glyph glyph-name="afii57555" unicode="&#x6cc;" horiz-adv-x="1786" arabic-form="isolated" 
d="M1698 846l-9.99609 -0.00292969c-46.667 28.667 -101.334 53.834 -164.001 75.501s-131.667 32.5 -207 32.5c-62.667 0 -118.667 -13.333 -168 -40s-74 -61 -74 -103c0 -35.333 35.5 -67 106.5 -95l190.5 -73c34 -12.667 70.167 -28.167 108.5 -46.5
s70.166 -37.166 95.499 -56.499c29.333 -21.333 52.166 -44.333 68.499 -69s24.5 -54.667 24.5 -90c0 -124.667 -80.667 -219.334 -242 -284.001s-401.333 -97 -720 -97c-212.667 0 -368.334 35.5 -467.001 106.5s-148 182.833 -148 335.5c0 52 3.16699 104 9.5 156
s10.166 84 11.499 96h172v-10c-2 -10 -7 -43.167 -15 -99.5s-12 -103.166 -12 -140.499c0 -93.333 34.167 -159.333 102.5 -198s184.5 -58 348.5 -58c267.333 0 466.5 16.833 597.5 50.5s196.5 80.5 196.5 140.5c0 30.667 -35.5 59.334 -106.5 86.001l-190.5 72
c-36 14 -72.167 30 -108.5 48s-68.166 37.667 -95.499 59c-28 22 -50.5 46.833 -67.5 74.5s-25.5 59.167 -25.5 94.5c0 86.667 38.667 162.667 116 228s175.333 98 294 98c81.333 0 153.5 -8 216.5 -24s117.167 -34.667 162.5 -56v-213z" />
    <glyph glyph-name="afii62958" unicode="&#x67e;" horiz-adv-x="1919" arabic-form="final" 
d="M1941 0l-139.002 0.00195312c-41.333 0 -86.666 11 -135.999 33s-85 52 -107 90c-28 -38.667 -68.333 -68.834 -121 -90.501s-115.667 -32.5 -189 -32.5h-424c-245.333 0 -428.833 43.333 -550.5 130s-182.5 210.667 -182.5 372c0 48.667 2.83301 90.667 8.5 126
s9.83398 59.333 12.501 72h172v-10c-2.66699 -10 -7.83398 -35.167 -15.501 -75.5s-11.5 -73.833 -11.5 -100.5c0 -46 9.83301 -89 29.5 -129s51.834 -74.333 96.501 -103c48.667 -32 110 -55.667 184 -71s160.333 -23 259 -23h261h116c93.333 0 161.833 19.667 205.5 59
s65.5 99 65.5 179c0 18 -1.83301 38 -5.5 60s-6.16699 37.333 -7.5 46v15h170c2 -12 4.16699 -33.833 6.5 -65.5s3.5 -52.834 3.5 -63.501c0 -64 17.333 -118.333 52 -163s85.667 -67 153 -67h94v-188zM874.998 -213.998h-148v148h148v-148zM1171 -213.998h-148v148h148
v-148zM1023 -422.998h-148v148h148v-148z" />
    <glyph glyph-name="afii62956" unicode="&#x67e;" horiz-adv-x="573" arabic-form="initial" 
d="M440 453c0 -142 -33.667 -253 -101 -333s-160 -120 -278 -120h-84v188h89c68 0 119.667 24.333 155 73s53 116.667 53 204v252h166v-264zM125 -214h-148v148h148v-148zM421 -214h-148v148h148v-148zM273 -423h-148v148h148v-148z" />
    <glyph glyph-name="afii52957" unicode="&#x67e;" horiz-adv-x="719" arabic-form="medial" 
d="M741 0l-139 -0.000976562c-41.333 0 -86.833 11 -136.5 33s-85.5 52 -107.5 90c-23.333 -39.333 -58.333 -69.666 -105 -90.999s-92 -32 -136 -32h-140v188h95c60 0 108.667 20.667 146 62s56 100 56 176v121h168v-121c0 -72 18.833 -129.667 56.5 -173
s87.167 -65 148.5 -65h94v-188zM237 -214.001h-148v148h148v-148zM533 -214.001h-148v148h148v-148zM385 -423.001h-148v148h148v-148z" />
    <glyph glyph-name="afii62961" unicode="&#x686;" horiz-adv-x="1434" arabic-form="final" 
d="M1456 0l-120.998 -0.00390625c-108.667 0 -186.334 24.333 -233.001 73s-70 129.334 -70 242.001v246c-121.333 -2 -231 -12.5 -329 -31.5s-180.333 -46.167 -247 -81.5c-68 -36 -120 -82 -156 -138s-54 -122.333 -54 -199c0 -105.333 38.167 -190.166 114.5 -254.499
s174.5 -96.5 294.5 -96.5c90.667 0 172.334 10.5 245.001 31.5s136 48.833 190 83.5h10v-201c-58.667 -30 -120.334 -53.833 -185.001 -71.5s-150.667 -26.5 -258 -26.5c-81.333 0 -157 11.833 -227 35.5s-131 58.5 -183 104.5s-92.833 102.333 -122.5 169
s-44.5 142.667 -44.5 228c0 78.667 18.667 153 56 223s97 132.667 179 188c67.333 45.333 143.666 80.166 228.999 104.499s169.666 38.833 252.999 43.5c-81.333 38 -160.666 64.167 -237.999 78.5s-170 21.5 -278 21.5h-76v186h88c108 0 230.667 -21.5 368 -64.5
s266 -101.833 386 -176.5h170v-156h-56v-155c0 -37.333 1.83301 -67.666 5.5 -90.999s12.167 -45.666 25.5 -66.999c12.667 -19.333 29.5 -34.166 50.5 -44.499s50.5 -15.5 88.5 -15.5h125v-188zM587.002 131.996h-148v148h148v-148zM883.002 131.996h-148v148h148v-148z
M735.002 -77.0039h-148v148h148v-148z" />
    <glyph glyph-name="afii62959" unicode="&#x686;" horiz-adv-x="1350" arabic-form="initial" 
d="M1280 461c-164.667 -98.667 -375.836 -200.167 -633.503 -304.5s-445.167 -156.5 -562.5 -156.5h-107v188h111c92.667 0 222.334 28.5 389.001 85.5s309.334 116.167 428.001 177.5c-58 40 -149.667 79.667 -275 119s-254.666 59 -387.999 59h-117v186h127
c122.667 0 257 -23.333 403 -70s287.333 -112.667 424 -198l201 102v-188zM872.998 -148h-148v148h148v-148zM1169 -148h-148v148h148v-148zM1021 -357h-148v148h148v-148z" />
    <glyph glyph-name="afii62960" unicode="&#x686;" horiz-adv-x="1393" arabic-form="medial" 
d="M791 217c-146.667 -64.667 -283.504 -117.001 -410.504 -157.001s-225.833 -60 -296.5 -60h-107v188h111c92.667 0 222.334 28.5 389.001 85.5s309.334 116.167 428.001 177.5c-58 40 -149.667 79.667 -275 119s-254.666 59 -387.999 59h-117v186h127
c122.667 0 257 -23.333 403 -70s287.333 -112.667 424 -198l201 102v-188c-45.333 -26.667 -96.666 -55.167 -153.999 -85.5s-117.333 -59.833 -180 -88.5c15.333 -29.333 37.666 -53.166 66.999 -71.499s70.666 -27.5 123.999 -27.5h278v-188h-274
c-93.333 0 -170.166 17.5 -230.499 52.5s-100.166 89.833 -119.499 164.5zM542.996 -214.001h-148v148h148v-148zM838.996 -214.001h-148v148h148v-148zM690.996 -423.001h-148v148h148v-148z" />
    <glyph glyph-name="afii62962" unicode="&#x698;" horiz-adv-x="854" arabic-form="final" 
d="M856 0h-78.0029c-20.667 0 -43.667 3.16699 -69 9.5s-48 14.833 -68 25.5c-24.667 -96 -68.167 -173.833 -130.5 -233.5s-131.5 -106.167 -207.5 -139.5c-69.333 -30 -140 -51.833 -212 -65.5s-138.667 -20.5 -200 -20.5v188c42.667 0 100.334 5.83301 173.001 17.5
s137.334 30.834 194.001 57.501c76 35.333 133.167 78.5 171.5 129.5s57.5 112.833 57.5 185.5c0 39.333 -5.33301 78.5 -16 117.5s-22.667 73.167 -36 102.5s-26.666 55.166 -39.999 77.499s-24.333 39.833 -33 52.5v12h193c4 -7.33301 14 -29 30 -65l42 -97
c25.333 -58.667 54 -101 86 -127s68.667 -39 110 -39h33v-188zM319.997 762h-148v148h148v-148zM615.997 762h-148v148h148v-148zM467.997 971h-148v148h148v-148z" />
    <glyph glyph-name="afii62964" unicode="&#x6a9;" horiz-adv-x="1982" arabic-form="final" 
d="M2003 0l-139 -0.00488281c-52.667 0 -104 9.5 -154 28.5s-91.667 45.833 -125 80.5c-34 -37.333 -76.167 -64.833 -126.5 -82.5s-109.166 -26.5 -176.499 -26.5h-463c-244 0 -426.167 43.333 -546.5 130s-180.5 210.667 -180.5 372c0 52 3.16699 95.833 9.5 131.5
s10.166 57.834 11.499 66.501h172v-10c-4 -14.667 -9.5 -41 -16.5 -79s-10.5 -70.333 -10.5 -97c0 -47.333 9.5 -90.5 28.5 -129.5s51.167 -73.167 96.5 -102.5c44.667 -30 101.5 -53.167 170.5 -69.5s157.5 -24.5 265.5 -24.5h461c75.333 0 131.333 13.833 168 41.5
s55 65.167 55 112.5c0 28.667 -18.167 63.834 -54.5 105.501s-92.5 93.834 -168.5 156.501l-274 225c-31.333 26 -58.333 52.5 -81 79.5s-34 56.5 -34 88.5c0 42.667 17.667 81.5 53 116.5s91.333 70.833 168 107.5l641 309v-197l-559 -268
c-21.333 -10 -45.5 -22.5 -72.5 -37.5s-40.5 -27.833 -40.5 -38.5s12.5 -27 37.5 -49l85.5 -72l266 -219c72.667 -59.333 124 -112.166 154 -158.499s45 -95.166 45 -146.499v-8.5v-5.5c0 -43.333 17.833 -77.833 53.5 -103.5s81.5 -38.5 137.5 -38.5h143v-188z
M1892 -0.00488281z" />
    <glyph glyph-name="afii52305" unicode="&#x6a9;" horiz-adv-x="983" arabic-form="initial" 
d="M862 1333l-559 -268c-21.333 -10 -45.5 -22.5 -72.5 -37.5s-40.5 -27.833 -40.5 -38.5s12.5 -27 37.5 -49l85.5 -72l267 -219c64 -52.667 109.667 -103.834 137 -153.501s41 -100.167 41 -151.5c0 -46 -7.66699 -90.667 -23 -134s-38 -79.666 -68 -108.999
c-34 -33.333 -75.833 -58.5 -125.5 -75.5s-106.5 -25.5 -170.5 -25.5h-394v188h392c74 0 129.667 13.5 167 40.5s56 64.833 56 113.5c0 30 -13.833 64.833 -41.5 104.5s-81.5 92.167 -161.5 157.5l-274 225c-31.333 26 -58.333 52.5 -81 79.5s-34 56.5 -34 88.5
c-0 46.667 18.833 87 56.5 121s92.5 68.333 164.5 103l641 309v-197z" />
    <glyph glyph-name="afii52306" unicode="&#x6a9;" horiz-adv-x="1090" arabic-form="medial" 
d="M1112 0l-139.002 -0.00195312c-52.667 0 -104 9.5 -154 28.5s-91.667 45.833 -125 80.5c-34 -37.333 -76.167 -64.833 -126.5 -82.5s-109.166 -26.5 -176.499 -26.5h-414v188h412c74.667 0 130.5 13.5 167.5 40.5s55.5 64.833 55.5 113.5
c0 28.667 -18 63.834 -54 105.501s-92.333 93.834 -169 156.501l-274 225c-31.333 26 -58.333 52.5 -81 79.5s-34 56.5 -34 88.5c0 48.667 20.5 90.5 61.5 125.5s94.167 67.833 159.5 98.5l641 309v-197l-559 -268c-21.333 -10 -45.5 -22.5 -72.5 -37.5
s-40.5 -27.833 -40.5 -38.5s12.5 -27 37.5 -49l85.5 -72l267 -219c74.667 -62 126.334 -115.667 155.001 -161s43 -93.333 43 -144v-14c0 -43.333 17.833 -77.833 53.5 -103.5s81.5 -38.5 137.5 -38.5h143v-188zM982.998 -0.00195312z" />
    <glyph glyph-name="afii62967" unicode="&#x6af;" horiz-adv-x="1982" arabic-form="final" 
d="M2003 0l-139 -0.00488281c-52.667 0 -104 9.5 -154 28.5s-91.667 45.833 -125 80.5c-34 -37.333 -76.167 -64.833 -126.5 -82.5s-109.166 -26.5 -176.499 -26.5h-463c-244 0 -426.167 43.333 -546.5 130s-180.5 210.667 -180.5 372c0 52 3.16699 95.833 9.5 131.5
s10.166 57.834 11.499 66.501h172v-10c-4 -14.667 -9.5 -41 -16.5 -79s-10.5 -70.333 -10.5 -97c0 -47.333 9.5 -90.5 28.5 -129.5s51.167 -73.167 96.5 -102.5c44.667 -30 101.5 -53.167 170.5 -69.5s157.5 -24.5 265.5 -24.5h461c74 0 129.667 13.5 167 40.5
s56 64.833 56 113.5c0 28.667 -18.167 63.834 -54.5 105.501s-92.5 93.834 -168.5 156.501l-274 225c-31.333 26 -58.333 52.5 -81 79.5s-34 56.5 -34 88.5c0 46 18.333 86 55 120s92 68.667 166 104l641 309v-197l-559 -268c-21.333 -10 -45.5 -22.5 -72.5 -37.5
s-40.5 -27.833 -40.5 -38.5s12.5 -27 37.5 -49l85.5 -72l266 -219c72.667 -59.333 124 -112.166 154 -158.499s45 -95.166 45 -146.499v-8.5v-5.5c0 -43.333 17.833 -77.833 53.5 -103.5s81.5 -38.5 137.5 -38.5h143v-188zM1733 1630l-811 -405v100l811 406v-101z
M1892 -0.00488281z" />
    <glyph glyph-name="afii62965" unicode="&#x6af;" horiz-adv-x="983" arabic-form="initial" 
d="M862 1333l-560 -267.999c-21.333 -10 -45.333 -22.5 -72 -37.5s-40 -27.833 -40 -38.5c0 -12 14 -29.833 42 -53.5l81 -67.5l266 -219c64 -52.667 109.667 -103.834 137 -153.501s41 -100.167 41 -151.5c0 -46 -7.66699 -90.667 -23 -134s-38 -79.666 -68 -108.999
c-34 -33.333 -75.833 -58.5 -125.5 -75.5s-106.5 -25.5 -170.5 -25.5h-393v188h391c81.333 0 138.833 14.833 172.5 44.5s50.5 66.167 50.5 109.5c0 30 -14 64.833 -42 104.5s-81.667 92.167 -161 157.5l-274 225c-30.667 25.333 -57.5 51.666 -80.5 78.999
s-34.5 57 -34.5 89c0 40.667 13.5 77 40.5 109s87.167 70.333 180.5 115l642 309v-197zM823 1630l-811 -405v100l811 406v-101z" />
    <glyph glyph-name="afii62966" unicode="&#x6af;" horiz-adv-x="1090" arabic-form="medial" 
d="M1112 0l-139.001 -0.00390625c-52.667 0 -104 9.5 -154 28.5s-91.667 45.833 -125 80.5c-34 -37.333 -76.167 -64.833 -126.5 -82.5s-109.166 -26.5 -176.499 -26.5h-415v188h413c74 0 129.667 13.5 167 40.5s56 64.833 56 113.5c0 28.667 -18.167 63.834 -54.5 105.501
s-92.5 93.834 -168.5 156.501l-274 225c-31.333 26 -58.333 52.5 -81 79.5s-34 56.5 -34 88.5c-0 46 18.333 86 55 120s92 68.667 166 104l641 309v-197l-559 -268c-21.333 -10 -45.5 -22.5 -72.5 -37.5s-40.5 -27.833 -40.5 -38.5s12.5 -27 37.5 -49l85.5 -72l266 -219
c72.667 -59.333 124 -112.166 154 -158.499s45 -95.166 45 -146.499v-8.5v-5.5c0 -43.333 17.833 -77.833 53.5 -103.5s81.5 -38.5 137.5 -38.5h143v-188zM841.999 1630l-811 -405v100l811 406v-101zM982.999 -0.00390625z" />
    <glyph glyph-name="Ufba4" unicode="&#x6c0;" horiz-adv-x="965" arabic-form="isolated" 
d="M872 403c0 -130 -36.501 -231.667 -109.501 -305s-169.5 -110 -289.5 -110c-107.333 0 -197.666 39.167 -270.999 117.5s-110 176.833 -110 295.5c0 78.667 19.333 146.667 58 204s106 115 202 173l68 41l-135 152h233l238 -269c35.333 -39.333 63.5 -83.5 84.5 -132.5
s31.5 -104.5 31.5 -166.5zM632.999 230c22.667 20 40.666 43.001 53.999 69.001s20 60.667 20 104c0 38 -18.167 84.333 -54.5 139s-74.166 104 -113.499 148l-21 23l-67 -41c-56.667 -34 -103 -72.167 -139 -114.5s-54 -93.833 -54 -154.5c0 -59.333 21.5 -112 64.5 -158
s93.167 -69 150.5 -69c26.667 0 55 4.66699 85 14s55 22.666 75 39.999zM423.998 1117h-336v94h74c-16 8.66699 -29.167 22.667 -39.5 42s-15.5 39.333 -15.5 60c0 42.667 15.667 80 47 112s73.666 48 126.999 48c35.333 0 61.5 -2 78.5 -6s28.833 -7.33301 35.5 -10v-101
h-6c-9.33301 4 -25.166 8.83301 -47.499 14.5s-41.833 8.5 -58.5 8.5c-29.333 0 -51.333 -6 -66 -18s-22 -28 -22 -48c0 -30 15.333 -54.5 46 -73.5s67 -28.5 109 -28.5h74v-94z" />
    <glyph glyph-name="Ufba5" unicode="&#x6c0;" horiz-adv-x="1176" arabic-form="final" 
d="M1198 0l-85.999 0.000976562c-60 0 -113.5 11.333 -160.5 34s-86.833 52 -119.5 88c-33.333 36.667 -58.5 77.834 -75.5 123.501s-25.5 90.834 -25.5 135.501c-34.667 -32.667 -79.834 -60.334 -135.501 -83.001s-116.834 -34 -183.501 -34
c-97.333 0 -176.666 30 -237.999 90s-92 138 -92 234c0 67.333 15.667 125.666 47 174.999s75.333 90.666 132 123.999c55.333 32.667 124 58 206 76s170 29.333 264 34l168 9v-541c0 -36.667 3 -70.667 9 -102s17.333 -60.333 34 -87
c16.667 -27.333 37.5 -48.833 62.5 -64.5s59.5 -23.5 103.5 -23.5h90v-188zM731.001 553.001v295.003c-68.667 -3.33301 -130 -10 -184 -20s-101 -24 -141 -42c-40.667 -18.667 -72.5 -44.334 -95.5 -77.001s-34.5 -72.334 -34.5 -119.001c0 -42.667 14.167 -79 42.5 -109
s67.5 -45 117.5 -45c51.333 0 105.5 12.667 162.5 38s101.167 51.666 132.5 78.999zM474.001 1167h-336v94h74c-16 8.66699 -29.167 22.667 -39.5 42s-15.5 39.333 -15.5 60c0 42.667 15.667 80 47 112s73.666 48 126.999 48c35.333 0 61.5 -2 78.5 -6
s28.833 -7.33301 35.5 -10v-101h-6c-9.33301 4 -25.166 8.83301 -47.499 14.5s-41.833 8.5 -58.5 8.5c-29.333 0 -51.333 -6 -66 -18s-22 -28 -22 -48c0 -30 15.333 -54.5 46 -73.5s67 -28.5 109 -28.5h74v-94z" />
    <glyph glyph-name="afii52364" unicode="&#x6cc;" horiz-adv-x="2042" arabic-form="final" 
d="M2064 0l-29.9961 -0.00292969c-48.667 0 -91.667 7.66699 -129 23s-71.666 36.333 -102.999 63c-32 27.333 -60.333 57.666 -85 90.999s-47.334 66.333 -68.001 99l-63 100.5c-24 38.333 -45.667 68.5 -65 90.5c-22.667 26 -47.167 46.833 -73.5 62.5
s-55.5 23.5 -87.5 23.5c-51.333 0 -90.166 -10.333 -116.499 -31s-39.5 -41.667 -39.5 -63c0 -20 18.167 -45.167 54.5 -75.5l93.5 -77.5c47.333 -39.333 83.666 -76.166 108.999 -110.499s38 -68.166 38 -101.499c0 -136.667 -64.5 -241.167 -193.5 -313.5
s-328.5 -108.5 -598.5 -108.5c-210.667 0 -365.834 35.833 -465.501 107.5s-149.5 184.834 -149.5 339.501c0 52.667 3.16699 104.334 9.5 155.001s10.166 81.667 11.499 93h172v-11c-2 -10.667 -7 -43 -15 -97s-12 -100 -12 -138c0 -92.667 33.667 -159.167 101 -199.5
s184 -60.5 350 -60.5c207.333 0 363.166 18 467.499 54s156.5 93 156.5 171c0 27.333 -16.667 54.833 -50 82.5l-97 77.5c-55.333 41.333 -93.833 78.833 -115.5 112.5s-32.5 67.834 -32.5 102.501c0 68 30.667 131.667 92 191s138 89 230 89c44 0 83.5 -8 118.5 -24
s66.5 -36.667 94.5 -62c26 -23.333 52.333 -53.333 79 -90s49.667 -70.334 69 -101.001l66 -100c26 -38.667 49 -68.667 69 -90c26 -27.333 52.167 -48.5 78.5 -63.5s58.166 -22.5 95.499 -22.5h34v-188z" />
    <glyph glyph-name="afii52399" unicode="&#x621;" horiz-adv-x="782" arabic-form="isolated" 
d="M696 174l-544.002 -168v187l155 47c-53.333 10 -100.166 37.833 -140.499 83.5s-60.5 96.834 -60.5 153.501c0 92.667 29.833 165 89.5 217s131.834 78 216.501 78c56 0 101.167 -2.33301 135.5 -7s58.833 -8.33398 73.5 -11.001v-187h-13
c-16 4.66699 -44.333 9.66699 -85 15s-75 8 -103 8c-42.667 0 -78 -10.333 -106 -31s-42 -48 -42 -82c0 -42 22 -78.833 66 -110.5s104.667 -52.167 182 -61.5l176 55v-186z" />
    <glyph glyph-name="afii62753" unicode="&#x622;" horiz-adv-x="606" arabic-form="final" 
d="M629 0l-86 -0.000976562c-123.333 0 -217.333 41.833 -282 125.5s-97 192.834 -97 327.501v1103h166v-1091c0 -36.667 3 -70.667 9 -102s17.333 -60.333 34 -87c16.667 -27.333 37.5 -48.833 62.5 -64.5s59.5 -23.5 103.5 -23.5h90v-188zM520 1731
c-12.667 -10 -31.8291 -21.498 -57.4961 -34.498s-55.5 -19.5 -89.5 -19.5c-26 0 -64.5 10.333 -115.5 31s-89.167 31 -114.5 31c-22 0 -48.333 -8.33301 -79 -25s-53.334 -29.667 -68.001 -39v101c11.333 9.33301 32.166 21.166 62.499 35.499s58.5 21.5 84.5 21.5
c23.333 0 61.166 -10.167 113.499 -30.5s91.166 -30.5 116.499 -30.5c28.667 0 58.167 7.66699 88.5 23s49.833 26.666 58.5 33.999v-98z" />
    <glyph glyph-name="afii62754" unicode="&#x623;" horiz-adv-x="606" arabic-form="final" 
d="M629 0l-86 -0.000976562c-123.333 0 -217.333 41.833 -282 125.5s-97 192.834 -97 327.501v1103h166v-1091c0 -36.667 3 -70.667 9 -102s17.333 -60.333 34 -87c16.667 -27.333 37.5 -48.833 62.5 -64.5s59.5 -23.5 103.5 -23.5h90v-188zM455 1678h-336v94h74
c-16 8.66699 -29.167 22.667 -39.5 42s-15.5 39.333 -15.5 60c0 42.667 15.667 80 47 112s73.666 48 126.999 48c35.333 0 61.5 -2 78.5 -6s28.833 -7.33301 35.5 -10v-101h-6c-9.33301 4 -25.166 8.83301 -47.499 14.5s-41.833 8.5 -58.5 8.5c-29.333 0 -51.333 -6 -66 -18
s-22 -28 -22 -48c0 -30 15.333 -54.5 46 -73.5s67 -28.5 109 -28.5h74v-94z" />
    <glyph glyph-name="afii62755" unicode="&#x624;" horiz-adv-x="909" arabic-form="final" 
d="M932 0l-199.005 -0.000976562c-29.333 -91.333 -77.166 -165.666 -143.499 -222.999s-146.166 -101.666 -239.499 -132.999c-84.667 -28.667 -168.667 -47.167 -252 -55.5s-155.666 -12.5 -216.999 -12.5v188c50 0 110.667 2.66699 182 8s136.333 15.666 195 30.999
c78 21.333 140.667 48.333 188 81s83 72.667 107 120c-98 8 -178.167 27 -240.5 57s-112.166 66.667 -149.499 110c-36 41.333 -60.833 85.333 -74.5 132s-20.5 89 -20.5 127c0 100 32.5 187.5 97.5 262.5s138.167 112.5 219.5 112.5
c110.667 0 200.834 -57.667 270.501 -173s104.5 -263.333 104.5 -444h172v-188zM298.995 293.999c24 -24.667 59.165 -46.998 105.498 -66.998s107.5 -32.333 183.5 -37c-3.33301 133.333 -22.666 237.666 -57.999 312.999s-79.666 113 -132.999 113
c-46 0 -83.667 -18.833 -113 -56.5s-44 -78.834 -44 -123.501c0 -19.333 3.33301 -41.333 10 -66s23 -50 49 -76zM564.993 971.001h-336v94h74c-16 8.66699 -29.167 22.667 -39.5 42s-15.5 39.333 -15.5 60c0 42.667 15.667 80 47 112s73.666 48 126.999 48
c35.333 0 61.5 -2 78.5 -6s28.833 -7.33301 35.5 -10v-101h-6c-9.33301 4 -25.166 8.83301 -47.499 14.5s-41.833 8.5 -58.5 8.5c-29.333 0 -51.333 -6 -66 -18s-22 -28 -22 -48c0 -30 15.333 -54.5 46 -73.5s67 -28.5 109 -28.5h74v-94z" />
    <glyph glyph-name="afii62756" unicode="&#x625;" horiz-adv-x="606" arabic-form="final" 
d="M629 0l-86 -0.000976562c-123.333 0 -217.333 41.833 -282 125.5s-97 192.834 -97 327.501v1103h166v-1091c0 -36.667 3 -70.667 9 -102s17.333 -60.333 34 -87c16.667 -27.333 37.5 -48.833 62.5 -64.5s59.5 -23.5 103.5 -23.5h90v-188zM514 -423.001h-336v94h74
c-16 8.66699 -29.167 22.667 -39.5 42s-15.5 39.333 -15.5 60c0 42.667 15.667 80 47 112s73.666 48 126.999 48c35.333 0 61.5 -2 78.5 -6s28.833 -7.33301 35.5 -10v-101h-6c-9.33301 4 -25.166 8.83301 -47.499 14.5s-41.833 8.5 -58.5 8.5c-29.333 0 -51.333 -6 -66 -18
s-22 -28 -22 -48c0 -30 15.333 -54.5 46 -73.5s67 -28.5 109 -28.5h74v-94z" />
    <glyph glyph-name="afii62759" unicode="&#x626;" horiz-adv-x="2042" arabic-form="final" 
d="M2064 0l-29.9961 -0.00292969c-48.667 0 -91.667 7.66699 -129 23s-71.666 36.333 -102.999 63c-32 27.333 -60.333 57.666 -85 90.999s-47.334 66.333 -68.001 99l-63 100.5c-24 38.333 -45.667 68.5 -65 90.5c-22.667 26 -47.167 46.833 -73.5 62.5
s-55.5 23.5 -87.5 23.5c-51.333 0 -90.166 -10.333 -116.499 -31s-39.5 -41.667 -39.5 -63c0 -20 18.167 -45.167 54.5 -75.5l93.5 -77.5c47.333 -39.333 83.666 -76.166 108.999 -110.499s38 -68.166 38 -101.499c0 -136.667 -64.5 -241.167 -193.5 -313.5
s-328.5 -108.5 -598.5 -108.5c-210.667 0 -365.834 35.833 -465.501 107.5s-149.5 184.834 -149.5 339.501c0 52.667 3.16699 104.334 9.5 155.001s10.166 81.667 11.499 93h172v-11c-2 -10.667 -7 -43 -15 -97s-12 -100 -12 -138c0 -92.667 33.667 -159.167 101 -199.5
s184 -60.5 350 -60.5c207.333 0 363.166 18 467.499 54s156.5 93 156.5 171c0 27.333 -16.667 54.833 -50 82.5l-97 77.5c-55.333 41.333 -93.833 78.833 -115.5 112.5s-32.5 67.834 -32.5 102.501c0 68 30.667 131.667 92 191s138 89 230 89c44 0 83.5 -8 118.5 -24
s66.5 -36.667 94.5 -62c26 -23.333 52.333 -53.333 79 -90s49.667 -70.334 69 -101.001l66 -100c26 -38.667 49 -68.667 69 -90c26 -27.333 52.167 -48.5 78.5 -63.5s58.166 -22.5 95.499 -22.5h34v-188zM780.004 716.997h-336v94h74c-16 8.66699 -29.167 22.667 -39.5 42
s-15.5 39.333 -15.5 60c0 42.667 15.667 80 47 112s73.666 48 126.999 48c35.333 0 61.5 -2 78.5 -6s28.833 -7.33301 35.5 -10v-101h-6c-9.33301 4 -25.166 8.83301 -47.499 14.5s-41.833 8.5 -58.5 8.5c-29.333 0 -51.333 -6 -66 -18s-22 -28 -22 -48
c0 -30 15.333 -54.5 46 -73.5s67 -28.5 109 -28.5h74v-94z" />
    <glyph glyph-name="afii62757" unicode="&#x626;" horiz-adv-x="573" arabic-form="initial" 
d="M440 453c0 -142 -33.667 -253 -101 -333s-160 -120 -278 -120h-84v188h89c68 0 119.667 24.333 155 73s53 116.667 53 204v252h166v-264zM492 969h-336v94h74c-16 8.66699 -29.167 22.667 -39.5 42s-15.5 39.333 -15.5 60c0 42.667 15.667 80 47 112
s73.666 48 126.999 48c35.333 0 61.5 -2 78.5 -6s28.833 -7.33301 35.5 -10v-101h-6c-9.33301 4 -25.166 8.83301 -47.499 14.5s-41.833 8.5 -58.5 8.5c-29.333 0 -51.333 -6 -66 -18s-22 -28 -22 -48c0 -30 15.333 -54.5 46 -73.5s67 -28.5 109 -28.5h74v-94z" />
    <glyph glyph-name="afii62758" unicode="&#x626;" horiz-adv-x="719" arabic-form="medial" 
d="M741 0l-139 -0.000976562c-41.333 0 -86.833 11 -136.5 33s-85.5 52 -107.5 90c-23.333 -39.333 -58.333 -69.666 -105 -90.999s-92 -32 -136 -32h-140v188h95c60 0 108.667 20.667 146 62s56 100 56 176v121h168v-121c0 -72 18.833 -129.667 56.5 -173
s87.167 -65 148.5 -65h94v-188zM518 716.999h-336v94h74c-16 8.66699 -29.167 22.667 -39.5 42s-15.5 39.333 -15.5 60c0 42.667 15.667 80 47 112s73.666 48 126.999 48c35.333 0 61.5 -2 78.5 -6s28.833 -7.33301 35.5 -10v-101h-6
c-9.33301 4 -25.166 8.83301 -47.499 14.5s-41.833 8.5 -58.5 8.5c-29.333 0 -51.333 -6 -66 -18s-22 -28 -22 -48c0 -30 15.333 -54.5 46 -73.5s67 -28.5 109 -28.5h74v-94z" />
    <glyph glyph-name="afii62760" unicode="&#x627;" horiz-adv-x="606" arabic-form="final" 
d="M629 0l-86 -0.000976562c-123.333 0 -217.333 41.833 -282 125.5s-97 192.834 -97 327.501v1103h166v-1091c0 -36.667 3 -70.667 9 -102s17.333 -60.333 34 -87c16.667 -27.333 37.5 -48.833 62.5 -64.5s59.5 -23.5 103.5 -23.5h90v-188zM494 -0.000976562z" />
    <glyph glyph-name="afii62763" unicode="&#x628;" horiz-adv-x="1919" arabic-form="final" 
d="M1941 0l-139.002 0.00195312c-41.333 0 -86.666 11 -135.999 33s-85 52 -107 90c-28 -38.667 -68.333 -68.834 -121 -90.501s-115.667 -32.5 -189 -32.5h-424c-245.333 0 -428.833 43.333 -550.5 130s-182.5 210.667 -182.5 372c0 48.667 2.83301 90.667 8.5 126
s9.83398 59.333 12.501 72h172v-10c-2.66699 -10 -7.83398 -35.167 -15.501 -75.5s-11.5 -73.833 -11.5 -100.5c0 -46 9.83301 -89 29.5 -129s51.834 -74.333 96.501 -103c48.667 -32 110 -55.667 184 -71s160.333 -23 259 -23h261h116c93.333 0 161.833 19.667 205.5 59
s65.5 99 65.5 179c0 18 -1.83301 38 -5.5 60s-6.16699 37.333 -7.5 46v15h170c2 -12 4.16699 -33.833 6.5 -65.5s3.5 -52.834 3.5 -63.501c0 -64 17.333 -118.333 52 -163s85.667 -67 153 -67h94v-188zM1027 -318.998h-148v148h148v-148z" />
    <glyph glyph-name="afii62761" unicode="&#x628;" horiz-adv-x="573" arabic-form="initial" 
d="M440 453c0 -142 -33.667 -253 -101 -333s-160 -120 -278 -120h-84v188h89c68 0 119.667 24.333 155 73s53 116.667 53 204v252h166v-264zM302 -319h-148v148h148v-148z" />
    <glyph glyph-name="afii62762" unicode="&#x628;" horiz-adv-x="719" arabic-form="medial" 
d="M741 0l-139 -0.000976562c-41.333 0 -86.833 11 -136.5 33s-85.5 52 -107.5 90c-23.333 -39.333 -58.333 -69.666 -105 -90.999s-92 -32 -136 -32h-140v188h95c60 0 108.667 20.667 146 62s56 100 56 176v121h168v-121c0 -72 18.833 -129.667 56.5 -173
s87.167 -65 148.5 -65h94v-188zM396 -319.001h-148v148h148v-148z" />
    <glyph glyph-name="afii62764" unicode="&#x629;" horiz-adv-x="1176" arabic-form="final" 
d="M1198 0l-85.999 0.000976562c-60 0 -113.5 11.333 -160.5 34s-86.833 52 -119.5 88c-33.333 36.667 -58.5 77.834 -75.5 123.501s-25.5 90.834 -25.5 135.501c-34.667 -32.667 -79.834 -60.334 -135.501 -83.001s-116.834 -34 -183.501 -34
c-97.333 0 -176.666 30 -237.999 90s-92 138 -92 234c0 67.333 15.667 125.666 47 174.999s75.333 90.666 132 123.999c55.333 32.667 124 58 206 76s170 29.333 264 34l168 9v-541c0 -36.667 3 -70.667 9 -102s17.333 -60.333 34 -87
c16.667 -27.333 37.5 -48.833 62.5 -64.5s59.5 -23.5 103.5 -23.5h90v-188zM731.001 553.001v295.003c-68.667 -3.33301 -130 -10 -184 -20s-101 -24 -141 -42c-40.667 -18.667 -72.5 -44.334 -95.5 -77.001s-34.5 -72.334 -34.5 -119.001c0 -42.667 14.167 -79 42.5 -109
s67.5 -45 117.5 -45c51.333 0 105.5 12.667 162.5 38s101.167 51.666 132.5 78.999zM437.001 1184h-148v148h148v-148zM705.001 1184h-148v148h148v-148z" />
    <glyph glyph-name="afii62767" unicode="&#x62a;" horiz-adv-x="1919" arabic-form="final" 
d="M1941 0l-139.002 0.00195312c-41.333 0 -86.666 11 -135.999 33s-85 52 -107 90c-28 -38.667 -68.333 -68.834 -121 -90.501s-115.667 -32.5 -189 -32.5h-424c-245.333 0 -428.833 43.333 -550.5 130s-182.5 210.667 -182.5 372c0 48.667 2.83301 90.667 8.5 126
s9.83398 59.333 12.501 72h172v-10c-2.66699 -10 -7.83398 -35.167 -15.501 -75.5s-11.5 -73.833 -11.5 -100.5c0 -46 9.83301 -89 29.5 -129s51.834 -74.333 96.501 -103c48.667 -32 110 -55.667 184 -71s160.333 -23 259 -23h261h116c93.333 0 161.833 19.667 205.5 59
s65.5 99 65.5 179c0 18 -1.83301 38 -5.5 60s-6.16699 37.333 -7.5 46v15h170c2 -12 4.16699 -33.833 6.5 -65.5s3.5 -52.834 3.5 -63.501c0 -64 17.333 -118.333 52 -163s85.667 -67 153 -67h94v-188zM837.998 815.002h-148v148h148v-148zM1106 815.002h-148v148h148v-148z
" />
    <glyph glyph-name="afii62765" unicode="&#x62a;" horiz-adv-x="573" arabic-form="initial" 
d="M440 453c0 -142 -33.667 -253 -101 -333s-160 -120 -278 -120h-84v188h89c68 0 119.667 24.333 155 73s53 116.667 53 204v252h166v-264zM152 970h-148v148h148v-148zM420 970h-148v148h148v-148z" />
    <glyph glyph-name="afii62766" unicode="&#x62a;" horiz-adv-x="719" arabic-form="medial" 
d="M741 0l-139 -0.000976562c-41.333 0 -86.833 11 -136.5 33s-85.5 52 -107.5 90c-23.333 -39.333 -58.333 -69.666 -105 -90.999s-92 -32 -136 -32h-140v188h95c60 0 108.667 20.667 146 62s56 100 56 176v121h168v-121c0 -72 18.833 -129.667 56.5 -173
s87.167 -65 148.5 -65h94v-188zM259 814.999h-148v148h148v-148zM527 814.999h-148v148h148v-148z" />
    <glyph glyph-name="afii62770" unicode="&#x62b;" horiz-adv-x="1919" arabic-form="final" 
d="M1941 0l-139.002 0.00195312c-41.333 0 -86.666 11 -135.999 33s-85 52 -107 90c-28 -38.667 -68.333 -68.834 -121 -90.501s-115.667 -32.5 -189 -32.5h-424c-245.333 0 -428.833 43.333 -550.5 130s-182.5 210.667 -182.5 372c0 48.667 2.83301 90.667 8.5 126
s9.83398 59.333 12.501 72h172v-10c-2.66699 -10 -7.83398 -35.167 -15.501 -75.5s-11.5 -73.833 -11.5 -100.5c0 -46 9.83301 -89 29.5 -129s51.834 -74.333 96.501 -103c48.667 -32 110 -55.667 184 -71s160.333 -23 259 -23h261h116c93.333 0 161.833 19.667 205.5 59
s65.5 99 65.5 179c0 18 -1.83301 38 -5.5 60s-6.16699 37.333 -7.5 46v15h170c2 -12 4.16699 -33.833 6.5 -65.5s3.5 -52.834 3.5 -63.501c0 -64 17.333 -118.333 52 -163s85.667 -67 153 -67h94v-188zM839.998 815.002h-148v148h148v-148zM1136 815.002h-148v148h148v-148z
M987.998 1024h-148v148h148v-148z" />
    <glyph glyph-name="afii62768" unicode="&#x62b;" horiz-adv-x="573" arabic-form="initial" 
d="M440 453c0 -142 -33.667 -253 -101 -333s-160 -120 -278 -120h-84v188h89c68 0 119.667 24.333 155 73s53 116.667 53 204v252h166v-264zM152 970h-148v148h148v-148zM448 970h-148v148h148v-148zM300 1179h-148v148h148v-148z" />
    <glyph glyph-name="afii62769" unicode="&#x62b;" horiz-adv-x="719" arabic-form="medial" 
d="M741 0l-139 -0.000976562c-41.333 0 -86.833 11 -136.5 33s-85.5 52 -107.5 90c-23.333 -39.333 -58.333 -69.666 -105 -90.999s-92 -32 -136 -32h-140v188h95c60 0 108.667 20.667 146 62s56 100 56 176v121h168v-121c0 -72 18.833 -129.667 56.5 -173
s87.167 -65 148.5 -65h94v-188zM237 769.999h-148v148h148v-148zM533 769.999h-148v148h148v-148zM385 978.999h-148v148h148v-148z" />
    <glyph glyph-name="afii62773" unicode="&#x62c;" horiz-adv-x="1434" arabic-form="final" 
d="M1456 0l-120.998 -0.00390625c-108.667 0 -186.334 24.333 -233.001 73s-70 129.334 -70 242.001v246c-121.333 -2 -231 -12.5 -329 -31.5s-180.333 -46.167 -247 -81.5c-68 -36 -120 -82 -156 -138s-54 -122.333 -54 -199c0 -105.333 38.167 -190.166 114.5 -254.499
s174.5 -96.5 294.5 -96.5c90.667 0 172.334 10.5 245.001 31.5s136 48.833 190 83.5h10v-201c-58.667 -30 -120.334 -53.833 -185.001 -71.5s-150.667 -26.5 -258 -26.5c-81.333 0 -157 11.833 -227 35.5s-131 58.5 -183 104.5s-92.833 102.333 -122.5 169
s-44.5 142.667 -44.5 228c0 78.667 18.667 153 56 223s97 132.667 179 188c67.333 45.333 143.666 80.166 228.999 104.499s169.666 38.833 252.999 43.5c-81.333 38 -160.666 64.167 -237.999 78.5s-170 21.5 -278 21.5h-76v186h88c108 0 230.667 -21.5 368 -64.5
s266 -101.833 386 -176.5h170v-156h-56v-155c0 -37.333 1.83301 -67.666 5.5 -90.999s12.167 -45.666 25.5 -66.999c12.667 -19.333 29.5 -34.166 50.5 -44.499s50.5 -15.5 88.5 -15.5h125v-188zM674.002 11.9961h-148v148h148v-148z" />
    <glyph glyph-name="afii62771" unicode="&#x62c;" horiz-adv-x="1350" arabic-form="initial" 
d="M1280 461c-164.667 -98.667 -375.836 -200.167 -633.503 -304.5s-445.167 -156.5 -562.5 -156.5h-107v188h111c92.667 0 222.334 28.5 389.001 85.5s309.334 116.167 428.001 177.5c-58 40 -149.667 79.667 -275 119s-254.666 59 -387.999 59h-117v186h127
c122.667 0 257 -23.333 403 -70s287.333 -112.667 424 -198l201 102v-188zM1016 -207h-148v148h148v-148z" />
    <glyph glyph-name="afii62772" unicode="&#x62c;" horiz-adv-x="1393" arabic-form="medial" 
d="M791 217c-146.667 -64.667 -283.504 -117.001 -410.504 -157.001s-225.833 -60 -296.5 -60h-107v188h111c92.667 0 222.334 28.5 389.001 85.5s309.334 116.167 428.001 177.5c-58 40 -149.667 79.667 -275 119s-254.666 59 -387.999 59h-117v186h127
c122.667 0 257 -23.333 403 -70s287.333 -112.667 424 -198l201 102v-188c-45.333 -26.667 -96.666 -55.167 -153.999 -85.5s-117.333 -59.833 -180 -88.5c15.333 -29.333 37.666 -53.166 66.999 -71.499s70.666 -27.5 123.999 -27.5h278v-188h-274
c-93.333 0 -170.166 17.5 -230.499 52.5s-100.166 89.833 -119.499 164.5zM737.996 -293.001h-148v148h148v-148z" />
    <glyph glyph-name="afii62776" unicode="&#x62d;" horiz-adv-x="1434" arabic-form="final" 
d="M1456 0l-120.998 -0.00390625c-108.667 0 -186.334 24.333 -233.001 73s-70 129.334 -70 242.001v246c-121.333 -2 -231 -12.5 -329 -31.5s-180.333 -46.167 -247 -81.5c-68 -36 -120 -82 -156 -138s-54 -122.333 -54 -199c0 -105.333 38.167 -190.166 114.5 -254.499
s174.5 -96.5 294.5 -96.5c90.667 0 172.334 10.5 245.001 31.5s136 48.833 190 83.5h10v-201c-58.667 -30 -120.334 -53.833 -185.001 -71.5s-150.667 -26.5 -258 -26.5c-81.333 0 -157 11.833 -227 35.5s-131 58.5 -183 104.5s-92.833 102.333 -122.5 169
s-44.5 142.667 -44.5 228c0 78.667 18.667 153 56 223s97 132.667 179 188c67.333 45.333 143.666 80.166 228.999 104.499s169.666 38.833 252.999 43.5c-81.333 38 -160.666 64.167 -237.999 78.5s-170 21.5 -278 21.5h-76v186h88c108 0 230.667 -21.5 368 -64.5
s266 -101.833 386 -176.5h170v-156h-56v-155c0 -37.333 1.83301 -67.666 5.5 -90.999s12.167 -45.666 25.5 -66.999c12.667 -19.333 29.5 -34.166 50.5 -44.499s50.5 -15.5 88.5 -15.5h125v-188zM1247 -0.00390625z" />
    <glyph glyph-name="afii62774" unicode="&#x62d;" horiz-adv-x="1350" arabic-form="initial" 
d="M1280 461c-164.667 -98.667 -375.836 -200.167 -633.503 -304.5s-445.167 -156.5 -562.5 -156.5h-107v188h111c92.667 0 222.334 28.5 389.001 85.5s309.334 116.167 428.001 177.5c-58 40 -149.667 79.667 -275 119s-254.666 59 -387.999 59h-117v186h127
c122.667 0 257 -23.333 403 -70s287.333 -112.667 424 -198l201 102v-188z" />
    <glyph glyph-name="afii62775" unicode="&#x62d;" horiz-adv-x="1393" arabic-form="medial" 
d="M791 217c-146.667 -64.667 -283.504 -117.001 -410.504 -157.001s-225.833 -60 -296.5 -60h-107v188h111c92.667 0 222.334 28.5 389.001 85.5s309.334 116.167 428.001 177.5c-58 40 -149.667 79.667 -275 119s-254.666 59 -387.999 59h-117v186h127
c122.667 0 257 -23.333 403 -70s287.333 -112.667 424 -198l201 102v-188c-45.333 -26.667 -96.666 -55.167 -153.999 -85.5s-117.333 -59.833 -180 -88.5c15.333 -29.333 37.666 -53.166 66.999 -71.499s70.666 -27.5 123.999 -27.5h278v-188h-274
c-93.333 0 -170.166 17.5 -230.499 52.5s-100.166 89.833 -119.499 164.5zM1350 -0.000976562z" />
    <glyph glyph-name="afii62779" unicode="&#x62e;" horiz-adv-x="1434" arabic-form="final" 
d="M1456 0l-120.998 -0.00390625c-108.667 0 -186.334 24.333 -233.001 73s-70 129.334 -70 242.001v246c-121.333 -2 -231 -12.5 -329 -31.5s-180.333 -46.167 -247 -81.5c-68 -36 -120 -82 -156 -138s-54 -122.333 -54 -199c0 -105.333 38.167 -190.166 114.5 -254.499
s174.5 -96.5 294.5 -96.5c90.667 0 172.334 10.5 245.001 31.5s136 48.833 190 83.5h10v-201c-58.667 -30 -120.334 -53.833 -185.001 -71.5s-150.667 -26.5 -258 -26.5c-81.333 0 -157 11.833 -227 35.5s-131 58.5 -183 104.5s-92.833 102.333 -122.5 169
s-44.5 142.667 -44.5 228c0 78.667 18.667 153 56 223s97 132.667 179 188c67.333 45.333 143.666 80.166 228.999 104.499s169.666 38.833 252.999 43.5c-81.333 38 -160.666 64.167 -237.999 78.5s-170 21.5 -278 21.5h-76v186h88c108 0 230.667 -21.5 368 -64.5
s266 -101.833 386 -176.5h170v-156h-56v-155c0 -37.333 1.83301 -67.666 5.5 -90.999s12.167 -45.666 25.5 -66.999c12.667 -19.333 29.5 -34.166 50.5 -44.499s50.5 -15.5 88.5 -15.5h125v-188zM816.002 1120h-148v148h148v-148z" />
    <glyph glyph-name="afii62777" unicode="&#x62e;" horiz-adv-x="1350" arabic-form="initial" 
d="M1280 461c-164.667 -98.667 -375.836 -200.167 -633.503 -304.5s-445.167 -156.5 -562.5 -156.5h-107v188h111c92.667 0 222.334 28.5 389.001 85.5s309.334 116.167 428.001 177.5c-58 40 -149.667 79.667 -275 119s-254.666 59 -387.999 59h-117v186h127
c122.667 0 257 -23.333 403 -70s287.333 -112.667 424 -198l201 102v-188zM655.998 989h-148v148h148v-148z" />
    <glyph glyph-name="afii62778" unicode="&#x62e;" horiz-adv-x="1393" arabic-form="medial" 
d="M791 217c-146.667 -64.667 -283.504 -117.001 -410.504 -157.001s-225.833 -60 -296.5 -60h-107v188h111c92.667 0 222.334 28.5 389.001 85.5s309.334 116.167 428.001 177.5c-58 40 -149.667 79.667 -275 119s-254.666 59 -387.999 59h-117v186h127
c122.667 0 257 -23.333 403 -70s287.333 -112.667 424 -198l201 102v-188c-45.333 -26.667 -96.666 -55.167 -153.999 -85.5s-117.333 -59.833 -180 -88.5c15.333 -29.333 37.666 -53.166 66.999 -71.499s70.666 -27.5 123.999 -27.5h278v-188h-274
c-93.333 0 -170.166 17.5 -230.499 52.5s-100.166 89.833 -119.499 164.5zM655.996 988.999h-148v148h148v-148z" />
    <glyph glyph-name="afii62780" unicode="&#x62f;" arabic-form="final" 
d="M1120 0l-56.998 -0.000976562c-66.667 0 -125.167 12.5 -175.5 37.5s-90.833 60.167 -121.5 105.5c-42.667 -47.333 -88.834 -83 -138.501 -107s-101.834 -36 -156.501 -36h-273h-128v188h393c40 0 75.333 5.33301 106 16s54.667 25.334 72 44.001
c16 18 27.167 36.667 33.5 56s9.5 39.666 9.5 60.999c0 6.66699 -1.5 17.334 -4.5 32.001s-6.83301 31 -11.5 49l-156 527h195l135 -477c10.667 -38 23 -79 37 -123s27 -77 39 -99c15.333 -26.667 34 -47.667 56 -63s50.333 -23 85 -23h61v-188z" />
    <glyph glyph-name="afii62781" unicode="&#x630;" arabic-form="final" 
d="M1120 0l-56.998 -0.000976562c-66.667 0 -125.167 12.5 -175.5 37.5s-90.833 60.167 -121.5 105.5c-42.667 -47.333 -88.834 -83 -138.501 -107s-101.834 -36 -156.501 -36h-273h-128v188h393c40 0 75.333 5.33301 106 16s54.667 25.334 72 44.001
c16 18 27.167 36.667 33.5 56s9.5 39.666 9.5 60.999c0 6.66699 -1.5 17.334 -4.5 32.001s-6.83301 31 -11.5 49l-156 527h195l135 -477c10.667 -38 23 -79 37 -123s27 -77 39 -99c15.333 -26.667 34 -47.667 56 -63s50.333 -23 85 -23h61v-188zM642.002 1206h-148v148h148
v-148z" />
    <glyph glyph-name="afii62782" unicode="&#x631;" horiz-adv-x="854" arabic-form="final" 
d="M856 0h-78.0029c-20.667 0 -43.667 3.16699 -69 9.5s-48 14.833 -68 25.5c-24.667 -96 -68.167 -173.833 -130.5 -233.5s-131.5 -106.167 -207.5 -139.5c-69.333 -30 -140 -51.833 -212 -65.5s-138.667 -20.5 -200 -20.5v188c42.667 0 100.334 5.83301 173.001 17.5
s137.334 30.834 194.001 57.501c76 35.333 133.167 78.5 171.5 129.5s57.5 112.833 57.5 185.5c0 39.333 -5.33301 78.5 -16 117.5s-22.667 73.167 -36 102.5s-26.666 55.166 -39.999 77.499s-24.333 39.833 -33 52.5v12h193c4 -7.33301 14 -29 30 -65l42 -97
c25.333 -58.667 54 -101 86 -127s68.667 -39 110 -39h33v-188zM740.997 0z" />
    <glyph glyph-name="afii62783" unicode="&#x632;" horiz-adv-x="854" arabic-form="final" 
d="M856 0h-78.0029c-20.667 0 -43.667 3.16699 -69 9.5s-48 14.833 -68 25.5c-24.667 -96 -68.167 -173.833 -130.5 -233.5s-131.5 -106.167 -207.5 -139.5c-69.333 -30 -140 -51.833 -212 -65.5s-138.667 -20.5 -200 -20.5v188c42.667 0 100.334 5.83301 173.001 17.5
s137.334 30.834 194.001 57.501c76 35.333 133.167 78.5 171.5 129.5s57.5 112.833 57.5 185.5c0 39.333 -5.33301 78.5 -16 117.5s-22.667 73.167 -36 102.5s-26.666 55.166 -39.999 77.499s-24.333 39.833 -33 52.5v12h193c4 -7.33301 14 -29 30 -65l42 -97
c25.333 -58.667 54 -101 86 -127s68.667 -39 110 -39h33v-188zM493.997 752h-148v148h148v-148z" />
    <glyph glyph-name="afii62786" unicode="&#x633;" horiz-adv-x="2652" arabic-form="final" 
d="M2654 0l-119.004 0.000976562c-42 0 -88.167 12.167 -138.5 36.5s-87.166 55.166 -110.499 92.499c-32 -44 -71.5 -77.5 -118.5 -100.5s-104.5 -34.5 -172.5 -34.5c-51.333 0 -101.833 9 -151.5 27s-86.5 42.333 -110.5 73c-38 -31.333 -77 -55.833 -117 -73.5
s-95.333 -26.5 -166 -26.5c-50 0 -97.667 6.33301 -143 19s-80.333 28 -105 46c-10 -134.667 -70.167 -248.834 -180.5 -342.501s-246.166 -140.5 -407.499 -140.5c-77.333 0 -148.666 9.66699 -213.999 29s-120.666 49.666 -165.999 90.999s-80.333 95 -105 161
s-37 144.333 -37 235c0 66.667 4.16699 132.667 12.5 198s13.166 102.333 14.499 111h182v-16c-7.33301 -24.667 -16.333 -67.167 -27 -127.5s-16 -116.166 -16 -167.499c0 -103.333 29.5 -183.5 88.5 -240.5s148.167 -85.5 267.5 -85.5c138 0 242.833 36.333 314.5 109
s107.5 181.334 107.5 326.001c0 56 -1.66699 122.5 -5 199.5s-5.66602 125.833 -6.99902 146.5h178c0 -136.667 20.5 -231.334 61.5 -284.001s103.167 -79 186.5 -79c73.333 0 128.5 21.5 165.5 64.5s55.5 103.5 55.5 181.5v117h166v-150c0 -69.333 15 -122.166 45 -158.499
s68.333 -54.5 115 -54.5c74.667 0 128.5 21.833 161.5 65.5s49.5 114.167 49.5 211.5v258h166v-260c0 -92.667 17.5 -160.667 52.5 -204s86.167 -65 153.5 -65h74v-188zM2478 0.000976562z" />
    <glyph glyph-name="afii62784" unicode="&#x633;" horiz-adv-x="2007" arabic-form="initial" 
d="M1896 446c0 -144 -33.166 -255.333 -99.499 -334s-159.166 -118 -278.499 -118c-51.333 0 -101.833 9 -151.5 27s-86.834 42.333 -111.501 73c-37.333 -31.333 -76 -55.833 -116 -73.5s-95.333 -26.5 -166 -26.5c-80.667 0 -149.667 13.333 -207 40
s-101.666 63 -132.999 109c-38.667 -42.667 -81.334 -77.167 -128.001 -103.5s-102.334 -39.5 -167.001 -39.5h-361v188h414c44.667 0 78.667 7 102 21s39.333 32.333 48 55s13.167 47.167 13.5 73.5s0.5 59.833 0.5 100.5v107h166c0 -126.667 19.5 -218.834 58.5 -276.501
s103.5 -86.5 193.5 -86.5c73.333 0 128.5 21.5 165.5 64.5s55.5 103.5 55.5 181.5v117h166v-150c0 -67.333 14.833 -119.666 44.5 -156.999s68.167 -56 115.5 -56c72.667 0 126 21.667 160 65s51 114 51 212v258h165v-271z" />
    <glyph glyph-name="afii62785" unicode="&#x633;" horiz-adv-x="2173" arabic-form="medial" 
d="M1808 129c-34 -47.333 -75.1689 -81.665 -123.502 -102.998s-103.833 -32 -166.5 -32c-51.333 0 -101.833 9 -151.5 27s-86.834 42.333 -111.501 73c-37.333 -31.333 -76 -55.833 -116 -73.5s-95.333 -26.5 -166 -26.5c-80.667 0 -149.667 13.333 -207 40
s-101.666 63 -132.999 109c-44.667 -49.333 -90.167 -85.5 -136.5 -108.5s-99.166 -34.5 -158.499 -34.5h-361v188h353c44.667 0 81.834 7 111.501 21s52.5 32.333 68.5 55c17.333 24.667 29.166 51.5 35.499 80.5s9.5 60.167 9.5 93.5v107h166c0 -126 19.333 -218 58 -276
s103.334 -87 194.001 -87c73.333 0 128.5 21.5 165.5 64.5s55.5 103.5 55.5 181.5v117h166v-150c0 -68.667 14.833 -121.334 44.5 -158.001s68.167 -55 115.5 -55c75.333 0 129 22 161 66s48 114.333 48 211v258h167v-291c0 -72.667 18.5 -130.5 55.5 -173.5
s86.833 -64.5 149.5 -64.5h94v-188h-139c-42 0 -88 12.167 -138 36.5s-86.667 55.166 -110 92.499zM2007 0.000976562z" />
    <glyph glyph-name="afii62789" unicode="&#x634;" horiz-adv-x="2652" arabic-form="final" 
d="M2654 0l-119.004 0.000976562c-42 0 -88.167 12.167 -138.5 36.5s-87.166 55.166 -110.499 92.499c-32 -44 -71.5 -77.5 -118.5 -100.5s-104.5 -34.5 -172.5 -34.5c-51.333 0 -101.833 9 -151.5 27s-86.5 42.333 -110.5 73c-38 -31.333 -77 -55.833 -117 -73.5
s-95.333 -26.5 -166 -26.5c-50 0 -97.667 6.33301 -143 19s-80.333 28 -105 46c-10 -134.667 -70.167 -248.834 -180.5 -342.501s-246.166 -140.5 -407.499 -140.5c-77.333 0 -148.666 9.66699 -213.999 29s-120.666 49.666 -165.999 90.999s-80.333 95 -105 161
s-37 144.333 -37 235c0 66.667 4.16699 132.667 12.5 198s13.166 102.333 14.499 111h182v-16c-7.33301 -24.667 -16.333 -67.167 -27 -127.5s-16 -116.166 -16 -167.499c0 -103.333 29.5 -183.5 88.5 -240.5s148.167 -85.5 267.5 -85.5c138 0 242.833 36.333 314.5 109
s107.5 181.334 107.5 326.001c0 56 -1.66699 122.5 -5 199.5s-5.66602 125.833 -6.99902 146.5h178c0 -136.667 20.5 -231.334 61.5 -284.001s103.167 -79 186.5 -79c73.333 0 128.5 21.5 165.5 64.5s55.5 103.5 55.5 181.5v117h166v-150c0 -69.333 15 -122.166 45 -158.499
s68.333 -54.5 115 -54.5c74.667 0 128.5 21.833 161.5 65.5s49.5 114.167 49.5 211.5v258h166v-260c0 -92.667 17.5 -160.667 52.5 -204s86.167 -65 153.5 -65h74v-188zM1359 801.001h-148v148h148v-148zM1655 801.001h-148v148h148v-148zM1507 1010h-148v148h148v-148z" />
    <glyph glyph-name="afii62787" unicode="&#x634;" horiz-adv-x="2007" arabic-form="initial" 
d="M1896 446c0 -144 -33.166 -255.333 -99.499 -334s-159.166 -118 -278.499 -118c-51.333 0 -101.833 9 -151.5 27s-86.834 42.333 -111.501 73c-37.333 -31.333 -76 -55.833 -116 -73.5s-95.333 -26.5 -166 -26.5c-80.667 0 -149.667 13.333 -207 40
s-101.666 63 -132.999 109c-38.667 -42.667 -81.334 -77.167 -128.001 -103.5s-102.334 -39.5 -167.001 -39.5h-361v188h414c44.667 0 78.667 7 102 21s39.333 32.333 48 55s13.167 47.167 13.5 73.5s0.5 59.833 0.5 100.5v107h166c0 -126.667 19.5 -218.834 58.5 -276.501
s103.5 -86.5 193.5 -86.5c73.333 0 128.5 21.5 165.5 64.5s55.5 103.5 55.5 181.5v117h166v-150c0 -67.333 14.833 -119.666 44.5 -156.999s68.167 -56 115.5 -56c72.667 0 126 21.667 160 65s51 114 51 212v258h165v-271zM1206 840h-148v148h148v-148zM1502 840h-148v148
h148v-148zM1354 1049h-148v148h148v-148z" />
    <glyph glyph-name="afii62788" unicode="&#x634;" horiz-adv-x="2173" arabic-form="medial" 
d="M1808 129c-34 -47.333 -75.1689 -81.665 -123.502 -102.998s-103.833 -32 -166.5 -32c-51.333 0 -101.833 9 -151.5 27s-86.834 42.333 -111.501 73c-37.333 -31.333 -76 -55.833 -116 -73.5s-95.333 -26.5 -166 -26.5c-80.667 0 -149.667 13.333 -207 40
s-101.666 63 -132.999 109c-44.667 -49.333 -90.167 -85.5 -136.5 -108.5s-99.166 -34.5 -158.499 -34.5h-361v188h353c44.667 0 81.834 7 111.501 21s52.5 32.333 68.5 55c17.333 24.667 29.166 51.5 35.499 80.5s9.5 60.167 9.5 93.5v107h166c0 -126 19.333 -218 58 -276
s103.334 -87 194.001 -87c73.333 0 128.5 21.5 165.5 64.5s55.5 103.5 55.5 181.5v117h166v-150c0 -68.667 14.833 -121.334 44.5 -158.001s68.167 -55 115.5 -55c75.333 0 129 22 161 66s48 114.333 48 211v258h167v-291c0 -72.667 18.5 -130.5 55.5 -173.5
s86.833 -64.5 149.5 -64.5h94v-188h-139c-42 0 -88 12.167 -138 36.5s-86.667 55.166 -110 92.499zM1196 840.001h-148v148h148v-148zM1492 840.001h-148v148h148v-148zM1344 1049h-148v148h148v-148z" />
    <glyph glyph-name="afii62792" unicode="&#x635;" horiz-adv-x="2384" arabic-form="final" 
d="M2386 0l-119.002 0.000976562c-31.333 0 -66.5 6.5 -105.5 19.5s-73.5 33.167 -103.5 60.5c-33.333 -23.333 -82.166 -42.5 -146.499 -57.5s-119.833 -22.5 -166.5 -22.5h-639c-18.667 -129.333 -74.667 -232.333 -168 -309s-214.333 -115 -363 -115
c-150.667 0 -268.834 42.833 -354.501 128.5s-128.5 203.167 -128.5 352.5c0 95.333 4 171.5 12 228.5s13 91.5 15 103.5h182v-16c-7.33301 -30 -16.333 -76.833 -27 -140.5s-16 -122.834 -16 -177.501c0 -98 28.833 -171 86.5 -219s133.834 -72 228.501 -72
c56.667 0 108 6.66699 154 20s85 37 117 71c34.667 36 60.334 82.5 77.001 139.5s25 125.167 25 204.5c0 50.667 -1.5 92 -4.5 124s-5.5 54 -7.5 66h178v-12c0 -38 6 -73.667 18 -107s27.333 -57 46 -71c102 174 218.833 320.167 350.5 438.5s249.5 177.5 353.5 177.5
c112 0 205.5 -38 280.5 -114s112.5 -173.667 112.5 -293c0 -33.333 -5.16699 -67.5 -15.5 -102.5s-25.5 -65.833 -45.5 -92.5c17.333 -8.66699 33.166 -15 47.5 -19c14.333 -4 31.833 -6 52.5 -6h74v-188zM1925 227.001c70 21.333 117.835 46.501 143.502 75.501
s38.5 62.5 38.5 100.5c0 61.333 -21.333 114.333 -64 159s-97.667 67 -165 67c-40.667 0 -85 -15.5 -133 -46.5s-97.333 -70.167 -148 -117.5c-44.667 -41.333 -88.334 -87.5 -131.001 -138.5s-77.334 -97.167 -104.001 -138.5h174c57.333 0 125.5 3.16699 204.5 9.5
s140.5 16.166 184.5 29.499zM2365 0.00195312z" />
    <glyph glyph-name="afii62790" unicode="&#x635;" horiz-adv-x="1552" arabic-form="initial" 
d="M1460 408c0 -56 -12.835 -108.831 -38.502 -158.498s-64.167 -92.834 -115.5 -129.501s-115.333 -65.834 -192 -87.501s-167.334 -32.5 -272.001 -32.5h-400c-42.667 0 -81.667 6.5 -117 19.5s-66.666 33.833 -93.999 62.5c-25.333 -28 -55.333 -48.667 -90 -62
s-74 -20 -118 -20h-46v188h50c44.667 0 75.834 17 93.501 51s26.5 80.667 26.5 140v10h168v-10c0 -36.667 3.66699 -69.667 11 -99s19.333 -51.666 36 -66.999c47.333 78.667 99.833 154.167 157.5 226.5s117.5 136.5 179.5 192.5c60.667 55.333 123 99.666 187 132.999
s124.333 50 181 50c110.667 0 203.834 -37.5 279.501 -112.5s113.5 -173.167 113.5 -294.5zM1112 227.002c67.333 20.667 114.501 44.834 141.501 72.501s40.5 62.167 40.5 103.5c0 61.333 -21.833 114.333 -65.5 159s-98.167 67 -163.5 67c-40.667 0 -85 -15.5 -133 -46.5
s-97.333 -70.167 -148 -117.5c-44.667 -41.333 -88.334 -87.5 -131.001 -138.5s-77.334 -97.167 -104.001 -138.5h174c57.333 0 125.333 3.16699 204 9.5s140.334 16.166 185.001 29.499z" />
    <glyph glyph-name="afii62791" unicode="&#x635;" horiz-adv-x="1571" arabic-form="medial" 
d="M1593 0l-139.001 0.000976562c-32.667 0 -69 7.16699 -109 21.5s-73.333 33.833 -100 58.5c-34 -22 -87.167 -40.833 -159.5 -56.5s-132.5 -23.5 -180.5 -23.5h-463c-42.667 0 -81.667 6.5 -117 19.5s-66.666 33.833 -93.999 62.5c-25.333 -28 -55.333 -48.667 -90 -62
s-74 -20 -118 -20h-46v188h50c44.667 0 75.834 17 93.501 51s26.5 80.667 26.5 140v10h168v-10c0 -38.667 3.66699 -73.334 11 -104.001s19.333 -53.334 36 -68.001c48 80 100.667 156 158 228s117 136.667 179 194c59.333 54.667 121.666 99.334 186.999 134.001
s125.666 52 180.999 52c107.333 0 199.666 -36.5 276.999 -109.5s116 -172.167 116 -297.5c0 -33.333 -5.16699 -67.5 -15.5 -102.5s-25.5 -65.833 -45.5 -92.5c16.667 -8.66699 32.334 -15 47.001 -19s32.334 -6 53.001 -6h94v-188zM1098 227.001
c57.333 16 104.334 37.668 141.001 65.001s55 64.333 55 111c0 57.333 -20.667 109.333 -62 156s-97 70 -167 70c-40.667 0 -85 -15.5 -133 -46.5s-97.333 -70.167 -148 -117.5c-44.667 -41.333 -88.334 -87.5 -131.001 -138.5s-77.334 -97.167 -104.001 -138.5h174
c50 0 113.333 3.16699 190 9.5s138.334 16.166 185.001 29.499zM1552 0.00195312z" />
    <glyph glyph-name="afii62795" unicode="&#x636;" horiz-adv-x="2384" arabic-form="final" 
d="M2386 0l-119.002 0.000976562c-31.333 0 -66.5 6.5 -105.5 19.5s-73.5 33.167 -103.5 60.5c-33.333 -23.333 -82.166 -42.5 -146.499 -57.5s-119.833 -22.5 -166.5 -22.5h-639c-18.667 -129.333 -74.667 -232.333 -168 -309s-214.333 -115 -363 -115
c-150.667 0 -268.834 42.833 -354.501 128.5s-128.5 203.167 -128.5 352.5c0 95.333 4 171.5 12 228.5s13 91.5 15 103.5h182v-16c-7.33301 -30 -16.333 -76.833 -27 -140.5s-16 -122.834 -16 -177.501c0 -98 28.833 -171 86.5 -219s133.834 -72 228.501 -72
c56.667 0 108 6.66699 154 20s85 37 117 71c34.667 36 60.334 82.5 77.001 139.5s25 125.167 25 204.5c0 50.667 -1.5 92 -4.5 124s-5.5 54 -7.5 66h178v-12c0 -38 6 -73.667 18 -107s27.333 -57 46 -71c102 174 218.833 320.167 350.5 438.5s249.5 177.5 353.5 177.5
c112 0 205.5 -38 280.5 -114s112.5 -173.667 112.5 -293c0 -33.333 -5.16699 -67.5 -15.5 -102.5s-25.5 -65.833 -45.5 -92.5c17.333 -8.66699 33.166 -15 47.5 -19c14.333 -4 31.833 -6 52.5 -6h74v-188zM1925 227.001c70 21.333 117.835 46.501 143.502 75.501
s38.5 62.5 38.5 100.5c0 61.333 -21.333 114.333 -64 159s-97.667 67 -165 67c-40.667 0 -85 -15.5 -133 -46.5s-97.333 -70.167 -148 -117.5c-44.667 -41.333 -88.334 -87.5 -131.001 -138.5s-77.334 -97.167 -104.001 -138.5h174c57.333 0 125.5 3.16699 204.5 9.5
s140.5 16.166 184.5 29.499zM1942 1024h-148v148h148v-148z" />
    <glyph glyph-name="afii62793" unicode="&#x636;" horiz-adv-x="1552" arabic-form="initial" 
d="M1460 408c0 -56 -12.835 -108.831 -38.502 -158.498s-64.167 -92.834 -115.5 -129.501s-115.333 -65.834 -192 -87.501s-167.334 -32.5 -272.001 -32.5h-400c-42.667 0 -81.667 6.5 -117 19.5s-66.666 33.833 -93.999 62.5c-25.333 -28 -55.333 -48.667 -90 -62
s-74 -20 -118 -20h-46v188h50c44.667 0 75.834 17 93.501 51s26.5 80.667 26.5 140v10h168v-10c0 -36.667 3.66699 -69.667 11 -99s19.333 -51.666 36 -66.999c47.333 78.667 99.833 154.167 157.5 226.5s117.5 136.5 179.5 192.5c60.667 55.333 123 99.666 187 132.999
s124.333 50 181 50c110.667 0 203.834 -37.5 279.501 -112.5s113.5 -173.167 113.5 -294.5zM1112 227.002c67.333 20.667 114.501 44.834 141.501 72.501s40.5 62.167 40.5 103.5c0 61.333 -21.833 114.333 -65.5 159s-98.167 67 -163.5 67c-40.667 0 -85 -15.5 -133 -46.5
s-97.333 -70.167 -148 -117.5c-44.667 -41.333 -88.334 -87.5 -131.001 -138.5s-77.334 -97.167 -104.001 -138.5h174c57.333 0 125.333 3.16699 204 9.5s140.334 16.166 185.001 29.499zM600.999 939.002h-148v148h148v-148z" />
    <glyph glyph-name="afii62794" unicode="&#x636;" horiz-adv-x="1571" arabic-form="medial" 
d="M1593 0l-139.001 0.000976562c-32.667 0 -69 7.16699 -109 21.5s-73.333 33.833 -100 58.5c-34 -22 -87.167 -40.833 -159.5 -56.5s-132.5 -23.5 -180.5 -23.5h-463c-42.667 0 -81.667 6.5 -117 19.5s-66.666 33.833 -93.999 62.5c-25.333 -28 -55.333 -48.667 -90 -62
s-74 -20 -118 -20h-46v188h50c44.667 0 75.834 17 93.501 51s26.5 80.667 26.5 140v10h168v-10c0 -38.667 3.66699 -73.334 11 -104.001s19.333 -53.334 36 -68.001c48 80 100.667 156 158 228s117 136.667 179 194c59.333 54.667 121.666 99.334 186.999 134.001
s125.666 52 180.999 52c107.333 0 199.666 -36.5 276.999 -109.5s116 -172.167 116 -297.5c0 -33.333 -5.16699 -67.5 -15.5 -102.5s-25.5 -65.833 -45.5 -92.5c16.667 -8.66699 32.334 -15 47.001 -19s32.334 -6 53.001 -6h94v-188zM1098 227.001
c57.333 16 104.334 37.668 141.001 65.001s55 64.333 55 111c0 57.333 -20.667 109.333 -62 156s-97 70 -167 70c-40.667 0 -85 -15.5 -133 -46.5s-97.333 -70.167 -148 -117.5c-44.667 -41.333 -88.334 -87.5 -131.001 -138.5s-77.334 -97.167 -104.001 -138.5h174
c50 0 113.333 3.16699 190 9.5s138.334 16.166 185.001 29.499zM601 939.002h-148v148h148v-148z" />
    <glyph glyph-name="afii62798" unicode="&#x637;" horiz-adv-x="1442" arabic-form="final" 
d="M1462 0l-139.005 -0.00195312c-34.667 0 -71.167 6.83301 -109.5 20.5s-70.833 33.5 -97.5 59.5c-39.333 -22.667 -82.333 -41.667 -129 -57s-104.667 -23 -174 -23h-833v188h196l11.5 9c7.66699 6 15.834 13.667 24.501 23c10 10.667 18.5 20.334 25.5 29.001
s10.5 17.667 10.5 27v1280h166v-1079c78.667 94.667 165.334 174.667 260.001 240s181.334 98 260.001 98c108 0 200.833 -36.833 278.5 -110.5s116.5 -172.5 116.5 -296.5c0 -42 -6.83301 -81.167 -20.5 -117.5s-27.167 -62.166 -40.5 -77.499
c16.667 -8.66699 32.334 -15 47.001 -19s32.334 -6 53.001 -6h94v-188zM978.995 226.998c66.667 20.667 113.668 45.168 141.001 73.501s41 62.5 41 102.5c0 57.333 -20.667 109.333 -62 156s-97 70 -167 70c-40.667 0 -85 -15.5 -133 -46.5s-97.333 -70.167 -148 -117.5
c-44.667 -41.333 -88.334 -87.5 -131.001 -138.5s-77.334 -97.167 -104.001 -138.5h174c57.333 0 125.333 3.16699 204 9.5s140.334 16.166 185.001 29.499zM1380 -0.000976562z" />
    <glyph glyph-name="afii62796" unicode="&#x637;" horiz-adv-x="1380" arabic-form="initial" 
d="M1329 408c0 -56 -13.0029 -108.832 -39.0029 -158.499s-64.667 -92.834 -116 -129.501s-115.5 -65.834 -192.5 -87.501s-167.833 -32.5 -272.5 -32.5h-729v188h196l11.5 9c7.66699 6 15.834 13.667 24.501 23c10 10.667 18.5 20.334 25.5 29.001s10.5 17.667 10.5 27
v1280h166v-1079c78.667 94.667 165.334 174.667 260.001 240s181.334 98 260.001 98c110.667 0 204.167 -37.167 280.5 -111.5s114.5 -172.833 114.5 -295.5zM1163 403.001c0 64.667 -22.9971 118.501 -68.9971 161.501s-100 64.5 -162 64.5c-40.667 0 -85 -15.5 -133 -46.5
s-97.333 -70.167 -148 -117.5c-44.667 -41.333 -88.334 -87.5 -131.001 -138.5s-77.334 -97.167 -104.001 -138.5h174c57.333 0 125.5 3.16699 204.5 9.5s140.833 16.166 185.5 29.499c55.333 16 99.666 37.667 132.999 65s50 64.333 50 111z" />
    <glyph glyph-name="afii62797" unicode="&#x637;" horiz-adv-x="1442" arabic-form="medial" 
d="M1462 0l-139.005 -0.00195312c-34.667 0 -71.167 6.83301 -109.5 20.5s-70.833 33.5 -97.5 59.5c-39.333 -22.667 -82.333 -41.667 -129 -57s-104.667 -23 -174 -23h-833v188h196l11.5 9c7.66699 6 15.834 13.667 24.501 23c10 10.667 18.5 20.334 25.5 29.001
s10.5 17.667 10.5 27v1280h166v-1079c78.667 94.667 165.334 174.667 260.001 240s181.334 98 260.001 98c108 0 200.833 -36.833 278.5 -110.5s116.5 -172.5 116.5 -296.5c0 -42 -6.83301 -81.167 -20.5 -117.5s-27.167 -62.166 -40.5 -77.499
c16.667 -8.66699 32.334 -15 47.001 -19s32.334 -6 53.001 -6h94v-188zM978.995 226.998c66.667 20.667 113.668 45.168 141.001 73.501s41 62.5 41 102.5c0 57.333 -20.667 109.333 -62 156s-97 70 -167 70c-40.667 0 -85 -15.5 -133 -46.5s-97.333 -70.167 -148 -117.5
c-44.667 -41.333 -88.334 -87.5 -131.001 -138.5s-77.334 -97.167 -104.001 -138.5h174c57.333 0 125.333 3.16699 204 9.5s140.334 16.166 185.001 29.499zM1380 -0.000976562z" />
    <glyph glyph-name="afii62801" unicode="&#x638;" horiz-adv-x="1442" arabic-form="final" 
d="M1462 0l-139.005 -0.00195312c-34.667 0 -71.167 6.83301 -109.5 20.5s-70.833 33.5 -97.5 59.5c-39.333 -22.667 -82.333 -41.667 -129 -57s-104.667 -23 -174 -23h-833v188h196l11.5 9c7.66699 6 15.834 13.667 24.501 23c10 10.667 18.5 20.334 25.5 29.001
s10.5 17.667 10.5 27v1280h166v-1079c78.667 94.667 165.334 174.667 260.001 240s181.334 98 260.001 98c108 0 200.833 -36.833 278.5 -110.5s116.5 -172.5 116.5 -296.5c0 -42 -6.83301 -81.167 -20.5 -117.5s-27.167 -62.166 -40.5 -77.499
c16.667 -8.66699 32.334 -15 47.001 -19s32.334 -6 53.001 -6h94v-188zM978.995 226.998c66.667 20.667 113.668 45.168 141.001 73.501s41 62.5 41 102.5c0 57.333 -20.667 109.333 -62 156s-97 70 -167 70c-40.667 0 -85 -15.5 -133 -46.5s-97.333 -70.167 -148 -117.5
c-44.667 -41.333 -88.334 -87.5 -131.001 -138.5s-77.334 -97.167 -104.001 -138.5h174c57.333 0 125.333 3.16699 204 9.5s140.334 16.166 185.001 29.499zM823.996 1063h-148v148h148v-148z" />
    <glyph glyph-name="afii62799" unicode="&#x638;" horiz-adv-x="1380" arabic-form="initial" 
d="M1329 408c0 -56 -13.0029 -108.832 -39.0029 -158.499s-64.667 -92.834 -116 -129.501s-115.5 -65.834 -192.5 -87.501s-167.833 -32.5 -272.5 -32.5h-729v188h196l11.5 9c7.66699 6 15.834 13.667 24.501 23c10 10.667 18.5 20.334 25.5 29.001s10.5 17.667 10.5 27
v1280h166v-1079c78.667 94.667 165.334 174.667 260.001 240s181.334 98 260.001 98c110.667 0 204.167 -37.167 280.5 -111.5s114.5 -172.833 114.5 -295.5zM1163 403.001c0 64.667 -22.9971 118.501 -68.9971 161.501s-100 64.5 -162 64.5c-40.667 0 -85 -15.5 -133 -46.5
s-97.333 -70.167 -148 -117.5c-44.667 -41.333 -88.334 -87.5 -131.001 -138.5s-77.334 -97.167 -104.001 -138.5h174c57.333 0 125.5 3.16699 204.5 9.5s140.833 16.166 185.5 29.499c55.333 16 99.666 37.667 132.999 65s50 64.333 50 111zM824 1063h-148v148h148v-148z
" />
    <glyph glyph-name="afii62800" unicode="&#x638;" horiz-adv-x="1442" arabic-form="medial" 
d="M1462 0l-139.005 -0.00195312c-34.667 0 -71.167 6.83301 -109.5 20.5s-70.833 33.5 -97.5 59.5c-39.333 -22.667 -82.333 -41.667 -129 -57s-104.667 -23 -174 -23h-833v188h196l11.5 9c7.66699 6 15.834 13.667 24.501 23c10 10.667 18.5 20.334 25.5 29.001
s10.5 17.667 10.5 27v1280h166v-1079c78.667 94.667 165.334 174.667 260.001 240s181.334 98 260.001 98c108 0 200.833 -36.833 278.5 -110.5s116.5 -172.5 116.5 -296.5c0 -42 -6.83301 -81.167 -20.5 -117.5s-27.167 -62.166 -40.5 -77.499
c16.667 -8.66699 32.334 -15 47.001 -19s32.334 -6 53.001 -6h94v-188zM978.995 226.998c66.667 20.667 113.668 45.168 141.001 73.501s41 62.5 41 102.5c0 57.333 -20.667 109.333 -62 156s-97 70 -167 70c-40.667 0 -85 -15.5 -133 -46.5s-97.333 -70.167 -148 -117.5
c-44.667 -41.333 -88.334 -87.5 -131.001 -138.5s-77.334 -97.167 -104.001 -138.5h174c57.333 0 125.333 3.16699 204 9.5s140.334 16.166 185.001 29.499zM823.996 1063h-148v148h148v-148z" />
    <glyph glyph-name="afii62804" unicode="&#x639;" horiz-adv-x="1200" arabic-form="final" 
d="M1118 -322c-49.333 -30 -118.502 -54.502 -207.502 -73.502s-171.833 -28.5 -248.5 -28.5c-168 0 -305 42.5 -411 127.5s-159 198.167 -159 339.5c0 43.333 7.5 85.333 22.5 126s37.833 77.667 68.5 111c26.667 30.667 58 57 94 79s72 41 108 57l-37 33
c-72 64 -121.333 118.167 -148 162.5s-40 86.833 -40 127.5c0 40 13 74.833 39 104.5s58.667 54.5 98 74.5c36 18.667 79.333 33.167 130 43.5s95.334 15.5 134.001 15.5c42 0 86.333 -4.66699 133 -14s90 -23.666 130 -42.999c40.667 -20 74 -45 100 -75
s39 -66.667 39 -110c0 -48 -10.333 -91 -31 -129s-45.667 -70.333 -75 -97s-61.666 -50 -96.999 -70s-67.333 -36 -96 -48l-33 -14l49 -43c48 -42.667 98.833 -77.667 152.5 -105s115.5 -41 185.5 -41h203v-188h-207c-42 0 -82.333 6.5 -121 19.5s-77 31.5 -115 55.5
c-34 21.333 -69.833 48 -107.5 80l-107.5 95l-67 61c-70.667 -32.667 -128 -70.5 -172 -113.5s-66 -94.5 -66 -154.5c0 -84 35.833 -151.833 107.5 -203.5s169.5 -77.5 293.5 -77.5c76 0 158.5 13.333 247.5 40s156.167 56.334 201.5 89.001h10v-213zM792.998 691.998
c0 28.667 -17.666 51.5 -52.999 68.5s-95 25.5 -179 25.5c-80 0 -138.5 -8.83301 -175.5 -26.5s-55.5 -39.5 -55.5 -65.5c0 -16 15 -41 45 -75s64.667 -68.333 104 -103l45 -39l23 8c89.333 36.667 152.666 70.5 189.999 101.5s56 66.167 56 105.5z" />
    <glyph glyph-name="afii62802" unicode="&#x639;" horiz-adv-x="1214" arabic-form="initial" 
d="M1137 162c-192.667 -52 -352.5 -92.0029 -479.5 -120.003s-237.5 -42 -331.5 -42h-346v188h423c-56.667 26.667 -106.334 69.834 -149.001 129.501s-64 125.834 -64 198.501c0 125.333 42.5 227 127.5 305s191.5 117 319.5 117c80 0 155.833 -7.66699 227.5 -23
s129.5 -35 173.5 -59v-213h-10c-44 32 -99 58.833 -165 80.5s-138.667 32.5 -218 32.5c-87.333 0 -157.333 -23 -210 -69s-79 -104.333 -79 -175c0 -60 24.167 -115.667 72.5 -167s111.5 -89.333 189.5 -114c60.667 8.66699 147.334 27.334 260.001 56.001
s199 51.667 259 69v-194z" />
    <glyph glyph-name="afii62803" unicode="&#x639;" horiz-adv-x="989" arabic-form="medial" 
d="M1012 0l-188.999 0.00195312c-64 0 -123.5 13 -178.5 39s-105.167 56.667 -150.5 92c-46 -36 -96 -66.833 -150 -92.5s-114 -38.5 -180 -38.5h-187v188h191c42.667 0 79.167 4.33301 109.5 13s56.5 19.334 78.5 32.001c-8.66699 6 -26.5 19.5 -53.5 40.5
s-58.167 48.833 -93.5 83.5c-37.333 35.333 -71.333 74.166 -102 116.499s-46 80.5 -46 114.5c0 44 14.833 81.5 44.5 112.5s66.167 56.5 109.5 76.5c47.333 21.333 96.166 36.166 146.499 44.499s94.5 12.5 132.5 12.5c42.667 0 88.834 -4.33301 138.501 -13
s96.5 -22.334 140.5 -41.001c44.667 -19.333 81.667 -44 111 -74s44 -68 44 -114c0 -36 -16.333 -75.667 -49 -119s-66 -81 -100 -113c-40.667 -38 -73.834 -66.667 -99.501 -86l-50.5 -38c10 -6 33.333 -15.5 70 -28.5s76.667 -19.5 120 -19.5h193v-188zM628.001 408.002
c36 26.667 67.333 52.001 94 76.001s40 43.667 40 59c0 21.333 -9.16699 38.5 -27.5 51.5s-41.166 23.167 -68.499 30.5c-28 7.33301 -58.5 12.166 -91.5 14.499s-59.833 3.5 -80.5 3.5c-82.667 0 -147.834 -9 -195.501 -27s-71.5 -41.667 -71.5 -71
c0 -15.333 14.5 -36.333 43.5 -63s59.167 -51 90.5 -73c35.333 -26 64.333 -46.167 87 -60.5l46 -29.5c8.66699 4.66699 25 14.667 49 30s52.333 35 85 59z" />
    <glyph glyph-name="afii62807" unicode="&#x63a;" horiz-adv-x="1200" arabic-form="final" 
d="M1118 -322c-49.333 -30 -118.502 -54.502 -207.502 -73.502s-171.833 -28.5 -248.5 -28.5c-168 0 -305 42.5 -411 127.5s-159 198.167 -159 339.5c0 43.333 7.5 85.333 22.5 126s37.833 77.667 68.5 111c26.667 30.667 58 57 94 79s72 41 108 57l-37 33
c-72 64 -121.333 118.167 -148 162.5s-40 86.833 -40 127.5c0 40 13 74.833 39 104.5s58.667 54.5 98 74.5c36 18.667 79.333 33.167 130 43.5s95.334 15.5 134.001 15.5c42 0 86.333 -4.66699 133 -14s90 -23.666 130 -42.999c40.667 -20 74 -45 100 -75
s39 -66.667 39 -110c0 -48 -10.333 -91 -31 -129s-45.667 -70.333 -75 -97s-61.666 -50 -96.999 -70s-67.333 -36 -96 -48l-33 -14l49 -43c48 -42.667 98.833 -77.667 152.5 -105s115.5 -41 185.5 -41h203v-188h-207c-42 0 -82.333 6.5 -121 19.5s-77 31.5 -115 55.5
c-34 21.333 -69.833 48 -107.5 80l-107.5 95l-67 61c-70.667 -32.667 -128 -70.5 -172 -113.5s-66 -94.5 -66 -154.5c0 -84 35.833 -151.833 107.5 -203.5s169.5 -77.5 293.5 -77.5c76 0 158.5 13.333 247.5 40s156.167 56.334 201.5 89.001h10v-213zM792.998 691.998
c0 28.667 -17.666 51.5 -52.999 68.5s-95 25.5 -179 25.5c-80 0 -138.5 -8.83301 -175.5 -26.5s-55.5 -39.5 -55.5 -65.5c0 -16 15 -41 45 -75s64.667 -68.333 104 -103l45 -39l23 8c89.333 36.667 152.666 70.5 189.999 101.5s56 66.167 56 105.5zM626.999 1196h-148v148
h148v-148z" />
    <glyph glyph-name="afii62805" unicode="&#x63a;" horiz-adv-x="1214" arabic-form="initial" 
d="M1137 162c-192.667 -52 -352.5 -92.0029 -479.5 -120.003s-237.5 -42 -331.5 -42h-346v188h423c-56.667 26.667 -106.334 69.834 -149.001 129.501s-64 125.834 -64 198.501c0 125.333 42.5 227 127.5 305s191.5 117 319.5 117c80 0 155.833 -7.66699 227.5 -23
s129.5 -35 173.5 -59v-213h-10c-44 32 -99 58.833 -165 80.5s-138.667 32.5 -218 32.5c-87.333 0 -157.333 -23 -210 -69s-79 -104.333 -79 -175c0 -60 24.167 -115.667 72.5 -167s111.5 -89.333 189.5 -114c60.667 8.66699 147.334 27.334 260.001 56.001
s199 51.667 259 69v-194zM738 1112h-148v148h148v-148z" />
    <glyph glyph-name="afii62806" unicode="&#x63a;" horiz-adv-x="989" arabic-form="medial" 
d="M1012 0l-188.999 0.00195312c-64 0 -123.5 13 -178.5 39s-105.167 56.667 -150.5 92c-46 -36 -96 -66.833 -150 -92.5s-114 -38.5 -180 -38.5h-187v188h191c42.667 0 79.167 4.33301 109.5 13s56.5 19.334 78.5 32.001c-8.66699 6 -26.5 19.5 -53.5 40.5
s-58.167 48.833 -93.5 83.5c-37.333 35.333 -71.333 74.166 -102 116.499s-46 80.5 -46 114.5c0 44 14.833 81.5 44.5 112.5s66.167 56.5 109.5 76.5c47.333 21.333 96.166 36.166 146.499 44.499s94.5 12.5 132.5 12.5c42.667 0 88.834 -4.33301 138.501 -13
s96.5 -22.334 140.5 -41.001c44.667 -19.333 81.667 -44 111 -74s44 -68 44 -114c0 -36 -16.333 -75.667 -49 -119s-66 -81 -100 -113c-40.667 -38 -73.834 -66.667 -99.501 -86l-50.5 -38c10 -6 33.333 -15.5 70 -28.5s76.667 -19.5 120 -19.5h193v-188zM628.001 408.002
c36 26.667 67.333 52.001 94 76.001s40 43.667 40 59c0 21.333 -9.16699 38.5 -27.5 51.5s-41.166 23.167 -68.499 30.5c-28 7.33301 -58.5 12.166 -91.5 14.499s-59.833 3.5 -80.5 3.5c-82.667 0 -147.834 -9 -195.501 -27s-71.5 -41.667 -71.5 -71
c0 -15.333 14.5 -36.333 43.5 -63s59.167 -51 90.5 -73c35.333 -26 64.333 -46.167 87 -60.5l46 -29.5c8.66699 4.66699 25 14.667 49 30s52.333 35 85 59zM569.001 1023h-148v148h148v-148z" />
    <glyph glyph-name="afii62810" unicode="&#x641;" horiz-adv-x="1855" arabic-form="final" 
d="M1878 0l-186.003 0.00195312c-63.333 0 -126 8.83301 -188 26.5s-118.333 38.834 -169 63.501c-55.333 -26 -110.166 -47.5 -164.499 -64.5s-118.833 -25.5 -193.5 -25.5h-156c-243.333 0 -425.666 43.333 -546.999 130s-182 210.667 -182 372
c0 61.333 2.66699 108.666 8 141.999l9 56h163v-10c-1.33301 -6.66699 -4 -28.334 -8 -65.001s-6 -73.667 -6 -111c0 -47.333 9.5 -90.5 28.5 -129.5s50.833 -73.167 95.5 -102.5c48 -32 108.833 -55.667 182.5 -71s159.167 -23 256.5 -23h160c52 0 94.167 3.66699 126.5 11
l61.5 14l-30.5 19c-15 9.33301 -32.833 25 -53.5 47c-21.333 22 -40.666 49.667 -57.999 83s-26 71 -26 113c0 101.333 30.333 186.5 91 255.5s139.667 103.5 237 103.5c93.333 0 172 -34.333 236 -103s96 -153.334 96 -254.001c0 -42 -8.16699 -80.333 -24.5 -115
s-35.166 -63 -56.499 -85c-20.667 -22 -38.5 -38 -53.5 -48s-24.167 -16 -27.5 -18c11.333 -4 34.666 -8.83301 69.999 -14.5s75 -8.5 119 -8.5h190v-188zM1414 342.002c22.667 19.333 41.835 38.832 57.502 58.499s23.5 44.5 23.5 74.5
c0 42.667 -15.333 81.334 -46 116.001s-70.667 52 -120 52c-44.667 0 -82.834 -16.5 -114.501 -49.5s-47.5 -72.5 -47.5 -118.5c0 -25.333 8.83301 -49.5 26.5 -72.5s36.5 -42.833 56.5 -59.5c22 -18 40.167 -31.167 54.5 -39.5l28.5 -16.5c4 2 13.667 7.5 29 16.5
s32.666 21.833 51.999 38.5zM1399 1024h-148v148h148v-148z" />
    <glyph glyph-name="afii62808" unicode="&#x641;" horiz-adv-x="840" arabic-form="initial" 
d="M635 966c35.333 -52 63.332 -116.331 83.999 -192.998s31 -164.334 31 -263.001c0 -84.667 -18.167 -159.667 -54.5 -225s-82.5 -118.333 -138.5 -159c-56 -42 -117.667 -73.5 -185 -94.5s-133.333 -31.5 -198 -31.5h-197v188h199c45.333 0 92 6 140 18s91 29.667 129 53
c42.667 26 75.5 56.5 98.5 91.5s34.5 73.833 34.5 116.5c-17.333 -10 -41.333 -19.333 -72 -28s-58.667 -13 -84 -13c-59.333 0 -111.833 8.33301 -157.5 25s-84.5 40.667 -116.5 72c-30.667 30 -53.5 63.833 -68.5 101.5s-22.5 77.167 -22.5 118.5
c0 95.333 32.833 181.666 98.5 258.999s138.834 116 219.501 116c48.667 0 95.667 -13 141 -39s85 -63.667 119 -113zM564.999 653.002c0 18.667 -4.00195 43.501 -12.002 74.501s-20.333 62.5 -37 94.5c-17.333 33.333 -36.833 59.666 -58.5 78.999s-45.167 29 -70.5 29
c-42.667 0 -79.667 -18 -111 -54s-47 -78 -47 -126c0 -39.333 18.333 -71.833 55 -97.5s85.334 -38.5 146.001 -38.5c24 0 47.833 3.5 71.5 10.5s44.834 16.5 63.501 28.5zM385.997 1281h-148v148h148v-148z" />
    <glyph glyph-name="afii62809" unicode="&#x641;" horiz-adv-x="1032" arabic-form="medial" 
d="M1055 0l-187.003 -0.000976562c-63.333 0 -126 8.83301 -188 26.5s-118 38.834 -168 63.501c-55.333 -26 -110.166 -47.5 -164.499 -64.5s-118.833 -25.5 -193.5 -25.5h-177v188h181c52 0 94.5 3.83301 127.5 11.5s53.167 12.167 60.5 13.5
c-4.66699 2.66699 -14.667 8.83398 -30 18.501s-33.333 25.5 -54 47.5c-21.333 22 -40.666 49.667 -57.999 83s-26 71 -26 113c0 102 30.5 187.333 91.5 256s139.833 103 236.5 103c92 0 170.333 -34 235 -102s97 -153 97 -255c0 -42 -8.16699 -80.333 -24.5 -115
s-35.166 -63 -56.499 -85c-20.667 -22 -38 -37.833 -52 -47.5s-23.667 -15.834 -29 -18.501c12 -4.66699 37.167 -9.66699 75.5 -15s75.833 -8 112.5 -8h191v-188zM590.997 341.999c22.667 19.333 41.834 38.833 57.501 58.5s23.5 44.5 23.5 74.5
c0 42.667 -15.333 81.334 -46 116.001s-70.667 52 -120 52c-46 0 -84.5 -16.833 -115.5 -50.5s-46.5 -72.834 -46.5 -117.501c0 -25.333 8.83301 -49.5 26.5 -72.5s36.5 -42.833 56.5 -59.5c22 -18 40 -31.167 54 -39.5s23.667 -13.833 29 -16.5l30.5 17.5
c14.333 8.33301 31.166 20.833 50.499 37.5zM589.997 1024h-148v148h148v-148z" />
    <glyph glyph-name="afii62813" unicode="&#x642;" horiz-adv-x="1821" arabic-form="final" 
d="M1843 0l-146.999 -0.00292969c-12 -88 -40.333 -159.833 -85 -215.5s-105 -99.167 -181 -130.5c-74.667 -30 -162 -50.5 -262 -61.5s-214.333 -16.5 -343 -16.5c-245.333 0 -428.833 43.333 -550.5 130s-182.5 210.667 -182.5 372c0 66.667 2.5 115.834 7.5 147.501
s8.16699 50.834 9.5 57.501h163v-11c-2 -12 -4.83301 -37 -8.5 -75s-5.5 -73.667 -5.5 -107c0 -46 9.83301 -89 29.5 -129s51.834 -74.333 96.501 -103c48.667 -32 110 -55.667 184 -71s160.333 -23 259 -23c243.333 0 416.666 18.5 519.999 55.5
s161.666 97.167 174.999 180.5h-58c-54 0 -108.5 5.5 -163.5 16.5s-104.5 29.5 -148.5 55.5s-79.667 60.5 -107 103.5s-41 96.5 -41 160.5c0 96.667 32.833 183.334 98.5 260.001s138.5 115 218.5 115c97.333 0 180.333 -50.167 249 -150.5s108 -224.5 118 -372.5h155v-188z
M1304 212.997c35.333 -10 71.167 -16.667 107.5 -20s70.166 -5 101.499 -5c-9.33301 104 -31.166 185.667 -65.499 245s-72.5 89 -114.5 89c-48 0 -86.167 -18.667 -114.5 -56s-42.5 -78.666 -42.5 -123.999c0 -34.667 12.667 -62.334 38 -83.001s55.333 -36 90 -46z
M1215 968.997h-148v148h148v-148zM1483 968.997h-148v148h148v-148z" />
    <glyph glyph-name="afii62811" unicode="&#x642;" horiz-adv-x="840" arabic-form="initial" 
d="M635 966c35.333 -52 63.332 -116.331 83.999 -192.998s31 -164.334 31 -263.001c0 -84.667 -18.167 -159.667 -54.5 -225s-82.5 -118.333 -138.5 -159c-56 -42 -117.667 -73.5 -185 -94.5s-133.333 -31.5 -198 -31.5h-197v188h199c45.333 0 92 6 140 18s91 29.667 129 53
c42.667 26 75.5 56.5 98.5 91.5s34.5 73.833 34.5 116.5c-17.333 -10 -41.333 -19.333 -72 -28s-58.667 -13 -84 -13c-59.333 0 -111.833 8.33301 -157.5 25s-84.5 40.667 -116.5 72c-30.667 30 -53.5 63.833 -68.5 101.5s-22.5 77.167 -22.5 118.5
c0 95.333 32.833 181.666 98.5 258.999s138.834 116 219.501 116c48.667 0 95.667 -13 141 -39s85 -63.667 119 -113zM564.999 653.002c0 18.667 -4.00195 43.501 -12.002 74.501s-20.333 62.5 -37 94.5c-17.333 33.333 -36.833 59.666 -58.5 78.999s-45.167 29 -70.5 29
c-42.667 0 -79.667 -18 -111 -54s-47 -78 -47 -126c0 -39.333 18.333 -71.833 55 -97.5s85.334 -38.5 146.001 -38.5c24 0 47.833 3.5 71.5 10.5s44.834 16.5 63.501 28.5zM292.997 1281h-148v148h148v-148zM560.997 1281h-148v148h148v-148z" />
    <glyph glyph-name="afii62812" unicode="&#x642;" horiz-adv-x="1032" arabic-form="medial" 
d="M1055 0l-187.003 -0.000976562c-63.333 0 -126 8.83301 -188 26.5s-118 38.834 -168 63.501c-55.333 -26 -110.166 -47.5 -164.499 -64.5s-118.833 -25.5 -193.5 -25.5h-177v188h181c52 0 94.5 3.83301 127.5 11.5s53.167 12.167 60.5 13.5
c-4.66699 2.66699 -14.667 8.83398 -30 18.501s-33.333 25.5 -54 47.5c-21.333 22 -40.666 49.667 -57.999 83s-26 71 -26 113c0 102 30.5 187.333 91.5 256s139.833 103 236.5 103c92 0 170.333 -34 235 -102s97 -153 97 -255c0 -42 -8.16699 -80.333 -24.5 -115
s-35.166 -63 -56.499 -85c-20.667 -22 -38 -37.833 -52 -47.5s-23.667 -15.834 -29 -18.501c12 -4.66699 37.167 -9.66699 75.5 -15s75.833 -8 112.5 -8h191v-188zM590.997 341.999c22.667 19.333 41.834 38.833 57.501 58.5s23.5 44.5 23.5 74.5
c0 42.667 -15.333 81.334 -46 116.001s-70.667 52 -120 52c-46 0 -84.5 -16.833 -115.5 -50.5s-46.5 -72.834 -46.5 -117.501c0 -25.333 8.83301 -49.5 26.5 -72.5s36.5 -42.833 56.5 -59.5c22 -18 40 -31.167 54 -39.5s23.667 -13.833 29 -16.5l30.5 17.5
c14.333 8.33301 31.166 20.833 50.499 37.5zM444.997 1024h-148v148h148v-148zM712.997 1024h-148v148h148v-148z" />
    <glyph glyph-name="afii62816" unicode="&#x643;" horiz-adv-x="1638" arabic-form="final" 
d="M1661 0l-139.002 -0.000976562c-40.667 0 -87.167 12.667 -139.5 38s-89.833 56.333 -112.5 93c-33.333 -42.667 -73.166 -75.167 -119.499 -97.5s-102.166 -33.5 -167.499 -33.5h-514c-49.333 0 -97.333 4 -144 12s-87 23 -121 45c-34.667 22.667 -62 54.334 -82 95.001
s-30 93 -30 157c0 26 1.16699 51.333 3.5 76s3.83301 39.667 4.5 45h168v-10c-1.33301 -10 -3.33301 -23 -6 -39s-4 -39.333 -4 -70c0 -46 18.833 -78 56.5 -96s89.167 -27 154.5 -27h518c39.333 0 73 8.16699 101 24.5s49.667 37.5 65 63.5c14.667 24 25.5 52 32.5 84
s10.5 67 10.5 105v1091h166v-1097c0 -80 20.333 -145.167 61 -195.5s88.667 -75.5 144 -75.5h94v-188zM923.998 734.999c0 -56.667 -33.668 -101.833 -101.001 -135.5s-154.666 -50.5 -261.999 -50.5v94c77.333 0 141.666 7 192.999 21s77 34.333 77 61
c0 12 -6.5 22 -19.5 30s-31.5 15 -55.5 21l-76 19c-35.333 8 -63.666 23 -84.999 45s-32 51.333 -32 88c0 46.667 23.167 84.5 69.5 113.5s113.5 43.5 201.5 43.5v-90c-62 0 -108 -5.83301 -138 -17.5s-45 -27.5 -45 -47.5c0 -12 6.66699 -22.5 20 -31.5
s32 -16.167 56 -21.5l84 -21c30 -6.66699 56.333 -19 79 -37s34 -46 34 -84zM1485 0z" />
    <glyph glyph-name="afii57410" unicode="&#x643;" horiz-adv-x="983" arabic-form="initial" 
d="M862 1333l-559 -268c-21.333 -10 -45.5 -22.5 -72.5 -37.5s-40.5 -27.833 -40.5 -38.5s12.5 -27 37.5 -49l85.5 -72l267 -219c64 -52.667 109.667 -103.834 137 -153.501s41 -100.167 41 -151.5c0 -46 -7.66699 -90.667 -23 -134s-38 -79.666 -68 -108.999
c-34 -33.333 -75.833 -58.5 -125.5 -75.5s-106.5 -25.5 -170.5 -25.5h-394v188h392c74 0 129.667 13.5 167 40.5s56 64.833 56 113.5c0 30 -13.833 64.833 -41.5 104.5s-81.5 92.167 -161.5 157.5l-274 225c-31.333 26 -58.333 52.5 -81 79.5s-34 56.5 -34 88.5
c-0 46.667 18.833 87 56.5 121s92.5 68.333 164.5 103l641 309v-197z" />
    <glyph glyph-name="afii62815" unicode="&#x643;" horiz-adv-x="1090" arabic-form="medial" 
d="M1112 0l-139.002 -0.00195312c-52.667 0 -104 9.5 -154 28.5s-91.667 45.833 -125 80.5c-34 -37.333 -76.167 -64.833 -126.5 -82.5s-109.166 -26.5 -176.499 -26.5h-414v188h412c74.667 0 130.5 13.5 167.5 40.5s55.5 64.833 55.5 113.5
c0 28.667 -18 63.834 -54 105.501s-92.333 93.834 -169 156.501l-274 225c-31.333 26 -58.333 52.5 -81 79.5s-34 56.5 -34 88.5c0 48.667 20.5 90.5 61.5 125.5s94.167 67.833 159.5 98.5l641 309v-197l-559 -268c-21.333 -10 -45.5 -22.5 -72.5 -37.5
s-40.5 -27.833 -40.5 -38.5s12.5 -27 37.5 -49l85.5 -72l267 -219c74.667 -62 126.334 -115.667 155.001 -161s43 -93.333 43 -144v-14c0 -43.333 17.833 -77.833 53.5 -103.5s81.5 -38.5 137.5 -38.5h143v-188zM982.998 -0.00195312z" />
    <glyph glyph-name="afii62819" unicode="&#x644;" horiz-adv-x="1481" arabic-form="final" 
d="M1503 0l-138.998 0.000976562c-24.667 0 -51.834 4.5 -81.501 13.5s-56.5 20.833 -80.5 35.5v-51c0 -136 -51.333 -240.333 -154 -313s-252 -109 -448 -109c-184.667 0 -315.5 32.5 -392.5 97.5s-115.5 177.833 -115.5 338.5c0 52 3.16699 104.667 9.5 158
s10.166 84.666 11.499 93.999h172v-10c-3.33301 -16 -8.66602 -51.5 -15.999 -106.5s-11 -99.5 -11 -133.5c0 -48 4.5 -86.833 13.5 -116.5s24.833 -54.167 47.5 -73.5c26 -21.333 62 -36.666 108 -45.999s104.333 -14 175 -14c136.667 0 243.167 21.667 319.5 65
s114.5 103.666 114.5 180.999v1546h166v-1130c0 -74.667 19.167 -133 57.5 -175s88.166 -63 149.499 -63h94v-188zM1325 0.000976562z" />
    <glyph glyph-name="afii62817" unicode="&#x644;" horiz-adv-x="575" arabic-form="initial" 
d="M442 453c0 -144.667 -33.833 -256.333 -101.5 -335s-160.167 -118 -277.5 -118h-83v188h88c39.333 0 73 8.16699 101 24.5s49.333 37.5 64 63.5c14.667 24 25.5 52 32.5 84s10.5 67 10.5 105v1091h166v-1103z" />
    <glyph glyph-name="afii62818" unicode="&#x644;" horiz-adv-x="719" arabic-form="medial" 
d="M741 0l-139 -0.000976562c-41.333 0 -86.833 11 -136.5 33s-85.5 52 -107.5 90c-23.333 -39.333 -58.333 -69.666 -105 -90.999s-92 -32 -136 -32h-140v188h95c60 0 108.667 20.667 146 62s56 100 56 176v1128h168v-1128c0 -72.667 18.5 -130.5 55.5 -173.5
s86.833 -64.5 149.5 -64.5h94v-188zM575 -0.000976562z" />
    <glyph glyph-name="afii62822" unicode="&#x645;" horiz-adv-x="1407" arabic-form="final" 
d="M1191 67c-24 21.333 -44.3291 42.832 -60.9961 64.499s-32.334 44.167 -47.001 67.5c-17.333 -56 -52.833 -105.833 -106.5 -149.5s-119.834 -65.5 -198.501 -65.5c-44.667 0 -85.834 6.66699 -123.501 20s-71.167 30.333 -100.5 51
c-28.667 20.667 -52.5 42.5 -71.5 65.5s-33.833 45.5 -44.5 67.5c-62.667 -171.333 -143 -306.666 -241 -405.999s-217 -168 -357 -206v207c101.333 24 183 65.667 245 125s115 137.666 159 234.999c26 59.333 50.667 127.333 74 204s49.333 144.667 78 204
c32.667 70 74 124.333 124 163s110.667 58 182 58s139 -19 203 -57s114 -91.333 150 -160l68 -126.5c27.333 -50.333 51 -90.166 71 -119.499c25.333 -36.667 51.5 -66 78.5 -88s54.833 -33 83.5 -33h73v-188h-73c-30.667 -0 -60.334 6.33301 -89.001 19s-54 28.667 -76 48z
M940.004 327.999c0 24 -3.83301 50.834 -11.5 80.501s-20.5 58.167 -38.5 85.5c-18 25.333 -40 46.333 -66 63s-58.333 25 -97 25c-54 0 -96.833 -16 -128.5 -48s-47.5 -72 -47.5 -120c0 -68.667 20.167 -126.834 60.5 -174.501s92.5 -71.5 156.5 -71.5
c54 0 96.167 15.667 126.5 47s45.5 69 45.5 113zM1210 0z" />
    <glyph glyph-name="afii62820" unicode="&#x645;" horiz-adv-x="1044" arabic-form="initial" 
d="M942 338c0 -102 -30.832 -186.499 -92.499 -253.499s-139.5 -100.5 -233.5 -100.5c-58.667 0 -116 13.5 -172 40.5s-102.333 65.833 -139 116.5c-34 -47.333 -73.833 -82.666 -119.5 -105.999s-104.167 -35 -175.5 -35h-33v188h37c66 0 116 20.667 150 62
s53 99.333 57 174c5.33301 101.333 36.666 184.666 93.999 249.999s132.666 98 225.999 98c52 0 101.833 -10 149.5 -30s90.5 -49 128.5 -87c38.667 -38.667 68.834 -84.834 90.501 -138.501s32.5 -113.167 32.5 -178.5zM776.001 328.001c0 24 -3.83301 50.833 -11.5 80.5
s-20.5 58.167 -38.5 85.5c-18 25.333 -40 46.333 -66 63s-58.333 25 -97 25c-34.667 0 -62.834 -5.33301 -84.501 -16s-40.167 -25.334 -55.5 -44.001c-12 -14.667 -21 -33.167 -27 -55.5s-9 -44.833 -9 -67.5c0 -26.667 4.66699 -53 14 -79s23.333 -50.667 42 -74
c19.333 -23.333 41.833 -42.166 67.5 -56.499s56.834 -21.5 93.501 -21.5c54 0 96.167 15.667 126.5 47s45.5 69 45.5 113z" />
    <glyph glyph-name="afii62821" unicode="&#x645;" horiz-adv-x="1243" arabic-form="medial" 
d="M817 53c-26 -21.333 -54.002 -38.166 -84.002 -50.499s-67.667 -18.5 -113 -18.5c-68 0 -129.5 15.5 -184.5 46.5s-98.5 67.833 -130.5 110.5c-26 -41.333 -64 -75.166 -114 -101.499s-118.667 -39.5 -206 -39.5h-8v188h33c62.667 0 111.5 18.167 146.5 54.5
s56.5 96.166 64.5 179.499c4.66699 50 13.667 94.667 27 134s33.333 76.333 60 111c25.333 32 57.833 57.5 97.5 76.5s86.5 28.5 140.5 28.5c80.667 0 152.5 -22.5 215.5 -67.5s114.833 -112.5 155.5 -202.5c42 -92.667 88.833 -168.167 140.5 -226.5
s97.834 -87.5 138.501 -87.5h69v-188h-65c-50 0 -98.167 14.833 -144.5 44.5s-91.833 80.5 -136.5 152.5c-10 -24.667 -23.667 -50.334 -41 -77.001s-37.666 -49 -60.999 -67zM775.998 326c0 69.333 -19.667 129.333 -59 180s-89.333 76 -150 76
c-56.667 0 -100.834 -15.5 -132.501 -46.5s-47.5 -72.167 -47.5 -123.5c0 -65.333 20.833 -122.333 62.5 -171s93.834 -73 156.501 -73c50.667 0 91.667 15.333 123 46s47 68 47 112zM1044 0z" />
    <glyph glyph-name="afii62825" unicode="&#x646;" horiz-adv-x="1542" arabic-form="final" 
d="M1565 0h-140c-24.667 -0 -52 4.33301 -82 13s-57 21.334 -81 38.001c0 -144 -52 -259.167 -156 -345.5s-246 -129.5 -426 -129.5c-82.667 0 -160.5 9.5 -233.5 28.5s-135.167 48.5 -186.5 88.5c-52.667 41.333 -93.834 94.666 -123.501 159.999s-44.5 145 -44.5 239
c0 66.667 4 130.334 12 191.001s13 100 15 118h182v-16c-7.33301 -24 -16.333 -66.833 -27 -128.5s-16 -117.167 -16 -166.5c0 -102.667 38.667 -182.667 116 -240s178 -86 302 -86c120.667 0 221.167 29.333 301.5 88s120.5 138 120.5 238c0 76 -4.66699 141.167 -14 195.5
s-15 86.833 -17 97.5v18h199c0 -60.667 20.333 -111.334 61 -152.001s88.334 -61 143.001 -61h95v-188zM754 569h-148v148h148v-148zM1356 0z" />
    <glyph glyph-name="afii62823" unicode="&#x646;" horiz-adv-x="573" arabic-form="initial" 
d="M440 453c0 -142 -33.667 -253 -101 -333s-160 -120 -278 -120h-84v188h89c68 0 119.667 24.333 155 73s53 116.667 53 204v252h166v-264zM332 968h-148v148h148v-148z" />
    <glyph glyph-name="afii62824" unicode="&#x646;" horiz-adv-x="719" arabic-form="medial" 
d="M741 0l-139 -0.000976562c-41.333 0 -86.833 11 -136.5 33s-85.5 52 -107.5 90c-23.333 -39.333 -58.333 -69.666 -105 -90.999s-92 -32 -136 -32h-140v188h95c60 0 108.667 20.667 146 62s56 100 56 176v121h168v-121c0 -72 18.833 -129.667 56.5 -173
s87.167 -65 148.5 -65h94v-188zM392 812.999h-148v148h148v-148z" />
    <glyph glyph-name="afii62828" unicode="&#x647;" horiz-adv-x="1176" arabic-form="final" 
d="M1198 0l-85.999 0.000976562c-60 0 -113.5 11.333 -160.5 34s-86.833 52 -119.5 88c-33.333 36.667 -58.5 77.834 -75.5 123.501s-25.5 90.834 -25.5 135.501c-34.667 -32.667 -79.834 -60.334 -135.501 -83.001s-116.834 -34 -183.501 -34
c-97.333 0 -176.666 30 -237.999 90s-92 138 -92 234c0 67.333 15.667 125.666 47 174.999s75.333 90.666 132 123.999c55.333 32.667 124 58 206 76s170 29.333 264 34l168 9v-541c0 -36.667 3 -70.667 9 -102s17.333 -60.333 34 -87
c16.667 -27.333 37.5 -48.833 62.5 -64.5s59.5 -23.5 103.5 -23.5h90v-188zM731.001 553.001v295.003c-68.667 -3.33301 -130 -10 -184 -20s-101 -24 -141 -42c-40.667 -18.667 -72.5 -44.334 -95.5 -77.001s-34.5 -72.334 -34.5 -119.001c0 -42.667 14.167 -79 42.5 -109
s67.5 -45 117.5 -45c51.333 0 105.5 12.667 162.5 38s101.167 51.666 132.5 78.999z" />
    <glyph glyph-name="afii57470" unicode="&#x647;" horiz-adv-x="1376" arabic-form="initial" 
d="M1286 344c0 -113.333 -31.165 -199.002 -93.498 -257.002s-146.5 -87 -252.5 -87h-963v188h248c-10.667 24.667 -21.167 56.5 -31.5 95.5s-15.5 74.833 -15.5 107.5c0 124.667 31 221 93 289s143 102 243 102c99.333 0 180.166 -33.5 242.499 -100.5
s93.5 -163.833 93.5 -290.5c0 -35.333 -3.16699 -70.666 -9.5 -105.999s-16.166 -67.666 -29.499 -96.999h127c50.667 0 93.667 14 129 42s53 65.333 53 112c0 62 -14.5 118.333 -43.5 169s-78.5 116 -148.5 196c-74 84 -134.667 139.667 -182 167s-107 41 -179 41h-153v189
h151c75.333 0 151.666 -23.167 228.999 -69.5s162.333 -122.833 255 -229.5c79.333 -91.333 138.666 -171.5 177.999 -240.5s59 -142.5 59 -220.5zM684.002 390.998c0 64 -15.333 113.833 -46 149.5s-72 53.5 -124 53.5c-52.667 0 -94.167 -17.5 -124.5 -52.5
s-45.5 -85.167 -45.5 -150.5c0 -64 15.333 -113.833 46 -149.5s72 -53.5 124 -53.5c52.667 0 94.167 17.5 124.5 52.5s45.5 85.167 45.5 150.5z" />
    <glyph glyph-name="afii62827" unicode="&#x647;" horiz-adv-x="1126" arabic-form="medial" 
d="M1149 0l-94.002 -0.000976562c-114 0 -231.667 -37.5 -353 -112.5s-233.666 -178.833 -336.999 -311.5h-154v430c-12.667 -2 -28 -3.5 -46 -4.5s-32.667 -1.5 -44 -1.5h-144v188h138h14.5c7 0 16.167 0.666992 27.5 2c9.33301 0.666992 19.333 1.33398 30 2.00098
s18.667 1.66699 24 3v225c0 118.667 29.833 214.167 89.5 286.5s136.834 108.5 231.501 108.5c78 0 143.667 -29.167 197 -87.5s80 -134.166 80 -227.499c0 -89.333 -38.333 -174.833 -115 -256.5s-184.334 -147.834 -323.001 -198.501v-201
c97.333 113.333 207.333 199 330 257s243.334 87 362.001 87h86v-188zM544.998 319.999c30.667 24 55.666 49.667 74.999 77s29 60.333 29 99c0 35.333 -9.66699 66 -29 92s-45.666 39 -78.999 39c-51.333 0 -92.5 -19.167 -123.5 -57.5s-46.5 -89.5 -46.5 -153.5v-185
c24.667 8 52.5 19 83.5 33s61.167 32.667 90.5 56z" />
    <glyph glyph-name="afii62829" unicode="&#x648;" horiz-adv-x="909" arabic-form="final" 
d="M932 0l-199.005 -0.000976562c-29.333 -91.333 -77.166 -165.666 -143.499 -222.999s-146.166 -101.666 -239.499 -132.999c-84.667 -28.667 -168.667 -47.167 -252 -55.5s-155.666 -12.5 -216.999 -12.5v188c50 0 110.667 2.66699 182 8s136.333 15.666 195 30.999
c78 21.333 140.667 48.333 188 81s83 72.667 107 120c-98 8 -178.167 27 -240.5 57s-112.166 66.667 -149.499 110c-36 41.333 -60.833 85.333 -74.5 132s-20.5 89 -20.5 127c0 100 32.5 187.5 97.5 262.5s138.167 112.5 219.5 112.5
c110.667 0 200.834 -57.667 270.501 -173s104.5 -263.333 104.5 -444h172v-188zM298.995 293.999c24 -24.667 59.165 -46.998 105.498 -66.998s107.5 -32.333 183.5 -37c-3.33301 133.333 -22.666 237.666 -57.999 312.999s-79.666 113 -132.999 113
c-46 0 -83.667 -18.833 -113 -56.5s-44 -78.834 -44 -123.501c0 -19.333 3.33301 -41.333 10 -66s23 -50 49 -76zM853.993 0.000976562z" />
    <glyph glyph-name="afii62830" unicode="&#x649;" horiz-adv-x="2042" arabic-form="final" 
d="M2064 0l-29.9961 -0.00292969c-48.667 0 -91.667 7.66699 -129 23s-71.666 36.333 -102.999 63c-32 27.333 -60.333 57.666 -85 90.999s-47.334 66.333 -68.001 99l-63 100.5c-24 38.333 -45.667 68.5 -65 90.5c-22.667 26 -47.167 46.833 -73.5 62.5
s-55.5 23.5 -87.5 23.5c-51.333 0 -90.166 -10.333 -116.499 -31s-39.5 -41.667 -39.5 -63c0 -20 18.167 -45.167 54.5 -75.5l93.5 -77.5c47.333 -39.333 83.666 -76.166 108.999 -110.499s38 -68.166 38 -101.499c0 -136.667 -64.5 -241.167 -193.5 -313.5
s-328.5 -108.5 -598.5 -108.5c-210.667 0 -365.834 35.833 -465.501 107.5s-149.5 184.834 -149.5 339.501c0 52.667 3.16699 104.334 9.5 155.001s10.166 81.667 11.499 93h172v-11c-2 -10.667 -7 -43 -15 -97s-12 -100 -12 -138c0 -92.667 33.667 -159.167 101 -199.5
s184 -60.5 350 -60.5c207.333 0 363.166 18 467.499 54s156.5 93 156.5 171c0 27.333 -16.667 54.833 -50 82.5l-97 77.5c-55.333 41.333 -93.833 78.833 -115.5 112.5s-32.5 67.834 -32.5 102.501c0 68 30.667 131.667 92 191s138 89 230 89c44 0 83.5 -8 118.5 -24
s66.5 -36.667 94.5 -62c26 -23.333 52.333 -53.333 79 -90s49.667 -70.334 69 -101.001l66 -100c26 -38.667 49 -68.667 69 -90c26 -27.333 52.167 -48.5 78.5 -63.5s58.166 -22.5 95.499 -22.5h34v-188z" />
    <glyph glyph-name="afii62833" unicode="&#x64a;" horiz-adv-x="2042" arabic-form="final" 
d="M2064 0l-30.0029 0.00195312c-48.667 0 -91.667 7.66699 -129 23s-71.666 36.333 -102.999 63c-32 27.333 -60.333 57.666 -85 90.999s-47.334 66.333 -68.001 99l-63 100.5c-24 38.333 -45.667 68.5 -65 90.5c-22.667 26 -47.167 46.833 -73.5 62.5
s-55.5 23.5 -87.5 23.5c-51.333 0 -90.166 -10.333 -116.499 -31s-39.5 -41.667 -39.5 -63c0 -20 17.833 -40 53.5 -60l94.5 -53c48 -26.667 84.5 -54.5 109.5 -83.5s37.5 -61.833 37.5 -98.5c0 -110 -61.167 -192.833 -183.5 -248.5s-325.166 -83.5 -608.499 -83.5
c-195.333 0 -346.666 38.333 -453.999 115s-161 191.334 -161 344.001c0 33.333 2.16699 68.166 6.5 104.499s6.83301 58.166 7.5 65.499h173v-10c-0.666992 -3.33301 -4.33398 -24 -11.001 -62s-10 -70 -10 -96c0 -87.333 38.333 -154.666 115 -201.999
s188.667 -71 336 -71c214.667 0 372.334 12 473.001 36s151 57.333 151 100c0 24.667 -15.667 46.5 -47 65.5s-64.666 37.5 -99.999 55.5c-45.333 23.333 -81.333 49.5 -108 78.5s-40 64.167 -40 105.5c0 68.667 30.5 132.5 91.5 191.5s137.833 88.5 230.5 88.5
c44 0 83.5 -8 118.5 -24s66.5 -36.667 94.5 -62c26 -23.333 52.333 -53.333 79 -90s49.667 -70.334 69 -101.001l66 -100c26 -38.667 49 -68.667 69 -90c26 -27.333 52.167 -48.5 78.5 -63.5s58.166 -22.5 95.499 -22.5h34v-188zM509.997 -275.998h147v-148h-147v148z
M777.997 -275.998h148v-148h-148v148z" />
    <glyph glyph-name="afii62831" unicode="&#x64a;" horiz-adv-x="573" arabic-form="initial" 
d="M440 453c0 -142 -33.667 -253 -101 -333s-160 -120 -278 -120h-84v188h89c68 0 119.667 24.333 155 73s53 116.667 53 204v252h166v-264zM130 -310h-148v148h148v-148zM398 -310h-148v148h148v-148z" />
    <glyph glyph-name="afii62832" unicode="&#x64a;" horiz-adv-x="719" arabic-form="medial" 
d="M741 0l-139 -0.000976562c-41.333 0 -86.833 11 -136.5 33s-85.5 52 -107.5 90c-23.333 -39.333 -58.333 -69.666 -105 -90.999s-92 -32 -136 -32h-140v188h95c60 0 108.667 20.667 146 62s56 100 56 176v121h168v-121c0 -72 18.833 -129.667 56.5 -173
s87.167 -65 148.5 -65h94v-188zM181 -310.001h-148v148h148v-148zM449 -310.001h-148v148h148v-148z" />
    <glyph glyph-name=".notdef" horiz-adv-x="2048" 
d="M256 0v1536h1536v-1536h-1536zM384 128h1280v1280h-1280v-1280z" />
    <glyph glyph-name="space" unicode=" " horiz-adv-x="640" 
 />
    <glyph glyph-name="space" unicode="&#xa0;" horiz-adv-x="640" 
 />
    <glyph glyph-name="exclam" unicode="!" horiz-adv-x="680" 
d="M452 1489l-28 -1079h-166l-30 1079h224zM442 0h-204v211h204v-211z" />
    <glyph glyph-name="quotedbl" unicode="&#x22;" horiz-adv-x="822" 
d="M708 1556l-43 -579h-132l-43 579h218zM332 1556l-43 -579h-132l-43 579h218z" />
    <glyph glyph-name="numbersign" unicode="#" horiz-adv-x="1490" 
d="M1348 932h-293l-92 -376h268v-135h-303l-105 -421h-129l105 421h-270l-105 -421h-129l105 421h-258v135h293l92 376h-268v135h303l105 422h129l-105 -422h270l105 422h129l-105 -422h258v-135zM929 934h-274l-94 -380h274z" />
    <glyph glyph-name="dollar" unicode="$" 
d="M1024 380c0 -98 -37.5 -182.165 -112.5 -252.498s-169.5 -112.5 -283.5 -126.5v-362h-114v357c-72 0.666992 -144.5 9 -217.5 25s-136.5 37.333 -190.5 64v202h15c52.667 -39.333 112 -71.333 178 -96s137.667 -40.334 215 -47.001v432l-61 14.5
c-24 5.66699 -44.333 11.167 -61 16.5c-100 27.333 -171.5 68.666 -214.5 123.999s-64.5 123.333 -64.5 204c0 94.667 37 177 111 247s170.667 110.667 290 122v272h114v-270c60.667 -2 123.5 -10.5 188.5 -25.5s118.167 -31.5 159.5 -49.5v-198h-15
c-46.667 32 -97.834 60 -153.501 84s-115.5 38.667 -179.5 44v-430c22 -4.66699 42.5 -9.5 61.5 -14.5s35.5 -9.16699 49.5 -12.5c90.667 -21.333 160.834 -58.333 210.501 -111s74.5 -123.667 74.5 -213zM514 746.002v413.998c-60 -5.33301 -110.333 -24.833 -151 -58.5
s-61 -80.5 -61 -140.5c0 -59.333 14.833 -105.166 44.5 -137.499s85.5 -58.166 167.5 -77.499zM835 354c0 62.667 -16 109 -48 139s-85 52.667 -159 68v-415c68 8 119.5 28.5 154.5 61.5s52.5 81.833 52.5 146.5z" />
    <glyph glyph-name="percent" unicode="%" horiz-adv-x="2000" 
d="M807 1076c0 -150 -30.167 -261.167 -90.5 -333.5s-147.5 -108.5 -261.5 -108.5c-116 0 -203.833 36.667 -263.5 110s-89.5 183.666 -89.5 330.999c0 149.333 30.333 260.333 91 333s148 109 262 109c116 0 203.667 -36.667 263 -110s89 -183.666 89 -330.999zM1473 1489
l-780 -1489h-165l780 1489h165zM1897 413c0 -150 -30.167 -261.167 -90.5 -333.5s-147.5 -108.5 -261.5 -108.5c-116 0 -203.833 36.667 -263.5 110s-89.5 183.666 -89.5 330.999c0 149.333 30.333 260.333 91 333s148 109 262 109c116 0 203.667 -36.667 263 -110
s89 -183.666 89 -330.999zM629 1076c0 101.333 -11.833 178 -35.5 230s-69.834 78 -138.501 78s-115 -26.333 -139 -79s-36 -129.334 -36 -230.001c0 -100 11.333 -176.333 34 -229s69.667 -79 141 -79c68.667 0 114.834 26.333 138.501 79s35.5 129.334 35.5 230.001z
M1719 413c0 101.333 -11.833 178 -35.5 230s-69.834 78 -138.501 78s-115 -26.333 -139 -79s-36 -129.334 -36 -230.001c0 -100 11.333 -176.333 34 -229s69.667 -79 141 -79c68.667 0 114.834 26.333 138.501 79s35.5 129.334 35.5 230.001z" />
    <glyph glyph-name="ampersand" unicode="&#x26;" horiz-adv-x="1380" 
d="M1445 0l-256 0.00292969l-204 213c-68 -86.667 -137.833 -149 -209.5 -187s-152.834 -57 -243.501 -57c-134.667 0 -245.834 40.5 -333.501 121.5s-131.5 187.167 -131.5 318.5c0 57.333 8 108.333 24 153s37.333 85 64 121c26 34.667 56 65.167 90 91.5
s66.667 49.166 98 68.499c-67.333 45.333 -117.666 93 -150.999 143s-50 113 -50 189c0 47.333 9.5 91.166 28.5 131.499s43.833 75.833 74.5 106.5c32 31.333 73.5 57 124.5 77s106.833 30 167.5 30c110.667 0 201 -29.167 271 -87.5s105 -132.166 105 -221.499
c0 -32.667 -4.16699 -66.5 -12.5 -101.5s-23.5 -68.833 -45.5 -101.5s-50.833 -63.334 -86.5 -92.001s-83.167 -53.667 -142.5 -75l352 -362c9.33301 54.667 15 114.167 17 178.5s3 148.166 3 251.499h195v-96c0 -64 -8.16699 -136.167 -24.5 -216.5
s-43.166 -156.5 -80.499 -228.5zM898 301.003l-459.999 471.001c-16.667 -10.667 -33.334 -23.334 -50.001 -38.001s-35 -36.667 -55 -66c-16 -23.333 -30.167 -53.833 -42.5 -91.5s-18.5 -77.5 -18.5 -119.5c0 -94.667 28.167 -172.5 84.5 -233.5s132.5 -91.5 228.5 -91.5
c64 0 121.667 13.5 173 40.5s98 69.833 140 128.5zM532.001 912.004c37.333 12.667 68.168 29.668 92.501 51.001s43.166 44.666 56.499 69.999c12 23.333 21 48 27 74s9 54 9 84c0 64.667 -18.833 114.667 -56.5 150s-81.5 53 -131.5 53c-59.333 0 -106 -20 -140 -60
s-51 -90 -51 -150c0 -26.667 2.5 -49.5 7.5 -68.5s15.5 -41.167 31.5 -66.5c14 -20.667 33.5 -42.667 58.5 -66s57.167 -47 96.5 -71z" />
    <glyph glyph-name="quotesingle" unicode="'" horiz-adv-x="432" 
d="M327 1556l-43 -579h-136l-43 579h222z" />
    <glyph glyph-name="parenleft" unicode="(" horiz-adv-x="784" 
d="M710 -412l-228.998 0.00292969c-116 138 -207.167 284 -273.5 438s-99.5 336 -99.5 546c0 205.333 32.833 386.166 98.5 542.499s157.167 303.5 274.5 441.5h229v-10c-54 -48.667 -105.5 -104.834 -154.5 -168.501s-94.5 -137.834 -136.5 -222.501
c-40 -82 -72.5 -172.333 -97.5 -271s-37.5 -202.667 -37.5 -312c0 -114 12.167 -218.333 36.5 -313s57.166 -184.667 98.499 -270c40 -82 85.667 -156.167 137 -222.5s102.666 -122.5 153.999 -168.5v-10z" />
    <glyph glyph-name="parenright" unicode=")" horiz-adv-x="784" 
d="M676 572c0 -206 -32.998 -387.001 -98.998 -543.001s-157.333 -303 -274 -441h-229v10c51.333 46 103 102.5 155 169.5s97.333 140.833 136 221.5c41.333 86 74.166 176.833 98.499 272.5s36.5 199.167 36.5 310.5c0 110 -12.333 214 -37 312
s-57.334 188.333 -98.001 271s-86.667 157 -138 223s-102.333 122 -153 168v10h229c116 -138 207.167 -284.667 273.5 -440s99.5 -336.666 99.5 -543.999z" />
    <glyph glyph-name="asterisk" unicode="*" 
d="M1007 887l-65 -110l-327 217l7 -364h-125l6 364l-325 -218l-66 110l354 207l-354 207l66 110l326 -219l-7 365h125l-8 -365l328 218l65 -110l-354 -205z" />
    <glyph glyph-name="plus" unicode="+" horiz-adv-x="1490" 
d="M1333 572h-505v-505h-166v505h-505v160h505v505h166v-505h505v-160z" />
    <glyph glyph-name="comma" unicode="," horiz-adv-x="620" 
d="M500 285l-280 -655h-146l176 655h250z" />
    <glyph glyph-name="hyphen" unicode="-" horiz-adv-x="744" 
d="M654 561h-564v181h564v-181z" />
    <glyph glyph-name="hyphen" unicode="&#xad;" horiz-adv-x="744" 
d="M654 561h-564v181h564v-181z" />
    <glyph glyph-name="period" unicode="." horiz-adv-x="620" 
d="M429 0h-239v285h239v-285z" />
    <glyph glyph-name="slash" unicode="/" horiz-adv-x="783" 
d="M728 1556l-583 -1880h-169l580 1880h172z" />
    <glyph glyph-name="zero" unicode="0" 
d="M1035 745c0 -267.333 -38.833 -463.498 -116.5 -588.498s-197.5 -187.5 -359.5 -187.5c-164 0 -284.333 63.667 -361 191s-115 321.666 -115 582.999c0 268.667 38.833 465.167 116.5 589.5s197.5 186.5 359.5 186.5c164 0 284.333 -64.333 361 -193
s115 -322.334 115 -581.001zM779 291.002c19.333 49.333 33.002 111.666 41.002 186.999s12 164.333 12 267c0 102 -4 190.667 -12 266s-22 138 -42 188c-20 50.667 -47.5 89.167 -82.5 115.5s-80.5 39.5 -136.5 39.5c-55.333 0 -100.833 -13.167 -136.5 -39.5
s-63.834 -65.5 -84.501 -117.5c-20 -50.667 -33.667 -114.667 -41 -192s-11 -164.666 -11 -261.999c0 -104 3.16699 -191 9.5 -261s20.166 -132.667 41.499 -188c19.333 -51.333 46.833 -90.833 82.5 -118.5s82.167 -41.5 139.5 -41.5c55.333 0 100.833 13.167 136.5 39.5
s63.5 65.5 83.5 117.5z" />
    <glyph glyph-name="one" unicode="1" 
d="M952 0h-726v152h270v998h-270v136c102 0 177.167 14.5 225.5 43.5s75.5 83.833 81.5 164.5h155v-1342h264v-152z" />
    <glyph glyph-name="two" unicode="2" 
d="M1028 0h-918.999v209l187 180c58.667 57.333 116 117 172 179c113.333 124.667 190.666 224.5 231.999 299.5s62 152.5 62 232.5c0 41.333 -6.5 77.666 -19.5 108.999s-30.833 57.333 -53.5 78c-23.333 20 -50.333 35 -81 45s-64.334 15 -101.001 15
c-35.333 0 -71.166 -4.5 -107.499 -13.5s-71.166 -20.167 -104.499 -33.5c-28 -11.333 -55 -25 -81 -41s-47 -29.667 -63 -41h-11v212c41.333 20.667 98.833 40.834 172.5 60.501s143.5 29.5 209.5 29.5c138.667 0 247.334 -36.833 326.001 -110.5s118 -173.5 118 -299.5
c0 -58 -6.83301 -111.667 -20.5 -161s-32.5 -95 -56.5 -137c-24.667 -43.333 -54.334 -86.333 -89.001 -129s-71.334 -84.667 -110.001 -126c-62.667 -68 -132.5 -138.667 -209.5 -212l-184.5 -174h732v-171z" />
    <glyph glyph-name="three" unicode="3" 
d="M511 1347c-36 0 -71.9971 -4.33203 -107.997 -12.999s-71.333 -20 -106 -34c-32 -13.333 -59.833 -27.333 -83.5 -42s-44.834 -28.334 -63.501 -41.001h-12v211c43.333 23.333 102.166 44.5 176.499 63.5s145.166 28.5 212.499 28.5s126.166 -6.83301 176.499 -20.5
s95.833 -34.834 136.5 -63.501c44 -32 77.167 -70.667 99.5 -116s33.5 -98.333 33.5 -159c0 -82 -27 -154 -81 -216s-118.667 -101.333 -194 -118v-14c31.333 -6 64.833 -16.333 100.5 -31s68.834 -36.334 99.501 -65.001s55.667 -65.5 75 -110.5s29 -99.833 29 -164.5
c0 -67.333 -11.5 -129.166 -34.5 -185.499s-55.5 -106.166 -97.5 -149.499c-43.333 -45.333 -95.666 -79.666 -156.999 -102.999s-131 -35 -209 -35c-74.667 0 -148.667 9 -222 27s-135 39.667 -185 65v211h14c42 -30.667 98.333 -60 169 -88s141.334 -42 212.001 -42
c40.667 0 81.5 6.5 122.5 19.5s75.167 34.167 102.5 63.5c26.667 29.333 47 61.666 61 96.999s21 80 21 134s-7.83301 98.333 -23.5 133s-37.5 62 -65.5 82s-61.167 33.833 -99.5 41.5s-79.833 11.5 -124.5 11.5h-85v166h66c90 0 163.167 21.333 219.5 64
s84.5 104.667 84.5 186c0 37.333 -7.33301 69.5 -22 96.5s-33.334 48.5 -56.001 64.5c-25.333 17.333 -53.333 29.333 -84 36s-63.334 10 -98.001 10z" />
    <glyph glyph-name="four" unicode="4" 
d="M1067 512h-177v-512h-192v512h-658v210l666 767h184v-817h177v-160zM698 672v582l-502 -582h502z" />
    <glyph glyph-name="five" unicode="5" 
d="M1011 474c0 -72 -11.501 -138.665 -34.501 -199.998s-55.167 -114.333 -96.5 -159c-42 -45.333 -94.167 -81 -156.5 -107s-132.166 -39 -209.499 -39c-71.333 0 -141.5 7.83301 -210.5 23.5s-128.833 36.167 -179.5 61.5v211h14
c15.333 -11.333 37.333 -24.166 66 -38.499s60.334 -27.833 95.001 -40.5c39.333 -14 75.333 -24.833 108 -32.5s69.334 -11.5 110.001 -11.5c40 0 79 7.16699 117 21.5s70.667 37.5 98 69.5c24.667 29.333 43.5 63.666 56.5 102.999s19.5 85.666 19.5 138.999
c0 52.667 -7.16699 96 -21.5 130s-35.166 62 -62.499 84c-28.667 25.333 -63.834 43.166 -105.501 53.499s-88.167 15.5 -139.5 15.5c-54 0 -108.333 -4.16699 -163 -12.5s-98.334 -16.166 -131.001 -23.499v767h817v-175h-624v-396c24 2.66699 47.667 4.66699 71 6
s44.666 2 63.999 2c76 0 140.333 -6.33301 193 -19s103.334 -37.334 152.001 -74.001c49.333 -37.333 87.166 -84 113.499 -140s39.5 -129 39.5 -219z" />
    <glyph glyph-name="six" unicode="6" 
d="M1051 483c0 -76.667 -12.668 -147.333 -38.001 -212s-59.333 -118.667 -102 -162c-44.667 -46 -94.667 -80.833 -150 -104.5s-116.333 -35.5 -183 -35.5c-67.333 0 -128.5 11.333 -183.5 34s-103.5 56.334 -145.5 101.001c-51.333 54 -91.5 126.167 -120.5 216.5
s-43.5 201.5 -43.5 333.5c0 129.333 13.333 246.166 40 350.499s67.667 195.166 123 272.499c54 75.333 123.667 134.166 209 176.499s184 63.5 296 63.5c33.333 0 64.333 -1.66699 93 -5s54 -8.66602 76 -15.999v-191h-9c-18 10 -44 19.167 -78 27.5
s-70.333 12.5 -109 12.5c-124 0 -224.167 -41.833 -300.5 -125.5s-121.5 -207.834 -135.5 -372.501c47.333 33.333 96 59 146 77s104.667 27 164 27c58 0 108.833 -5.83301 152.5 -17.5s89.167 -35.167 136.5 -70.5c54.667 -41.333 95.334 -93.666 122.001 -156.999
s40 -137.666 40 -222.999zM847.999 475.001c0 61.333 -7.99902 112.669 -23.999 154.002s-42 76.666 -78 105.999c-26 21.333 -55.5 35.333 -88.5 42s-66.833 10 -101.5 10c-46.667 0 -92 -7 -136 -21s-87.333 -34.333 -130 -61
c-1.33301 -14.667 -2.33301 -28.834 -3 -42.501s-1 -30.834 -1 -51.501c0 -103.333 10.167 -186.666 30.5 -249.999s45.5 -111.333 75.5 -144c28.667 -31.333 58.167 -53.333 88.5 -66s63.166 -19 98.499 -19c80 0 144.833 28.667 194.5 86s74.5 143 74.5 257z" />
    <glyph glyph-name="seven" unicode="7" 
d="M1044 1266l-644 -1266h-213l682 1314h-770v175h945v-223z" />
    <glyph glyph-name="eight" unicode="8" 
d="M811 1142c0 66.667 -22.333 122.333 -67 167s-106.667 67 -186 67c-72.667 0 -132.167 -20 -178.5 -60s-69.5 -94 -69.5 -162c0 -49.333 11.833 -91 35.5 -125s59.167 -64.667 106.5 -92c20.667 -11.333 52.167 -27 94.5 -47s80.833 -35.667 115.5 -47
c58 44.667 97.333 90.5 118 137.5s31 100.833 31 161.5zM839 395.999c0 61.333 -12 110.001 -36 146.001s-70.333 72.667 -139 110c-22.667 12.667 -52.834 26.334 -90.501 41.001l-127.5 52c-55.333 -36.667 -97.666 -81.834 -126.999 -135.501s-44 -114.834 -44 -183.501
c0 -90 27.167 -164.333 81.5 -223s122.5 -88 204.5 -88c84 0 151.333 25.167 202 75.5s76 118.833 76 205.5zM559 -34c-74 0 -141.334 10.998 -202.001 32.998s-112.334 53.667 -155.001 95c-42 40 -73.833 87.5 -95.5 142.5s-32.5 113.167 -32.5 174.5
c0 80.667 21.5 154.834 64.5 222.501s105.5 121.5 187.5 161.5v6c-73.333 42.667 -127.666 89.334 -162.999 140.001s-53 114 -53 190c0 112 42.333 205.333 127 280s192 112 322 112c135.333 0 243.833 -35.5 325.5 -106.5s122.5 -161.833 122.5 -272.5
c0 -66.667 -19.5 -132.667 -58.5 -198s-95.167 -116.333 -168.5 -153v-6c86.667 -40.667 152.334 -90 197.001 -148s67 -132.667 67 -224c0 -127.333 -46.167 -234 -138.5 -320s-207.833 -129 -346.5 -129z" />
    <glyph glyph-name="nine" unicode="9" 
d="M832 877c0 101.333 -9.33203 183.833 -27.999 247.5s-44.334 112.834 -77.001 147.501c-29.333 32 -59 54 -89 66s-63 18 -99 18c-82 0 -147.333 -29.333 -196 -88s-73 -143.667 -73 -255c0 -62.667 8 -114.334 24 -155.001s42 -75.667 78 -105
c25.333 -20.667 54 -34.5 86 -41.5s66.333 -10.5 103 -10.5c42.667 0 88.667 7.5 138 22.5s92.333 34.833 129 59.5c0.666992 10 1.5 23.167 2.5 39.5s1.5 34.5 1.5 54.5zM67.001 1005c0 76.667 12.4941 146.667 37.4941 210s59.167 118 102.5 164
c41.333 44 91.833 78.333 151.5 103s120.167 37 181.5 37c68.667 0 130.834 -11.5 186.501 -34.5s103.834 -56.167 144.501 -99.5c51.333 -54.667 91.166 -126.334 119.499 -215.001s42.5 -200.667 42.5 -336c0 -123.333 -13.833 -240.166 -41.5 -350.499
s-68.5 -201.833 -122.5 -274.5c-57.333 -77.333 -126.166 -136.333 -206.499 -177s-179.5 -61 -297.5 -61c-26.667 0 -55 1.5 -85 4.5s-58 8.5 -84 16.5v191h10c16.667 -9.33301 42.667 -18.333 78 -27s71.333 -13 108 -13c130.667 0 233.334 43 308.001 129
s117 209 127 369c-53.333 -36 -104.166 -62.333 -152.499 -79s-100.833 -25 -157.5 -25c-55.333 0 -105.666 6 -150.999 18s-91 35.333 -137 70c-53.333 40.667 -93.666 92.167 -120.999 154.5s-41 137.5 -41 225.5z" />
    <glyph glyph-name="colon" unicode=":" horiz-adv-x="724" 
d="M482 832h-239v285h239v-285zM482 0h-239v285h239v-285z" />
    <glyph glyph-name="semicolon" unicode=";" horiz-adv-x="724" 
d="M482 832h-239v285h239v-285zM548 285l-280 -655h-146l176 655h250z" />
    <glyph glyph-name="semicolon" unicode="&#x37e;" horiz-adv-x="724" 
d="M482 832h-239v285h239v-285zM548 285l-280 -655h-146l176 655h250z" />
    <glyph glyph-name="less" unicode="&#x3c;" horiz-adv-x="1490" 
d="M1275 79l-1074 513v120l1074 513v-178l-833 -395l833 -395v-178z" />
    <glyph glyph-name="equal" unicode="=" horiz-adv-x="1490" 
d="M1298 782h-1106v160h1106v-160zM1298 362h-1106v160h1106v-160z" />
    <glyph glyph-name="greater" unicode="&#x3e;" horiz-adv-x="1490" 
d="M1289 592l-1074 -513v178l833 395l-833 395v178l1074 -513v-120z" />
    <glyph glyph-name="question" unicode="?" horiz-adv-x="970" 
d="M912 1139c0 -65.333 -10.833 -123.497 -32.5 -174.497s-50.5 -95.833 -86.5 -134.5s-76.833 -74.334 -122.5 -107.001s-93.834 -64.334 -144.501 -95.001v-228h-179v305l130.5 81.5c49.667 31.667 88.5 61.167 116.5 88.5c36 34 64 71.167 84 111.5s30 86.166 30 137.499
c0 75.333 -23.667 131.5 -71 168.5s-109 55.5 -185 55.5c-66.667 0 -129.5 -11.167 -188.5 -33.5s-106.833 -45.5 -143.5 -69.5h-11v204c44.667 18 101 34.167 169 48.5s132.333 21.5 193 21.5c136.667 0 244.334 -34.833 323.001 -104.5s118 -161.5 118 -275.5z
M542 0.00292969h-204v211h204v-211z" />
    <glyph glyph-name="at" unicode="@" horiz-adv-x="1862" 
d="M1739 663c0 -92.667 -12.666 -182.166 -37.999 -268.499s-61.666 -165.5 -108.999 -237.5h-421l-25 116c-44.667 -38 -85.834 -68.167 -123.501 -90.5s-88.834 -33.5 -153.501 -33.5c-102.667 0 -186.667 41.167 -252 123.5s-98 201.833 -98 358.5
s40.167 278.667 120.5 366s172.166 131 275.499 131c48 0 89.333 -6 124 -18s69.667 -28 105 -48v48h159v-842h227c25.333 47.333 43.5 108.666 54.5 183.999s16.5 143.666 16.5 204.999c0 218 -55.5 393.5 -166.5 526.5s-270.5 199.5 -478.5 199.5
c-197.333 0 -360.166 -71.833 -488.499 -215.5s-192.5 -317.834 -192.5 -522.501c0 -220 62.333 -398.167 187 -534.5s287.667 -204.5 489 -204.5c54 0 110.833 3.66699 170.5 11s116.167 19 169.5 35v-142c-56 -13.333 -112.833 -22.666 -170.5 -27.999
s-114.5 -8 -170.5 -8c-236 0 -431.333 81 -586 243s-232 372 -232 630c0 244.667 79.833 451 239.5 619s354.167 252 583.5 252c245.333 0 437.333 -79.167 576 -237.5s208 -364.166 208 -617.499zM1142 408.001l-0.00195312 518.002
c-37.333 19.333 -71.666 33.166 -102.999 41.499s-64 12.5 -98 12.5c-75.333 0 -136 -28.167 -182 -84.5s-69 -143.5 -69 -261.5c0 -106.667 17.333 -188.334 52 -245.001s90 -85 166 -85c40.667 0 80.834 9.66699 120.501 29s77.5 44.333 113.5 75z" />
    <glyph glyph-name="A" unicode="A" horiz-adv-x="1228" 
d="M-10 0l502 1489h244l502 -1489h-209l-135 416h-569l-135 -416h-200zM839 585l-230 702l-229 -702h459z" />
    <glyph glyph-name="B" unicode="B" horiz-adv-x="1207" 
d="M1161 457c0 -74 -14.001 -139.333 -42.001 -196s-65.667 -103.334 -113 -140.001c-56 -44 -116 -75.167 -180 -93.5s-146.667 -27.5 -248 -27.5h-427v1489h395c106 0 185.5 -3.5 238.5 -10.5s103.833 -23.5 152.5 -49.5c53.333 -28.667 92.333 -66.167 117 -112.5
s37 -100.833 37 -163.5c0 -70 -18.5 -132.667 -55.5 -188s-88.167 -98.666 -153.5 -129.999v-8c88.667 -24 157.334 -67.833 206.001 -131.5s73 -143.167 73 -238.5zM884.999 1125c0 36 -6 67.1689 -18 93.502s-31.333 47.166 -58 62.499c-32 18 -67.667 29 -107 33
s-93.666 6 -162.999 6h-190v-436h225c62 0 107.667 3.16699 137 9.5s59.666 19.5 90.999 39.5c30 19.333 51.333 44.666 64 75.999s19 70 19 116zM954.999 449.002c0 56 -7.99902 102.167 -23.999 138.5s-48.333 67.166 -97 92.499
c-31.333 16.667 -65.5 27.334 -102.5 32.001s-89.5 7 -157.5 7h-225v-550h161c86.667 0 155 4 205 12s94 25 132 51c37.333 26 64.666 55.5 81.999 88.5s26 75.833 26 128.5z" />
    <glyph glyph-name="C" unicode="C" horiz-adv-x="1230" 
d="M733 -27c-97.333 0 -186.836 16.3291 -268.503 48.9961s-152.167 81.334 -211.5 146.001s-105.333 145.334 -138 242.001s-49 207.667 -49 333c0 124.667 15.833 233.334 47.5 326.001s77.834 173.334 138.501 242.001c59.333 66.667 129.666 117.5 210.999 152.5
s172.333 52.5 273 52.5c50 0 96.833 -3.66699 140.5 -11s84.167 -16.666 121.5 -27.999c32 -10 64.833 -22.5 98.5 -37.5s66.834 -31.5 99.501 -49.5v-239h-16c-17.333 16 -39.666 35.333 -66.999 58s-60.666 45 -99.999 67c-38 20.667 -79.333 37.667 -124 51
s-96.334 20 -155.001 20c-63.333 0 -123.333 -13 -180 -39s-106.334 -64.333 -149.001 -115c-42 -50.667 -74.667 -114.334 -98 -191.001s-35 -163 -35 -259c0 -102 12.333 -189.833 37 -263.5s58.334 -135.834 101.001 -186.501c41.333 -49.333 90 -86.5 146 -111.5
s115.333 -37.5 178 -37.5c57.333 0 110.333 7 159 21s92 31.667 130 53c36.667 20.667 68.334 41.834 95.001 63.501s47.667 40.167 63 55.5h15v-236l-92.5 -44c-29 -14 -64.167 -27.667 -105.5 -41c-43.333 -14 -83.5 -24.667 -120.5 -32s-85.167 -11 -144.5 -11z" />
    <glyph glyph-name="D" unicode="D" horiz-adv-x="1389" 
d="M1325 743c0 -136 -27.499 -258.668 -82.499 -368.001s-128.833 -194.666 -221.5 -255.999c-75.333 -47.333 -151.833 -79 -229.5 -95s-176.834 -24 -297.501 -24h-343v1489h339c140 0 249.833 -10.5 329.5 -31.5s147.5 -49.833 203.5 -86.5
c96 -63.333 170.333 -147.5 223 -252.5s79 -230.167 79 -375.5zM1119 745.999c0 114.667 -19.001 212.499 -57.001 293.499s-94.333 144.167 -169 189.5c-52.667 32 -109 55 -169 69s-134.667 21 -224 21h-151v-1149h151c88 0 165 7 231 21s126.333 40 181 78
c68.667 46.667 120.334 108.834 155.001 186.501s52 174.5 52 290.5z" />
    <glyph glyph-name="E" unicode="E" horiz-adv-x="1149" 
d="M151 0v1489h931v-176h-733v-408h683v-176h-683v-553h733v-176h-931z" />
    <glyph glyph-name="F" unicode="F" horiz-adv-x="1068" 
d="M1042 1313h-693v-420h664v-176h-664v-717h-198v1489h891v-176z" />
    <glyph glyph-name="G" unicode="G" horiz-adv-x="1367" 
d="M774 -29c-105.333 0 -201.67 16 -289.003 48s-162.333 80.667 -225 146c-62.667 66 -110.667 147.667 -144 245s-50 209.333 -50 336c0 120 16.833 227.5 50.5 322.5s81.834 176.167 144.501 243.5c60.667 65.333 135.334 115.666 224.001 150.999s185.667 53 291 53
c50 0 98 -3.66699 144 -11s90 -17.333 132 -30c33.333 -10 70.5 -23.833 111.5 -41.5s74.167 -32.834 99.5 -45.501v-239h-17c-24.667 22 -50.167 42.833 -76.5 62.5s-63.5 40.834 -111.5 63.501c-40 20 -86 36.667 -138 50s-108 20 -168 20
c-143.333 0 -259.166 -54 -347.499 -162s-132.5 -251.667 -132.5 -431c0 -100 11.667 -187.333 35 -262s57 -138 101 -190c42.667 -51.333 94.167 -90.5 154.5 -117.5s128.166 -40.5 203.499 -40.5c56 0 111.667 4 167 12s102 20 140 36v385h-344v174h540v-650
c-25.333 -11.333 -59.166 -25.666 -101.499 -42.999s-81.833 -31 -118.5 -41c-48.667 -14.667 -92.667 -25.667 -132 -33s-87 -11 -143 -11z" />
    <glyph glyph-name="H" unicode="H" horiz-adv-x="1383" 
d="M1232 0h-198v729h-685v-729h-198v1489h198v-584h685v584h198v-1489z" />
    <glyph glyph-name="I" unicode="I" horiz-adv-x="764" 
d="M671 0h-578v152h190v1185h-190v152h578v-152h-190v-1185h190v-152z" />
    <glyph glyph-name="J" unicode="J" horiz-adv-x="853" 
d="M712 387c0 -130.667 -39.8301 -231.336 -119.497 -302.003s-186.5 -106 -320.5 -106c-32 0 -74.833 2.83301 -128.5 8.5s-98.5 12.5 -134.5 20.5v189h11c27.333 -9.33301 61.166 -19.666 101.499 -30.999s81.5 -17 123.5 -17c61.333 0 110.166 7 146.499 21
s63.166 34 80.499 60c18 26.667 29.5 59.334 34.5 98.001s7.5 83.334 7.5 134.001v869h-315v158h513v-1102z" />
    <glyph glyph-name="K" unicode="K" horiz-adv-x="1204" 
d="M1236 0h-257l-543 693l-87 -98v-595h-198v1489h198v-685l610 685h241l-616 -665z" />
    <glyph glyph-name="L" unicode="L" horiz-adv-x="1019" 
d="M1014 0h-863v1489h198v-1313h665v-176z" />
    <glyph glyph-name="M" unicode="M" horiz-adv-x="1578" 
d="M1427 0h-198v1283l-388 -873h-120l-385 873v-1283h-185v1489h270l372 -829l359 829h275v-1489z" />
    <glyph glyph-name="N" unicode="N" horiz-adv-x="1367" 
d="M1216 0h-222l-658 1284v-1284h-185v1489h281l599 -1179v1179h185v-1489z" />
    <glyph glyph-name="O" unicode="O" horiz-adv-x="1449" 
d="M1204 1318c56.667 -65.333 100.669 -146.333 132.002 -243s47 -207 47 -331c0 -120.667 -15.333 -229.667 -46 -327s-75 -179 -133 -245c-60.667 -69.333 -131.5 -120.5 -212.5 -153.5s-170.167 -49.5 -267.5 -49.5c-100.667 0 -191.334 17 -272.001 51
s-150 84.667 -208 152c-57.333 66 -101.333 147.333 -132 244s-46 206 -46 328c0 125.333 15.5 235.333 46.5 330s75.167 176 132.5 244c57.333 66 126.5 116.167 207.5 150.5s171.5 51.5 271.5 51.5c101.333 0 192.666 -17.667 273.999 -53s150 -85 206 -149zM1177 744
c0 98.667 -10.667 186.002 -32 262.002s-51.333 139 -90 189c-39.333 51.333 -86.833 89.833 -142.5 115.5s-118.167 38.5 -187.5 38.5c-72 0 -134.833 -12.5 -188.5 -37.5s-101.167 -63.833 -142.5 -116.5c-39.333 -50.667 -69.5 -114.334 -90.5 -191.001
s-31.5 -163.334 -31.5 -260.001c0 -195.333 41 -344.833 123 -448.5s192 -155.5 330 -155.5s247.833 51.833 329.5 155.5s122.5 253.167 122.5 448.5z" />
    <glyph glyph-name="P" unicode="P" horiz-adv-x="1129" 
d="M1091 1040c0 -64.667 -11.5 -125.831 -34.5 -183.498s-54.833 -106.834 -95.5 -147.501c-51.333 -50.667 -111.666 -89 -180.999 -115s-157 -39 -263 -39h-168v-555h-198v1489h374c88 0 163 -7.33301 225 -22s116.667 -38.334 164 -71.001
c55.333 -38 98.666 -86.167 129.999 -144.5s47 -128.833 47 -211.5zM885 1035c0 51.333 -8.83203 96 -26.499 134s-44.5 69 -80.5 93c-31.333 20.667 -67.833 35.334 -109.5 44.001s-93.5 13 -155.5 13h-164v-595h135c80 0 144.667 6.5 194 19.5s90.333 36.167 123 69.5
c29.333 30 50.666 62.667 63.999 98s20 76.666 20 123.999z" />
    <glyph glyph-name="Q" unicode="Q" horiz-adv-x="1449" 
d="M1388 -364c-36 -9.33301 -73.832 -16.332 -113.499 -20.999s-79.167 -7 -118.5 -7c-111.333 0 -201.833 31.333 -271.5 94s-107.834 152 -114.501 268h-25h-21c-100.667 0 -191.5 17.167 -272.5 51.5s-150.167 84.5 -207.5 150.5s-101.333 147.333 -132 244
s-46 206 -46 328c0 125.333 15.5 235.333 46.5 330s75.167 176 132.5 244c57.333 66 126.5 116.167 207.5 150.5s171.5 51.5 271.5 51.5c101.333 0 192.666 -17.667 273.999 -53s150 -85 206 -149c56.667 -65.333 100.667 -146.333 132 -243s47 -207 47 -331
c0 -192.667 -37.667 -351.667 -113 -477s-178.333 -210.333 -309 -255c3.33301 -37.333 9.83301 -70.833 19.5 -100.5s22.167 -53.167 37.5 -70.5c18 -20.667 39.833 -35.834 65.5 -45.501s60.834 -14.5 105.501 -14.5c26.667 0 58 4.16699 94 12.5s62 15.833 78 22.5h27
v-180zM1177 744.001c0 98.667 -10.667 186.002 -32 262.002s-51.333 139 -90 189c-39.333 51.333 -86.833 89.833 -142.5 115.5s-118.167 38.5 -187.5 38.5c-72 0 -134.833 -12.5 -188.5 -37.5s-101.167 -63.833 -142.5 -116.5
c-39.333 -50.667 -69.5 -114.334 -90.5 -191.001s-31.5 -163.334 -31.5 -260.001c0 -195.333 41 -345 123 -449s192 -156 330 -156s247.833 52 329.5 156s122.5 253.667 122.5 449z" />
    <glyph glyph-name="R" unicode="R" horiz-adv-x="1271" 
d="M1304 0l-257.001 -0.00195312l-472 592h-226v-592h-198v1489h384c85.333 0 156.833 -4.66699 214.5 -14s112.5 -31 164.5 -65c52 -33.333 93.167 -76.333 123.5 -129s45.5 -118 45.5 -196c0 -109.333 -27.667 -200.666 -83 -273.999s-130.666 -127.666 -225.999 -162.999
zM875.999 1070c0 43.333 -7.66895 81.832 -23.002 115.499s-39 61.167 -71 82.5c-28 18.667 -60.667 31.834 -98 39.501s-83.666 11.5 -138.999 11.5h-196v-562h174c56.667 0 107.667 5 153 15s84 30.667 116 62c28.667 28 49.834 61.333 63.501 100s20.5 84 20.5 136z" />
    <glyph glyph-name="S" unicode="S" horiz-adv-x="1141" 
d="M566 -27c-108 0 -199.829 11.1621 -275.496 33.4951s-146.834 49.833 -213.501 82.5v248h14c65.333 -61.333 139.333 -108.833 222 -142.5s162.334 -50.5 239.001 -50.5c109.333 0 192 22.833 248 68.5s84 105.834 84 180.501c0 59.333 -14.667 107.666 -44 144.999
s-76 65 -140 83c-46 13.333 -88 24.333 -126 33s-85.667 20.334 -143 35.001c-51.333 13.333 -97.333 30.333 -138 51s-76.667 47.667 -108 81c-30.667 32.667 -54.5 71.167 -71.5 115.5s-25.5 95.5 -25.5 153.5c0 120.667 47 221.834 141 303.501s214 122.5 360 122.5
c83.333 0 162.166 -8.33301 236.499 -25s143.166 -40.334 206.499 -71.001v-237h-15c-47.333 43.333 -108 81.166 -182 113.499s-151.667 48.5 -233 48.5c-92 0 -166.333 -21.5 -223 -64.5s-85 -99.5 -85 -169.5c0 -63.333 16.667 -113.666 50 -150.999
s81.666 -64.666 144.999 -81.999c42 -11.333 93.333 -24.166 154 -38.499s111 -27.5 151 -39.5c102.667 -31.333 177.667 -78.666 225 -141.999s71 -141.333 71 -234c0 -58 -11.833 -115.333 -35.5 -172s-56.834 -104.667 -99.501 -144
c-48 -43.333 -102.167 -76.666 -162.5 -99.999s-135.833 -35 -226.5 -35z" />
    <glyph glyph-name="T" unicode="T" horiz-adv-x="1196" 
d="M499 0v1313h-500v176h1198v-176h-500v-1313h-198z" />
    <glyph glyph-name="U" unicode="U" horiz-adv-x="1343" 
d="M671 -31c-87.333 0 -163.668 11.5 -229.001 34.5s-121 57.167 -167 102.5c-52 52 -88.667 114.167 -110 186.5s-32 161.5 -32 267.5v929h198v-929c0 -68.667 4.33301 -126.5 13 -173.5s25.667 -89.167 51 -126.5c26.667 -40 62.834 -70.333 108.501 -91
s101.5 -31 167.5 -31c62 0 117 10.333 165 31s85.333 51 112 91c24.667 38 41.5 80 50.5 126s13.5 102.333 13.5 169v934h198v-929c0 -103.333 -10.5 -192 -31.5 -266s-57.833 -136.667 -110.5 -188c-47.333 -46 -102.5 -80.333 -165.5 -103s-140.167 -34 -231.5 -34z" />
    <glyph glyph-name="V" unicode="V" horiz-adv-x="1222" 
d="M1230 1489l-512 -1489h-214l-512 1489h212l412 -1236l412 1236h202z" />
    <glyph glyph-name="W" unicode="W" horiz-adv-x="1847" 
d="M1821 1489l-374 -1489h-223l-303 1236l-296 -1236h-218l-381 1489h203l300 -1238l298 1238h201l301 -1250l298 1250h194z" />
    <glyph glyph-name="X" unicode="X" horiz-adv-x="1189" 
d="M1181 0h-227l-363 596l-369 -596h-214l473 745l-459 744h226l356 -585l361 585h215l-466 -734z" />
    <glyph glyph-name="Y" unicode="Y" horiz-adv-x="1180" 
d="M1193 1489l-503 -830v-659h-198v638l-503 851h220l384 -657l390 657h210z" />
    <glyph glyph-name="Z" unicode="Z" horiz-adv-x="1145" 
d="M1100 0h-1040v184l797 1129h-761v176h984v-179l-806 -1134h826v-176z" />
    <glyph glyph-name="bracketleft" unicode="[" horiz-adv-x="784" 
d="M686 -392h-520v1948h520v-143h-345v-1662h345v-143z" />
    <glyph glyph-name="backslash" unicode="\" horiz-adv-x="783" 
d="M804 -324h-169l-583 1880h172z" />
    <glyph glyph-name="bracketright" unicode="]" horiz-adv-x="784" 
d="M618 -392h-520v143h345v1662h-345v143h520v-1948z" />
    <glyph glyph-name="asciicircum" unicode="^" horiz-adv-x="1490" 
d="M1357 684h-198l-415 625l-414 -627h-197l549 807h126z" />
    <glyph glyph-name="underscore" unicode="_" 
d="M1134 -300h-1150v130h1150v-130z" />
    <glyph glyph-name="grave" unicode="`" 
d="M670 1302h-149l-273 374h243z" />
    <glyph glyph-name="a" unicode="a" horiz-adv-x="1075" 
d="M760 275v310.001c-44.667 -4 -101.167 -9.5 -169.5 -16.5s-123.5 -16.833 -165.5 -29.5c-50 -15.333 -91.333 -38.833 -124 -70.5s-49 -75.834 -49 -132.501c0 -64 18 -112.333 54 -145s88.667 -49 158 -49c59.333 0 113 12.833 161 38.5s93 57.167 135 94.5z
M760 119.001l-61.502 -47.498c-25.667 -20.333 -50.5 -36.5 -74.5 -48.5c-33.333 -17.333 -65.5 -30.666 -96.5 -39.999s-74.5 -14 -130.5 -14c-46 0 -89.667 8.66699 -131 26s-77.666 41.666 -108.999 72.999c-30 30.667 -54 68.5 -72 113.5s-27 92.5 -27 142.5
c0 77.333 16.333 143.166 49 197.499s84.334 97.5 155.001 129.5c62.667 28.667 136.667 48.5 222 59.5s177.333 19.167 276 24.5v36c0 44 -6.66699 79.5 -20 106.5s-32 47.833 -56 62.5c-24 15.333 -53.333 25.5 -88 30.5s-70.334 7.5 -107.001 7.5
c-43.333 0 -94.333 -6.5 -153 -19.5s-117.334 -31.833 -176.001 -56.5h-11v191c34.667 10 84.334 21 149.001 33s128.667 18 192 18c76.667 0 141.334 -6 194.001 -18s100 -33.667 142 -65c40.667 -30.667 71 -70.334 91 -119.001s30 -108 30 -178v-764h-187v119z" />
    <glyph glyph-name="b" unicode="b" horiz-adv-x="1132" 
d="M879 562c0 133.333 -20.334 234.5 -61.001 303.5s-106 103.5 -196 103.5c-51.333 0 -103.166 -12 -155.499 -36s-99.833 -54.333 -142.5 -91v-640c47.333 -23.333 89.333 -39.833 126 -49.5s77 -14.5 121 -14.5c96 0 171.333 34 226 102s82 175.333 82 322zM1073 577
c0 -182.667 -44.332 -329.667 -132.999 -441s-199.667 -167 -333 -167c-60.667 0 -112.5 7.5 -155.5 22.5s-85.5 35.167 -127.5 60.5l-12 -52h-176v1556h188v-556c47.333 42.667 98.666 78 153.999 106s118 42 188 42c126 0 225.333 -50.5 298 -151.5
s109 -240.833 109 -419.5z" />
    <glyph glyph-name="c" unicode="c" horiz-adv-x="945" 
d="M580 -25c-76.667 0 -146.999 11.834 -210.999 35.501s-119 59.5 -165 107.5s-81.667 108.5 -107 181.5s-38 158.833 -38 257.5c0 98 13.167 182.667 39.5 254s61.5 131.333 105.5 180s98.833 86.167 164.5 112.5s136.167 39.5 211.5 39.5
c61.333 0 120.5 -8.66699 177.5 -26s107.833 -37.333 152.5 -60v-211h-11c-13.333 11.333 -30.5 24.333 -51.5 39s-46.5 29.667 -76.5 45c-26 13.333 -56.667 25 -92 35s-69.333 15 -102 15c-97.333 0 -175.5 -36.833 -234.5 -110.5s-88.5 -177.834 -88.5 -312.501
c0 -132 28.5 -234.833 85.5 -308.5s136.167 -110.5 237.5 -110.5c61.333 0 119.666 12.667 174.999 38s104.333 58 147 98h11v-211l-70 -31.5c-28 -12.333 -53.333 -21.5 -76 -27.5c-32 -9.33301 -60.667 -16.5 -86 -21.5s-58 -7.5 -98 -7.5z" />
    <glyph glyph-name="d" unicode="d" horiz-adv-x="1132" 
d="M996 0h-188v114c-29.333 -24.667 -54.666 -45 -75.999 -61s-46.333 -30.667 -75 -44c-26.667 -12.667 -54.334 -22.5 -83.001 -29.5s-62 -10.5 -100 -10.5c-60.667 0 -116.834 12.667 -168.501 38s-95.5 62.333 -131.5 111c-36.667 49.333 -65 110.166 -85 182.499
s-30 155.5 -30 249.5c0 98 12.667 182.833 38 254.5s60.333 134.167 105 187.5c40.667 48.667 89.834 86.834 147.501 114.501s118.167 41.5 181.5 41.5c56 0 104.667 -6.16699 146 -18.5s85 -31.5 131 -57.5v484h188v-1556zM808 272l0.000976562 643.999
c-46.667 22.667 -88.5 38.334 -125.5 47.001s-77.167 13 -120.5 13c-96.667 0 -172.334 -36.167 -227.001 -108.5s-82 -176.833 -82 -313.5c0 -131.333 21 -231.833 63 -301.5s109.333 -104.5 202 -104.5c49.333 0 99 11.167 149 33.5s97 52.5 141 90.5z" />
    <glyph glyph-name="e" unicode="e" horiz-adv-x="1078" 
d="M621 -26c-178 0 -316.163 50.1689 -414.496 150.502s-147.5 242.833 -147.5 427.5c0 182 47.667 326.833 143 434.5s220 161.5 374 161.5c69.333 0 130.666 -10 183.999 -30s100 -51.333 140 -94s70.667 -94.834 92 -156.501s32 -137.167 32 -226.5v-102h-774
c0 -130 32.667 -229.333 98 -298s155.666 -103 270.999 -103c41.333 0 81.833 4.66699 121.5 14s75.5 21.333 107.5 36c34 15.333 62.667 30.166 86 44.499s42.666 27.833 57.999 40.5h11v-205l-82 -32.5c-32.667 -13 -62 -23.167 -88 -30.5
c-36.667 -10 -69.834 -17.667 -99.501 -23s-67.167 -8 -112.5 -8zM841.004 683.002c-1.33301 50.667 -7.33301 94.333 -18 131s-26 67.667 -46 93c-22 28 -50.167 49.333 -84.5 64s-76.833 22 -127.5 22c-50 0 -92.5 -7.5 -127.5 -22.5s-66.833 -36.833 -95.5 -65.5
c-28 -29.333 -49.333 -61.833 -64 -97.5s-24 -77.167 -28 -124.5h591z" />
    <glyph glyph-name="f" unicode="f" horiz-adv-x="652" 
d="M724 1376l-10 0.000976562c-16.667 6 -40.667 11.833 -72 17.5s-59.333 8.5 -84 8.5c-79.333 0 -135.833 -17.833 -169.5 -53.5s-50.5 -100.167 -50.5 -193.5v-38h311v-156h-305v-961h-188v961h-127v156h127v37c0 134.667 32.333 237 97 307s157.334 105 278.001 105
c34.667 0 68.667 -1.83301 102 -5.5s63.666 -7.83398 90.999 -12.501v-172z" />
    <glyph glyph-name="g" unicode="g" horiz-adv-x="1132" 
d="M808 303v612.999c-46.667 22.667 -89.834 38.834 -129.501 48.501s-79.167 14.5 -118.5 14.5c-95.333 0 -170.333 -35 -225 -105s-82 -170.333 -82 -301c0 -124 20.833 -218.333 62.5 -283s109.167 -97 202.5 -97c48.667 0 98.834 9.66699 150.501 29
s98.167 46.333 139.5 81zM176 -179.001c12.667 -5.33301 31.334 -12.501 56.001 -21.501s52.667 -17.5 84 -25.5c34.667 -8.66699 66.667 -15.667 96 -21s61.333 -8 96 -8c58 0 107.167 7.66699 147.5 23s71.833 36.666 94.5 63.999c21.333 27.333 36.333 59 45 95
s13 77 13 123v98c-50.667 -44 -100.334 -76.5 -149.001 -97.5s-109.667 -31.5 -183 -31.5c-127.333 0 -228.666 47.333 -303.999 142s-113 230.667 -113 408c0 92.667 13 174.834 39 246.501s61 132.5 105 182.5c42 48 91.667 85 149 111s116.666 39 177.999 39
c58 0 108.167 -6.83301 150.5 -20.5s84.833 -33.167 127.5 -58.5l11 48h177v-990c0 -189.333 -41.333 -328.333 -124 -417s-209 -133 -379 -133c-54.667 0 -110.5 4.33301 -167.5 13s-110.167 20.334 -159.5 35.001v196h10z" />
    <glyph glyph-name="h" unicode="h" horiz-adv-x="1142" 
d="M1014 0h-188.002v636c0 51.333 -2.5 99.166 -7.5 143.499s-14.5 79.833 -28.5 106.5c-15.333 28 -36.666 48.833 -63.999 62.5s-64.666 20.5 -111.999 20.5c-46.667 0 -94.834 -12.5 -144.501 -37.5s-98.167 -57.5 -145.5 -97.5v-834h-188v1556h188v-563
c56 50 111.333 88.333 166 115s112.334 40 173.001 40c110 0 196 -36.167 258 -108.5s93 -177.166 93 -314.499v-725z" />
    <glyph glyph-name="i" unicode="i" horiz-adv-x="468" 
d="M328 0h-188v1117h188v-1117zM341 1304h-214v195h214v-195z" />
    <glyph glyph-name="j" unicode="j" horiz-adv-x="577" 
d="M441 -32c0 -127.333 -34.167 -224.334 -102.5 -291.001s-162.5 -100 -282.5 -100c-20.667 0 -43.834 1 -69.501 3s-51.167 5 -76.5 9v168h11c14.667 -3.33301 30.834 -6.5 48.501 -9.5s34.5 -4.5 50.5 -4.5c50 0 91.167 6.16699 123.5 18.5s56.5 31.833 72.5 58.5
c14.667 24 24.5 54.333 29.5 91s7.5 81.334 7.5 134.001v916h-202v156h390v-1149zM442 1304h-214v195h214v-195z" />
    <glyph glyph-name="k" unicode="k" horiz-adv-x="1020" 
d="M1062 0h-247l-417 539l-74 -72v-467h-188v1556h188v-911l442 472h234l-459 -467z" />
    <glyph glyph-name="l" unicode="l" horiz-adv-x="468" 
d="M328 0h-188v1556h188v-1556z" />
    <glyph glyph-name="m" unicode="m" horiz-adv-x="1720" 
d="M1404 0l0.00195312 645.997c0 51.333 -2 98.833 -6 142.5s-12.333 77.834 -25 102.501c-13.333 26.667 -32.333 46.334 -57 59.001s-58 19 -100 19c-38.667 0 -80.167 -11.833 -124.5 -35.5s-90.166 -57.834 -137.499 -102.501l2.5 -40.5
c1 -15.667 1.5 -34.167 1.5 -55.5v-735h-188v646c0 51.333 -2 98.833 -6 142.5s-12.333 77.834 -25 102.501c-13.333 26.667 -32.333 46.334 -57 59.001s-58 19 -100 19c-40.667 0 -83.334 -12.667 -128.001 -38s-88 -57.666 -130 -96.999v-834h-188v1117h188v-124
c49.333 49.333 98.166 87.5 146.499 114.5s101.5 40.5 159.5 40.5c66 0 124.5 -15 175.5 -45s89.833 -79.333 116.5 -148c56.667 63.333 112 111.333 166 144s112.667 49 176 49c48 0 91.667 -7.5 131 -22.5s73.666 -39.167 102.999 -72.5c30 -34 53.167 -76.333 69.5 -127
s24.5 -114.334 24.5 -191.001v-735h-188z" />
    <glyph glyph-name="n" unicode="n" horiz-adv-x="1142" 
d="M1014 0h-188.002v636c0 51.333 -2.5 99.166 -7.5 143.499s-14.5 79.833 -28.5 106.5c-15.333 28 -36.666 48.833 -63.999 62.5s-64.666 20.5 -111.999 20.5c-46.667 0 -94.834 -12.5 -144.501 -37.5s-98.167 -57.5 -145.5 -97.5v-834h-188v1117h188v-124
c56 50 111.333 88.333 166 115s112.334 40 173.001 40c110 0 196 -36.167 258 -108.5s93 -177.166 93 -314.499v-725z" />
    <glyph glyph-name="o" unicode="o" horiz-adv-x="1112" 
d="M1055 558c0 -188 -45.333 -333.167 -136 -435.5s-211.334 -153.5 -362.001 -153.5c-155.333 0 -277.5 52.833 -366.5 158.5s-133.5 249.167 -133.5 430.5c0 186.667 45.833 331.667 137.5 435s212.5 155 362.5 155c150.667 0 271.334 -51.5 362.001 -154.5
s136 -248.167 136 -435.5zM861 558c0 144.667 -26.333 252.167 -79 322.5s-127.667 105.5 -225 105.5c-98 0 -173.5 -35.167 -226.5 -105.5s-79.5 -177.833 -79.5 -322.5c0 -140 26.5 -246.167 79.5 -318.5s128.5 -108.5 226.5 -108.5c96.667 0 171.5 35.5 224.5 106.5
s79.5 177.833 79.5 320.5z" />
    <glyph glyph-name="p" unicode="p" horiz-adv-x="1132" 
d="M1073 588c0 -186 -44.499 -334.168 -133.499 -444.501s-201.5 -165.5 -337.5 -165.5c-55.333 0 -104.333 6.33301 -147 19s-86.334 32.334 -131.001 59.001v-468h-188v1529h188v-117c46.667 42 98.5 77.167 155.5 105.5s119.167 42.5 186.5 42.5
c128 0 227.833 -50.667 299.5 -152s107.5 -237.333 107.5 -408zM879.001 566.999c0 127.333 -20.332 226.168 -60.999 296.501s-106.667 105.5 -198 105.5c-53.333 0 -104.833 -11.833 -154.5 -35.5s-96.834 -54.167 -141.501 -91.5v-633c49.333 -24 91.5 -40.333 126.5 -49
s75.167 -13 120.5 -13c97.333 0 173 35.667 227 107s81 175.666 81 312.999z" />
    <glyph glyph-name="q" unicode="q" horiz-adv-x="1132" 
d="M996 -412l-187.998 -0.000976562v534c-54.667 -50 -108 -86.5 -160 -109.5s-109.667 -34.5 -173 -34.5c-126.667 0 -227.667 50.833 -303 152.5s-113 243.167 -113 424.5c0 96 13.167 180.833 39.5 254.5s61.166 135.5 104.499 185.5
c41.333 48.667 90.666 86.334 147.999 113.001s117 40 179 40c57.333 0 107 -6.66699 149 -20s85 -33 129 -59l12 48h176v-1529zM808.002 279.999l-0.000976562 636c-47.333 23.333 -89.666 39.666 -126.999 48.999s-77.333 14 -120 14
c-98.667 0 -174.667 -35.667 -228 -107s-80 -174 -80 -308c0 -130.667 21.333 -231.167 64 -301.5s109 -105.5 199 -105.5c52.667 0 104 11.333 154 34s96 52.334 138 89.001z" />
    <glyph glyph-name="r" unicode="r" horiz-adv-x="738" 
d="M728 915h-10c-14 4 -28.833 6.5 -44.5 7.5s-34.5 1.5 -56.5 1.5c-50.667 0 -101 -11 -151 -33s-97.333 -54.667 -142 -98v-793h-188v1117h188v-166c68.667 60.667 128.5 103.5 179.5 128.5s100.5 37.5 148.5 37.5c19.333 0 33.833 -0.5 43.5 -1.5s20.5 -2.5 32.5 -4.5
v-196z" />
    <glyph glyph-name="s" unicode="s" horiz-adv-x="914" 
d="M438 -27c-74.667 0 -144.499 9.99707 -209.499 29.9971s-118.833 41.333 -161.5 64v211h10c16 -12.667 34.833 -26.667 56.5 -42s50.5 -31.333 86.5 -48c32 -14.667 67.167 -27.667 105.5 -39s78.166 -17 119.499 -17c30 0 62 3.5 96 10.5s59.333 15.833 76 26.5
c23.333 15.333 40.166 31.666 50.499 48.999s15.5 43.333 15.5 78c0 44.667 -12.167 78.334 -36.5 101.001s-67.5 41.667 -129.5 57c-24 6 -55.333 13 -94 21s-74.334 16.667 -107.001 26c-85.333 24.667 -147.333 62.834 -186 114.501s-58 114.167 -58 187.5
c0 100.667 38 182.667 114 246s177 95 303 95c62 0 124.333 -7.66699 187 -23s115.334 -34.666 158.001 -57.999v-201h-10c-48 38 -101.5 68 -160.5 90s-118.5 33 -178.5 33c-62 0 -114.333 -13 -157 -39s-64 -65.333 -64 -118c0 -46.667 12.667 -81.5 38 -104.5
s66 -41.833 122 -56.5c28 -7.33301 59.167 -14.5 93.5 -21.5s70.5 -15.167 108.5 -24.5c82.667 -20.667 144.834 -55 186.501 -103s62.5 -113.333 62.5 -196c0 -48 -9.5 -93.5 -28.5 -136.5s-46.833 -79.833 -83.5 -110.5c-40 -33.333 -85.167 -58.666 -135.5 -75.999
s-113.5 -26 -189.5 -26z" />
    <glyph glyph-name="t" unicode="t" horiz-adv-x="685" 
d="M474 -22c-102.667 0 -182.668 29.1689 -240.001 87.502s-86 150.5 -86 276.5v619h-127v156h127v321h188v-321h346v-156h-346v-531c0 -56.667 1 -100.334 3 -131.001s9.66699 -59.334 23 -86.001c11.333 -23.333 29.666 -40.833 54.999 -52.5s59.666 -17.5 102.999 -17.5
c30.667 0 60.334 4.5 89.001 13.5s49.334 16.5 62.001 22.5h11v-169c-35.333 -10 -71.166 -17.833 -107.499 -23.5s-69.833 -8.5 -100.5 -8.5z" />
    <glyph glyph-name="u" unicode="u" horiz-adv-x="1142" 
d="M1006 0l-187.997 -0.000976562v124c-58 -50.667 -113 -89.167 -165 -115.5s-110 -39.5 -174 -39.5c-48.667 0 -94.5 8 -137.5 24s-80.5 41.333 -112.5 76s-56.833 78.334 -74.5 131.001s-26.5 116.667 -26.5 192v725h188v-636c0 -59.333 2.16699 -108.5 6.5 -147.5
s14.166 -73.167 29.499 -102.5c15.333 -28.667 36.166 -49.667 62.499 -63s64.166 -20 113.499 -20c46 0 95 13 147 39s99.667 58 143 96v834h188v-1117z" />
    <glyph glyph-name="v" unicode="v" horiz-adv-x="1020" 
d="M1014 1117l-421 -1117h-169l-418 1117h203l306 -862l303 862h196z" />
    <glyph glyph-name="w" unicode="w" horiz-adv-x="1520" 
d="M1490 1117l-283 -1117h-174l-273 861l-271 -861h-173l-286 1117h196l197 -865l265 865h155l272 -865l186 865h189z" />
    <glyph glyph-name="x" unicode="x" horiz-adv-x="1014" 
d="M1004 0h-231l-271 422l-279 -422h-213l388 554l-384 563h231l269 -418l276 418h214l-386 -550z" />
    <glyph glyph-name="y" unicode="y" horiz-adv-x="1020" 
d="M1014 1117l-601 -1529h-201l200 466l-406 1063h203l305 -827l304 827h196z" />
    <glyph glyph-name="z" unicode="z" horiz-adv-x="910" 
d="M870 0h-821v139l584 823h-560v155h786v-134l-587 -826h598v-157z" />
    <glyph glyph-name="braceleft" unicode="{" horiz-adv-x="984" 
d="M886 -392l-115.999 -0.0078125c-119.333 0 -212.833 32.833 -280.5 98.5s-101.5 161.834 -101.5 288.501v149c0 46 -4.33301 92.333 -13 139s-25.334 86.667 -50.001 120s-56.834 58.5 -96.501 75.5s-88.834 25.5 -147.501 25.5h-21v156h21
c58.667 0 107.834 8.5 147.501 25.5s71.834 42.167 96.501 75.5s41.334 73.333 50.001 120s13 93 13 139v149c0 126.667 33.833 222.834 101.5 288.501s161.167 98.5 280.5 98.5h116v-138h-80c-39.333 0 -73.333 -4 -102 -12s-53.334 -21.667 -74.001 -41
c-21.333 -20 -37.166 -47.667 -47.499 -83s-15.5 -78.666 -15.5 -129.999v-175c0 -54.667 -6.33301 -100.667 -19 -138s-31.334 -72.333 -56.001 -105c-22 -29.333 -50.667 -56.166 -86 -80.499s-72 -44.166 -110 -59.499v-24c38 -15.333 74.5 -35.166 109.5 -59.499
s63.833 -51.166 86.5 -80.499c24.667 -32.667 43.334 -67.667 56.001 -105s19 -83.333 19 -138v-175c0 -51.333 5.16699 -94.666 15.5 -129.999s26.166 -63 47.499 -83c20 -19.333 44.5 -33 73.5 -41s63.167 -12 102.5 -12h80v-138z" />
    <glyph glyph-name="bar" unicode="|" horiz-adv-x="783" 
d="M475 -392h-167v1948h167v-1948z" />
    <glyph glyph-name="braceright" unicode="}" horiz-adv-x="984" 
d="M924 504l-21 0.0078125c-58.667 0 -107.834 -8.5 -147.501 -25.5s-71.834 -42.167 -96.501 -75.5s-41.334 -73.333 -50.001 -120s-13 -93 -13 -139v-149c0 -126.667 -33.833 -222.834 -101.5 -288.501s-161.167 -98.5 -280.5 -98.5h-116v138h80c39.333 0 73.333 4 102 12
s53.334 21.667 74.001 41c21.333 20 37.166 47.667 47.499 83s15.5 78.666 15.5 129.999v175c0 54.667 6.33301 100.667 19 138s31.334 72.333 56.001 105c22 29.333 50.667 56.166 86 80.499s72 44.166 110 59.499v24c-38 15.333 -74.667 35.166 -110 59.499
s-64 51.166 -86 80.499c-24.667 32.667 -43.334 67.667 -56.001 105s-19 83.333 -19 138v175c0 51.333 -5.16699 94.666 -15.5 129.999s-26.166 63 -47.499 83c-20.667 19.333 -45.334 33 -74.001 41s-62.667 12 -102 12h-80v138h116c119.333 0 212.833 -32.833 280.5 -98.5
s101.5 -161.834 101.5 -288.501v-149c0 -46 4.33301 -92.333 13 -139s25.334 -86.667 50.001 -120s56.834 -58.5 96.501 -75.5s88.834 -25.5 147.501 -25.5h21v-156z" />
    <glyph glyph-name="asciitilde" unicode="~" horiz-adv-x="1490" 
d="M1356 927c-1.33301 -68 -8.33301 -133.497 -21 -196.497s-32.667 -119.5 -60 -169.5c-27.333 -48.667 -61.333 -88.334 -102 -119.001s-93.667 -46 -159 -46c-38 0 -72.167 5.16699 -102.5 15.5s-57.166 23.833 -80.499 40.5s-45.666 36.667 -66.999 60
s-40.333 45 -57 65l-53 67c-17.333 22.667 -34.333 42.667 -51 60c-18 18.667 -36.667 33.667 -56 45s-41.333 17 -66 17c-33.333 0 -61 -8.83301 -83 -26.5s-40.333 -43.834 -55 -78.501c-14 -33.333 -23.833 -73.333 -29.5 -120s-9.5 -95.334 -11.5 -146.001h-168
c1.33301 69.333 8.5 135.666 21.5 198.999s32.5 119 58.5 167c26.667 50.667 62 90.834 106 120.501s96 44.5 156 44.5c40 0 75.167 -5.33301 105.5 -16s57.166 -24.334 80.499 -41.001s44.833 -35.667 64.5 -57s38.834 -43.666 57.501 -66.999l52.5 -66
c20.333 -26 37.5 -46.333 51.5 -61c19.333 -20 38.833 -35.333 58.5 -46s40.5 -16 62.5 -16c33.333 0 61.5 9.33301 84.5 28s40.833 44 53.5 76c13.333 33.333 23.166 72.5 29.499 117.5s10.166 94.833 11.499 149.5h168z" />
    <glyph glyph-name="exclamdown" unicode="&#xa1;" horiz-adv-x="680" 
d="M442 1278h-204v211h204v-211zM452 0h-224l28 1079h166z" />
    <glyph glyph-name="cent" unicode="&#xa2;" 
d="M557 2c-143.333 16.667 -253 72.999 -329 168.999s-114 224.667 -114 386c0 158.667 39.333 287.334 118 386.001s187 156 325 172v360h114v-359c58 -2 113.833 -10.833 167.5 -26.5s99.167 -33.167 136.5 -52.5v-200h-10c-41.333 34 -85.333 63.667 -132 89
s-100.667 42.333 -162 51v-836c32.667 3.33301 65.5 11 98.5 23s60.833 24.667 83.5 38c24 14 45.333 27.833 64 41.5s34.667 26.167 48 37.5h10v-198c-43.333 -20 -88.5 -37.833 -135.5 -53.5s-103.167 -25.167 -168.5 -28.5v-362h-114v363zM557 145.999v825.001
c-77.333 -14 -138.333 -55.833 -183 -125.5s-67 -165.834 -67 -288.501c0 -125.333 22.833 -221.833 68.5 -289.5s106.167 -108.167 181.5 -121.5z" />
    <glyph glyph-name="sterling" unicode="&#xa3;" 
d="M1031 0h-941.999v207c74 22 126.167 64.667 156.5 128s45.5 156 45.5 278h-161v138h161v320c0 134 38.667 242 116 324s177.666 123 300.999 123c64.667 0 120 -5.16699 166 -15.5s88.333 -21.166 127 -32.499v-206h-10c-38.667 27.333 -81.667 48.666 -129 63.999
s-92.333 23 -135 23c-82 0 -143.167 -25.667 -183.5 -77s-60.5 -125.333 -60.5 -222v-301h364v-138h-364v-61c0 -78 -19.5 -148.833 -58.5 -212.5s-93.5 -116.167 -163.5 -157.5v-11h770v-171z" />
    <glyph glyph-name="currency" unicode="&#xa4;" 
d="M1057 272l-106.001 -105.999l-214 212c-30 -18 -58 -31.167 -84 -39.5s-57 -12.5 -93 -12.5c-30.667 0 -61.5 5 -92.5 15s-58.5 22.667 -82.5 38l-215 -215l-105 109l212 213c-16.667 26.667 -29.5 55.5 -38.5 86.5s-13.5 60.5 -13.5 88.5c0 29.333 4.5 58.833 13.5 88.5
s22.167 58.167 39.5 85.5l-213 216l107 106l214 -213c24.667 16 52.334 28.667 83.001 38s61 14 91 14c34.667 0 67.167 -5.16699 97.5 -15.5s56.5 -22.166 78.5 -35.499l212 212l109 -105l-214 -216c18 -28.667 31.333 -56.334 40 -83.001s13 -57.334 13 -92.001
c0 -30 -4.83301 -60.5 -14.5 -91.5s-22.5 -58.833 -38.5 -83.5zM751.999 661.001c0 53.333 -18.833 99.5 -56.5 138.5s-82.834 58.5 -135.501 58.5c-51.333 0 -96.166 -19.167 -134.499 -57.5s-57.5 -84.833 -57.5 -139.5c0 -53.333 18.833 -99.5 56.5 -138.5
s82.834 -58.5 135.501 -58.5c51.333 0 96.166 19.167 134.499 57.5s57.5 84.833 57.5 139.5z" />
    <glyph glyph-name="yen" unicode="&#xa5;" 
d="M1059 1489l-408 -811v-100h342v-138h-340v-440h-188v440h-340v138h342v79l-411 832h210l294 -639l298 639h201z" />
    <glyph glyph-name="brokenbar" unicode="&#xa6;" horiz-adv-x="783" 
d="M475 758h-167v798h167v-798zM475 -392h-167v798h167v-798z" />
    <glyph glyph-name="section" unicode="&#xa7;" 
d="M759 401c16 23.333 28.498 45.833 37.498 67.5s13.5 50.5 13.5 86.5c0 32.667 -4.83301 61 -14.5 85s-22.834 43.667 -39.501 59c-16 15.333 -34.667 28.166 -56 38.499s-46 19.833 -74 28.5l-77 22.5c-29.333 8.33301 -62.333 18.5 -99 30.5
c-13.333 -8 -27.166 -18 -41.499 -30s-30.166 -29 -47.499 -51c-13.333 -17.333 -25.5 -40.666 -36.5 -69.999s-16.5 -59 -16.5 -89c0 -54 12.667 -97 38 -129s74 -59 146 -81l77.5 -23.5l97.5 -30.5c12.667 8 27.334 19 44.001 33s32.667 31.667 48 53zM181.998 -133
c17.333 -8.66699 38.834 -18.332 64.501 -28.999s50.5 -20 74.5 -28c31.333 -10 60.333 -17.5 87 -22.5s60.334 -7.5 101.001 -7.5c76 0 139.5 15.5 190.5 46.5s76.5 76.833 76.5 137.5c0 36 -6.16699 65.167 -18.5 87.5s-32.166 42.166 -59.499 59.499
c-28 16.667 -62.5 30.834 -103.5 42.501l-134.5 38.5c-58.667 16.667 -107.5 33.667 -146.5 51s-74.167 40.333 -105.5 69c-30 27.333 -52.333 59 -67 95s-22 78 -22 126c0 62.667 16.333 122.167 49 178.5s82.667 105.166 150 146.499v7
c-60.667 33.333 -104.167 73.666 -130.5 120.999s-39.5 101 -39.5 161c0 112 42.667 202 128 270s202.666 102 351.999 102c56.667 0 109 -4.33301 157 -13s101.667 -23.334 161 -44.001v-194h-10c-60 30 -115.833 52 -167.5 66s-105.5 21 -161.5 21
c-74.667 0 -137.834 -15.167 -189.501 -45.5s-77.5 -74.833 -77.5 -133.5c0 -38 6.83301 -69 20.5 -93s33.5 -43.667 59.5 -59c26 -16 59.167 -30.333 99.5 -43s86.166 -25.667 137.499 -39c122.667 -33.333 210.167 -76.166 262.5 -128.499s78.5 -123.166 78.5 -212.499
c0 -72 -18.167 -135 -54.5 -189s-84.5 -99 -144.5 -135v-7c58 -30.667 100.833 -69.334 128.5 -116.001s41.5 -101.334 41.5 -164.001c0 -49.333 -10.5 -97.666 -31.5 -144.999s-50.833 -87 -89.5 -119c-41.333 -35.333 -90.833 -62.666 -148.5 -81.999
s-127.5 -29 -209.5 -29c-52.667 0 -105 4.66699 -157 14s-105.667 24 -161 44v194h10z" />
    <glyph glyph-name="dieresis" unicode="&#xa8;" 
d="M867 1304h-201v195h201v-195zM454 1304h-201v195h201v-195z" />
    <glyph glyph-name="copyright" unicode="&#xa9;" horiz-adv-x="1902" 
d="M1816 655c0 -238.667 -84.5 -442.5 -253.5 -611.5s-372.833 -253.5 -611.5 -253.5s-442.5 84.5 -611.5 253.5s-253.5 372.833 -253.5 611.5s84.5 442.334 253.5 611.001s372.833 253 611.5 253s442.5 -84.333 611.5 -253s253.5 -372.334 253.5 -611.001zM1701 655
c0 208.667 -73.167 386.5 -219.5 533.5s-322.833 220.5 -529.5 220.5s-383.167 -73.5 -529.5 -220.5s-219.5 -324.833 -219.5 -533.5s73.167 -386.667 219.5 -534s322.833 -221 529.5 -221s383.167 73.667 529.5 221s219.5 325.333 219.5 534zM1274 255
c-44.667 -20 -89.332 -37.4971 -133.999 -52.4971s-97.334 -22.5 -158.001 -22.5c-139.333 0 -249.333 41.167 -330 123.5s-121 201.166 -121 356.499c0 153.333 41.667 272.166 125 356.499s192 126.5 326 126.5c55.333 0 108.333 -7.33301 159 -22s95 -31.667 133 -51
v-181h-16c-28.667 25.333 -68.334 49.5 -119.001 72.5s-101.667 34.5 -153 34.5c-82 0 -147.5 -27.333 -196.5 -82s-73.5 -139.334 -73.5 -254.001c0 -108 23.333 -190.5 70 -247.5s113.334 -85.5 200.001 -85.5c56 0 109 12.167 159 36.5s87.667 47.833 113 70.5h16v-179z
" />
    <glyph glyph-name="ordfeminine" unicode="&#xaa;" horiz-adv-x="1010" 
d="M874 566l-165.999 -0.000976562v91l-51 -38.5c-21.333 -15.667 -42.333 -28.167 -63 -37.5c-27.333 -12.667 -54.166 -22.5 -80.499 -29.5s-62.833 -10.5 -109.5 -10.5c-82.667 0 -151.667 27.833 -207 83.5s-83 127.167 -83 214.5c0 69.333 14.333 125.833 43 169.5
s69.667 78.167 123 103.5c50 24 113 41 189 51s155.667 17 239 21v19c0 34.667 -5.5 62.667 -16.5 84s-27.167 38 -48.5 50c-19.333 11.333 -43.333 18.833 -72 22.5s-58.334 5.5 -89.001 5.5c-52 0 -104.833 -7.83301 -158.5 -23.5s-93.5 -28.167 -119.5 -37.5h-15v170
c29.333 8.66699 73.166 18.334 131.499 29.001s112.5 16 162.5 16c128 0 225.167 -25.5 291.5 -76.5s99.5 -133.833 99.5 -248.5v-628zM708.001 801.999v243.001c-43.333 -2.66699 -93.666 -6.66699 -150.999 -12s-103 -13 -137 -23c-40 -11.333 -72.333 -29.833 -97 -55.5
s-37 -60.834 -37 -105.501c0 -50 14.667 -88 44 -114s73 -39 131 -39c50.667 0 96.167 11 136.5 33s77.166 46.333 110.499 73z" />
    <glyph glyph-name="guillemotleft" unicode="&#xab;" horiz-adv-x="1174" 
d="M1043 191l-488 419v85l488 418v-188l-317 -273l317 -273v-188zM613 162l-510 446v89l510 445v-196l-331 -294l331 -294v-196z" />
    <glyph glyph-name="logicalnot" unicode="&#xac;" horiz-adv-x="1490" 
d="M1323 57h-171v545h-995v160h1166v-705z" />
    <glyph glyph-name="registered" unicode="&#xae;" horiz-adv-x="1902" 
d="M1816 655c0 -238.667 -84.5 -442.5 -253.5 -611.5s-372.833 -253.5 -611.5 -253.5s-442.5 84.5 -611.5 253.5s-253.5 372.833 -253.5 611.5s84.5 442.334 253.5 611.001s372.833 253 611.5 253s442.5 -84.333 611.5 -253s253.5 -372.334 253.5 -611.001zM1701 655
c0 208.667 -73.167 386.5 -219.5 533.5s-322.833 220.5 -529.5 220.5s-383.167 -73.5 -529.5 -220.5s-219.5 -324.833 -219.5 -533.5s73.167 -386.667 219.5 -534s322.833 -221 529.5 -221s383.167 73.667 529.5 221s219.5 325.333 219.5 534zM1448 215
l-226.999 0.000976562l-283 355h-123v-355h-165v915h279c62.667 0 112.167 -2.33301 148.5 -7s73.166 -17.667 110.499 -39c40 -22.667 69 -50 87 -82s27 -73 27 -123c0 -66.667 -18.5 -121.334 -55.5 -164.001s-85.167 -76 -144.5 -100zM1120 868.001
c0 24.667 -3.99805 46 -11.998 64s-22 33.333 -42 46c-16.667 10.667 -35.334 17.834 -56.001 21.501s-47.334 5.5 -80.001 5.5h-115v-309h98c32 0 62 3.16699 90 9.5s50.667 17.166 68 32.499s29.833 33 37.5 53s11.5 45.667 11.5 77z" />
    <glyph glyph-name="overscore" unicode="&#xaf;" 
d="M1134 1659h-1150v130h1150v-130z" />
    <glyph glyph-name="degree" unicode="&#xb0;" horiz-adv-x="964" 
d="M863 1135c0 -106.667 -36.666 -196.667 -109.999 -270s-163.666 -110 -270.999 -110c-106 0 -196 36.333 -270 109s-111 163 -111 271c0 106.667 36.667 196.667 110 270s163.666 110 270.999 110s197.666 -36.667 270.999 -110s110 -163.333 110 -270zM706.001 1135
c0 64 -21.333 118 -64 162s-96 66 -160 66s-117.333 -22 -160 -66s-64 -98 -64 -162c0 -65.333 21.833 -119.666 65.5 -162.999s96.5 -65 158.5 -65c64 0 117.333 22.167 160 66.5s64 98.166 64 161.499z" />
    <glyph glyph-name="plusminus" unicode="&#xb1;" horiz-adv-x="1490" 
d="M1328 159h-1166v158h500v422h-500v158h500v505h166v-505h500v-158h-500v-422h500v-158z" />
    <glyph glyph-name="twosuperior" unicode="&#xb2;" horiz-adv-x="1010" 
d="M866 566h-680.999v152l147.5 113.5c47 36.333 85.167 68.833 114.5 97.5c70.667 68 117 121.167 139 159.5s33 84.5 33 138.5c0 46 -14.333 81.5 -43 106.5s-68.334 37.5 -119.001 37.5c-46 0 -92.5 -10 -139.5 -30s-84.167 -40.667 -111.5 -62h-15v179
c42 18 88.5 32.667 139.5 44s101.167 17 150.5 17c104 0 183.833 -26.167 239.5 -78.5s83.5 -119.5 83.5 -201.5c0 -56.667 -13.167 -111.167 -39.5 -163.5s-75.5 -110.833 -147.5 -175.5c-34.667 -30.667 -75 -63.167 -121 -97.5l-123 -92.5h493v-144z" />
    <glyph glyph-name="threesuperior" unicode="&#xb3;" horiz-adv-x="1010" 
d="M837 828c0 -47.333 -10 -89.832 -30 -127.499s-46 -67.5 -78 -89.5c-35.333 -24.667 -73.5 -42.334 -114.5 -53.001s-87.833 -16 -140.5 -16c-54.667 0 -105.834 5 -153.501 15s-93.167 24.333 -136.5 43v175h17c24.667 -23.333 62.667 -44.833 114 -64.5
s103.333 -29.5 156 -29.5c56 0 102.333 12.167 139 36.5s55 60.5 55 108.5s-14.5 83.667 -43.5 107s-78.167 35 -147.5 35h-140v139h125c58 0 102.833 12.667 134.5 38s47.5 60 47.5 104c0 40 -13.667 71.833 -41 95.5s-70 35.5 -128 35.5c-44 0 -91.5 -10.333 -142.5 -31
s-88.833 -42.667 -113.5 -66h-17v175c42.667 18 89 32.667 139 44s101.333 17 154 17c101.333 0 180.333 -23.333 237 -70s85 -102.667 85 -168c0 -58 -16.167 -105.833 -48.5 -143.5s-74.166 -65.167 -125.499 -82.5v-8c53.333 -10.667 99.5 -34.167 138.5 -70.5
s58.5 -85.833 58.5 -148.5z" />
    <glyph glyph-name="acute" unicode="&#xb4;" 
d="M871 1676l-273 -374h-149l179 374h243z" />
    <glyph glyph-name="mu1" unicode="&#xb5;" horiz-adv-x="1163" 
d="M1027 0l-172.002 0.000976562v116h-6c-40 -42 -80.167 -74.667 -120.5 -98s-90.5 -35 -150.5 -35c-61.333 0 -109.666 11.667 -144.999 35s-71.666 55.666 -108.999 96.999v-527h-188v1529h188v-842c28 -33.333 63 -60.166 105 -80.499s91.667 -30.5 149 -30.5
c60 0 110.5 9.66699 151.5 29s77.5 46.666 109.5 81.999v842h188v-1117z" />
    <glyph glyph-name="paragraph" unicode="&#xb6;" 
d="M982 -363h-140v1722h-187v-1722h-140v956c-137.333 3.33301 -248 46.333 -332 129s-126 192 -126 328c0 138 43.333 245.667 130 323s211 116 373 116h422v-1852z" />
    <glyph glyph-name="middot" unicode="&#xb7;" horiz-adv-x="724" 
d="M482 832h-239v285h239v-285z" />
    <glyph glyph-name="cedilla" unicode="&#xb8;" 
d="M767 20c0.666992 -12 1.83203 -27.167 3.49902 -45.5s2.5 -39.5 2.5 -63.5c0 -108 -29 -190.667 -87 -248s-131.333 -86 -220 -86c-24.667 0 -53.667 2 -87 6s-63.333 10 -90 18v160h9c16 -7.33301 37 -14.833 63 -22.5s52.333 -11.5 79 -11.5
c62.667 0 107.334 13.167 134.001 39.5s40 68.5 40 126.5c0 17.333 -0.333008 36.333 -1 57s-1.66699 44 -3 70h157z" />
    <glyph glyph-name="onesuperior" unicode="&#xb9;" horiz-adv-x="1010" 
d="M811 566l-555.002 -0.00195312v122h204v568h-212v112c30 0 61.333 2 94 6s57.334 10.333 74.001 19c20.667 10.667 36.834 23.334 48.501 38.001s18.5 35.334 20.5 62.001h135v-805h191v-122z" />
    <glyph glyph-name="ordmasculine" unicode="&#xba;" horiz-adv-x="1010" 
d="M926 1030c0 -156 -39.001 -276.667 -117.001 -362s-179 -128 -303 -128c-128.667 0 -231 43.833 -307 131.5s-114 207.167 -114 358.5c0 155.333 39 275.833 117 361.5s179.333 128.5 304 128.5s225.834 -42.333 303.501 -127s116.5 -205.667 116.5 -363zM745.999 1030
c0 115.333 -21.5 200.833 -64.5 256.5s-101.5 83.5 -175.5 83.5s-132.667 -27.5 -176 -82.5s-65 -140.833 -65 -257.5c0 -112.667 21.333 -197.5 64 -254.5s101.667 -85.5 177 -85.5c74 0 132.5 28.5 175.5 85.5s64.5 141.833 64.5 254.5z" />
    <glyph glyph-name="guillemotright" unicode="&#xbb;" horiz-adv-x="1174" 
d="M1071 608l-510 -446v196l331 294l-331 294v196l510 -445v-89zM619 610l-488 -419v188l317 273l-317 273v188l488 -418v-85z" />
    <glyph glyph-name="onequarter" unicode="&#xbc;" horiz-adv-x="2048" 
d="M545 565h-165v681h-209v117c68 0 123 7.33301 165 22s66 50.667 72 108h137v-928zM1410 1489l-780 -1489h-165l780 1489h165zM1847 220h-163v-220h-150v220h-455v185l456 539h149v-591h163v-133zM1538 353v400l-343 -400h343z" />
    <glyph glyph-name="onehalf" unicode="&#xbd;" horiz-adv-x="2048" 
d="M545 565h-165v681h-209v117c68 0 123 7.33301 165 22s66 50.667 72 108h137v-928zM1410 1489l-780 -1489h-165l780 1489h165zM1946 0h-681v143l147.5 113.5c47 36.333 85.167 68.833 114.5 97.5c70.667 68 117 121.167 139 159.5s33 84.5 33 138.5
c0 46 -14.333 81.5 -43 106.5s-68.334 37.5 -119.001 37.5c-46 0 -92.5 -10 -139.5 -30s-84.167 -40.667 -111.5 -62h-15v179c42 18 88.5 32.667 139.5 44s101.167 17 150.5 17c104 0 183.833 -26.167 239.5 -78.5s83.5 -119.5 83.5 -201.5
c0 -76 -18.833 -140.5 -56.5 -193.5s-81.167 -101.5 -130.5 -145.5c-37.333 -32.667 -78.166 -65.167 -122.499 -97.5l-119.5 -88.5h491v-139z" />
    <glyph glyph-name="threequarters" unicode="&#xbe;" horiz-adv-x="2048" 
d="M793 826c0 -47.333 -10 -89.832 -30 -127.499s-46 -67.5 -78 -89.5c-35.333 -24.667 -73.5 -42.334 -114.5 -53.001s-87.833 -16 -140.5 -16c-54.667 0 -105.834 5 -153.501 15s-93.167 24.333 -136.5 43v175h17c24.667 -23.333 62.667 -44.833 114 -64.5
s103.333 -29.5 156 -29.5c56 0 102.333 12.167 139 36.5s55 60.5 55 108.5c0 55.333 -16.667 92.833 -50 112.5s-80.333 29.5 -141 29.5h-140v139h125c58 0 102.833 12.667 134.5 38s47.5 60 47.5 104c0 40 -13.667 71.833 -41 95.5s-70 35.5 -128 35.5
c-44 0 -91.5 -10.333 -142.5 -31s-88.833 -42.667 -113.5 -66h-17v175c42.667 18 89 32.667 139 44s101.333 17 154 17c101.333 0 180.333 -23.333 237 -70s85 -102.667 85 -168c0 -58 -16.167 -105.833 -48.5 -143.5s-74.166 -65.167 -125.499 -82.5v-8
c53.333 -10.667 99.5 -34.167 138.5 -70.5s58.5 -85.833 58.5 -148.5zM1500 1489l-780 -1489h-165l780 1489h165zM1903 220.001h-163v-220h-150v220h-455v185l456 539h149v-591h163v-133zM1594 353.001v400l-343 -400h343z" />
    <glyph glyph-name="questiondown" unicode="&#xbf;" horiz-adv-x="970" 
d="M632 1278h-204v211h204v-211zM861 40c-52.667 -20 -108.331 -36.666 -166.998 -49.999s-123.667 -20 -195 -20c-136.667 0 -244.334 34.833 -323.001 104.5s-118 161.5 -118 275.5c0 62.667 10 118.667 30 168s49.667 96.333 89 141
c35.333 39.333 76.166 74.833 122.499 106.5l144.5 95.5v228h179v-305l-131.5 -81c-40.333 -25.333 -78.833 -55 -115.5 -89c-34 -32 -61.5 -68.333 -82.5 -109s-31.5 -87.334 -31.5 -140.001c0 -75.333 23.667 -131.5 71 -168.5s109 -55.5 185 -55.5
c66 0 129.667 11.5 191 34.5s108.333 45.833 141 68.5h11v-204z" />
    <glyph glyph-name="Agrave" unicode="&#xc0;" horiz-adv-x="1228" 
d="M-10 0l502 1489h244l502 -1489h-209l-135 416h-569l-135 -416h-200zM839 585l-230 702l-229 -702h459zM769 1675h-149l-273 374h243z" />
    <glyph glyph-name="Aacute" unicode="&#xc1;" horiz-adv-x="1228" 
d="M-10 0l502 1489h244l502 -1489h-209l-135 416h-569l-135 -416h-200zM839 585l-230 702l-229 -702h459zM862 2049l-273 -374h-149l179 374h243z" />
    <glyph glyph-name="Acircumflex" unicode="&#xc2;" horiz-adv-x="1228" 
d="M-10 0l502 1489h244l502 -1489h-209l-135 416h-569l-135 -416h-200zM839 585l-230 702l-229 -702h459zM940 1650h-159l-185 256l-184 -256h-155l228 379h227z" />
    <glyph glyph-name="Atilde" unicode="&#xc3;" horiz-adv-x="1228" 
d="M-10 0l502 1489h244l502 -1489h-209l-135 416h-569l-135 -416h-200zM839 585l-230 702l-229 -702h459zM1010 1965c-6.66699 -104 -31.501 -182 -74.501 -234s-100.167 -78 -171.5 -78c-34.667 0 -66.667 6.33301 -96 19s-58 32.334 -86 59.001
c-29.333 27.333 -54.666 48.166 -75.999 62.499s-42.333 21.5 -63 21.5c-32.667 0 -55.5 -15 -68.5 -45s-20.833 -70.333 -23.5 -121h-140c4.66699 102.667 30 180.167 76 232.5s102.333 78.5 169 78.5c34 0 65.333 -6.5 94 -19.5s57.334 -32.167 86.001 -57.5
c28.667 -26 54.5 -45.833 77.5 -59.5s44.167 -20.5 63.5 -20.5c31.333 0 54.166 15 68.499 45s22.5 69 24.5 117h140z" />
    <glyph glyph-name="Adieresis" unicode="&#xc4;" horiz-adv-x="1228" 
d="M-10 0l502 1489h244l502 -1489h-209l-135 416h-569l-135 -416h-200zM839 585l-230 702l-229 -702h459zM913 1657h-201v195h201v-195zM500 1657h-201v195h201v-195z" />
    <glyph glyph-name="Aring" unicode="&#xc5;" horiz-adv-x="1228" 
d="M874.5 1532c-30.333 -46 -69.166 -81.668 -116.499 -107.001l480 -1425h-209l-135 416h-569l-135 -416h-200l479 1422c-48 26.667 -86.833 62.834 -116.5 108.501s-44.5 97.167 -44.5 154.5c0 85.333 29.667 156.833 89 214.5s131.666 86.5 216.999 86.5
c86 0 158.5 -28.667 217.5 -86s88.5 -129 88.5 -215c0 -56 -15.167 -107 -45.5 -153zM839 583.999l-230 705l-229 -705h459zM773 1683c0 48.667 -14.667 89.167 -44 121.5s-67.666 48.5 -114.999 48.5c-46.667 0 -84.834 -16.167 -114.501 -48.5s-44.5 -72.833 -44.5 -121.5
c0 -49.333 15 -90.166 45 -122.499s68 -48.5 114 -48.5s84 16.167 114 48.5s45 73.166 45 122.499z" />
    <glyph glyph-name="AE" unicode="&#xc6;" horiz-adv-x="1870" 
d="M1802 0h-912v557h-505l-217 -557h-207l603 1489h1238v-176h-716v-408h666v-176h-666v-553h716v-176zM890 723v601h-194l-245 -601h439z" />
    <glyph glyph-name="Ccedilla" unicode="&#xc7;" horiz-adv-x="1230" 
d="M733 -27c-97.333 0 -186.835 16.3301 -268.502 48.9971s-152.167 81.334 -211.5 146.001s-105.333 145.334 -138 242.001s-49 207.667 -49 333c0 124.667 15.833 233.334 47.5 326.001s77.834 173.334 138.501 242.001c59.333 66.667 129.666 117.5 210.999 152.5
s172.333 52.5 273 52.5c50 0 96.833 -3.66699 140.5 -11s84.167 -16.666 121.5 -27.999c32 -10 64.833 -22.5 98.5 -37.5s66.834 -31.5 99.501 -49.5v-239h-16c-17.333 16 -39.666 35.333 -66.999 58s-60.666 45 -99.999 67c-38 20.667 -79.333 37.667 -124 51
s-96.334 20 -155.001 20c-63.333 0 -123.333 -13 -180 -39s-106.334 -64.333 -149.001 -115c-42 -50.667 -74.667 -114.334 -98 -191.001s-35 -163 -35 -259c0 -102 12.333 -189.833 37 -263.5s58.334 -135.834 101.001 -186.501c41.333 -49.333 90 -86.5 146 -111.5
s115.333 -37.5 178 -37.5c57.333 0 110.333 7 159 21s92 31.667 130 53c36.667 20.667 68.334 41.834 95.001 63.501s47.667 40.167 63 55.5h15v-236l-92.5 -44c-29 -14 -64.167 -27.667 -105.5 -41c-5.33301 -2 -13 -4.5 -23 -7.5s-17 -4.83301 -21 -5.5
c0.666992 -10 1.66699 -23 3 -39s2 -33.667 2 -53c0 -99.333 -27.333 -179.833 -82 -241.5s-130.334 -92.5 -227.001 -92.5c-24.667 0 -53.667 2 -87 6s-63.333 10 -90 18v160h9c16 -7.33301 37 -14.833 63 -22.5s52.333 -11.5 79 -11.5c62.667 0 108.667 13.167 138 39.5
s44 68.5 44 126.5c0 12 -0.166992 24.667 -0.5 38s-0.833008 28.333 -1.5 45c-12 -0.666992 -23.167 -1.33398 -33.5 -2.00098s-22.833 -1 -37.5 -1z" />
    <glyph glyph-name="Egrave" unicode="&#xc8;" horiz-adv-x="1149" 
d="M151 0v1489h931v-176h-733v-408h683v-176h-683v-553h733v-176h-931zM754 1675h-149l-273 374h243z" />
    <glyph glyph-name="Eacute" unicode="&#xc9;" horiz-adv-x="1149" 
d="M151 0v1489h931v-176h-733v-408h683v-176h-683v-553h733v-176h-931zM920 2049l-273 -374h-149l179 374h243z" />
    <glyph glyph-name="Ecircumflex" unicode="&#xca;" horiz-adv-x="1149" 
d="M151 0v1489h931v-176h-733v-408h683v-176h-683v-553h733v-176h-931zM961 1670h-159l-185 256l-184 -256h-155l228 379h227z" />
    <glyph glyph-name="Edieresis" unicode="&#xcb;" horiz-adv-x="1149" 
d="M151 0v1489h931v-176h-733v-408h683v-176h-683v-553h733v-176h-931zM966 1677h-201v195h201v-195zM553 1677h-201v195h201v-195z" />
    <glyph glyph-name="Igrave" unicode="&#xcc;" horiz-adv-x="764" 
d="M671 0h-578v152h190v1185h-190v152h578v-152h-190v-1185h190v-152zM529 1675h-149l-273 374h243z" />
    <glyph glyph-name="Iacute" unicode="&#xcd;" horiz-adv-x="764" 
d="M671 0h-578v152h190v1185h-190v152h578v-152h-190v-1185h190v-152zM657 2049l-273 -374h-149l179 374h243z" />
    <glyph glyph-name="Icircumflex" unicode="&#xce;" horiz-adv-x="764" 
d="M671 0h-578v152h190v1185h-190v152h578v-152h-190v-1185h190v-152zM725 1670h-159l-185 256l-184 -256h-155l228 379h227z" />
    <glyph glyph-name="Idieresis" unicode="&#xcf;" horiz-adv-x="764" 
d="M671 0h-578v152h190v1185h-190v152h578v-152h-190v-1185h190v-152zM690 1677h-201v195h201v-195zM277 1677h-201v195h201v-195z" />
    <glyph glyph-name="Eth" unicode="&#xd0;" horiz-adv-x="1430" 
d="M1366 743c0 -136 -27.5 -258.668 -82.5 -368.001s-128.833 -194.666 -221.5 -255.999c-74 -49.333 -150.167 -81.5 -228.5 -96.5s-177.833 -22.5 -298.5 -22.5h-343v740h-168v143h168v606h339c140 0 249.833 -10.5 329.5 -31.5s147.5 -49.833 203.5 -86.5
c96 -63.333 170.333 -147.5 223 -252.5s79 -230.167 79 -375.5zM1160 745.999c0 114.667 -19.001 212.5 -57.001 293.5s-94.333 144.167 -169 189.5c-52.667 32 -109 55 -169 69s-134.667 21 -224 21h-151v-436h327v-143h-327v-570h151c88 0 165 7.16699 231 21.5
s126.333 40.166 181 77.499c68.667 46.667 120.334 108.834 155.001 186.501s52 174.5 52 290.5z" />
    <glyph glyph-name="Ntilde" unicode="&#xd1;" horiz-adv-x="1367" 
d="M1216 0h-222l-658 1284v-1284h-185v1489h281l599 -1179v1179h185v-1489zM1110 1985c-6.66699 -104 -31.501 -182 -74.501 -234s-100.167 -78 -171.5 -78c-34.667 0 -66.667 6.33301 -96 19s-58 32.334 -86 59.001c-29.333 27.333 -54.666 48.166 -75.999 62.499
s-42.333 21.5 -63 21.5c-32.667 0 -55.5 -15 -68.5 -45s-20.833 -70.333 -23.5 -121h-140c4.66699 102.667 30 180.167 76 232.5s102.333 78.5 169 78.5c34 0 65.333 -6.5 94 -19.5s57.334 -32.167 86.001 -57.5c28.667 -26 54.5 -45.833 77.5 -59.5
s44.167 -20.5 63.5 -20.5c31.333 0 54.166 15 68.499 45s22.5 69 24.5 117h140z" />
    <glyph glyph-name="Ograve" unicode="&#xd2;" horiz-adv-x="1449" 
d="M1204 1318c56.667 -65.333 100.669 -146.333 132.002 -243s47 -207 47 -331c0 -120.667 -15.333 -229.667 -46 -327s-75 -179 -133 -245c-60.667 -69.333 -131.5 -120.5 -212.5 -153.5s-170.167 -49.5 -267.5 -49.5c-100.667 0 -191.334 17 -272.001 51
s-150 84.667 -208 152c-57.333 66 -101.333 147.333 -132 244s-46 206 -46 328c0 125.333 15.5 235.333 46.5 330s75.167 176 132.5 244c57.333 66 126.5 116.167 207.5 150.5s171.5 51.5 271.5 51.5c101.333 0 192.666 -17.667 273.999 -53s150 -85 206 -149zM1177 744
c0 98.667 -10.667 186.002 -32 262.002s-51.333 139 -90 189c-39.333 51.333 -86.833 89.833 -142.5 115.5s-118.167 38.5 -187.5 38.5c-72 0 -134.833 -12.5 -188.5 -37.5s-101.167 -63.833 -142.5 -116.5c-39.333 -50.667 -69.5 -114.334 -90.5 -191.001
s-31.5 -163.334 -31.5 -260.001c0 -195.333 41 -344.833 123 -448.5s192 -155.5 330 -155.5s247.833 51.833 329.5 155.5s122.5 253.167 122.5 448.5zM851.002 1675h-149l-273 374h243z" />
    </font>
</defs>
</svg>
